G04*
G04 #@! TF.GenerationSoftware,Altium Limited,Altium Designer,19.1.1 (5)*
G04*
G04 Layer_Physical_Order=2*
G04 Layer_Color=16711680*
%FSTAX24Y24*%
%MOIN*%
G70*
G01*
G75*
%ADD12C,0.0100*%
%ADD72C,0.1380*%
%ADD73R,0.0750X0.0650*%
%ADD74O,0.0750X0.0650*%
%ADD75O,0.0900X0.0650*%
%ADD76R,0.0900X0.0650*%
%ADD77O,0.0650X0.0900*%
%ADD78R,0.0650X0.0900*%
%ADD79R,0.0620X0.0620*%
%ADD80C,0.0620*%
%ADD81R,0.1000X0.1600*%
%ADD82R,0.1600X0.1000*%
%ADD83C,0.0591*%
%ADD84C,0.0937*%
%ADD85O,0.0600X0.0860*%
%ADD86C,0.0488*%
%ADD87R,0.0800X0.0600*%
%ADD88O,0.0800X0.0600*%
%ADD89C,0.0280*%
%ADD90C,0.0500*%
%ADD91C,0.0200*%
G36*
X03645D02*
X0D01*
Y0386D01*
X03645D01*
Y0D01*
D02*
G37*
%LPC*%
G36*
X035892Y037664D02*
Y037368D01*
X036188D01*
X036183Y037409D01*
X036147Y037495D01*
X036091Y037568D01*
X036018Y037624D01*
X035933Y037659D01*
X035892Y037664D01*
D02*
G37*
G36*
X035792D02*
X03575Y037659D01*
X035665Y037624D01*
X035592Y037568D01*
X035536Y037495D01*
X035501Y037409D01*
X035495Y037368D01*
X035792D01*
Y037664D01*
D02*
G37*
G36*
X034542D02*
Y037368D01*
X034838D01*
X034833Y037409D01*
X034797Y037495D01*
X034741Y037568D01*
X034668Y037624D01*
X034583Y037659D01*
X034542Y037664D01*
D02*
G37*
G36*
X034442D02*
X0344Y037659D01*
X034315Y037624D01*
X034242Y037568D01*
X034186Y037495D01*
X034151Y037409D01*
X034145Y037368D01*
X034442D01*
Y037664D01*
D02*
G37*
G36*
X005135Y038244D02*
X004987Y038224D01*
X004849Y038167D01*
X00473Y038076D01*
X004639Y037957D01*
X004582Y037819D01*
X004562Y03767D01*
X004582Y037522D01*
X004639Y037384D01*
X00473Y037265D01*
X004849Y037174D01*
X004987Y037116D01*
X005135Y037097D01*
X005284Y037116D01*
X005422Y037174D01*
X005541Y037265D01*
X005632Y037384D01*
X005689Y037522D01*
X005709Y03767D01*
X005689Y037819D01*
X005632Y037957D01*
X005541Y038076D01*
X005422Y038167D01*
X005284Y038224D01*
X005135Y038244D01*
D02*
G37*
G36*
X036188Y037268D02*
X035892D01*
Y036972D01*
X035933Y036977D01*
X036018Y037012D01*
X036091Y037068D01*
X036147Y037141D01*
X036183Y037227D01*
X036188Y037268D01*
D02*
G37*
G36*
X035792D02*
X035495D01*
X035501Y037227D01*
X035536Y037141D01*
X035592Y037068D01*
X035665Y037012D01*
X03575Y036977D01*
X035792Y036972D01*
Y037268D01*
D02*
G37*
G36*
X034838D02*
X034542D01*
Y036972D01*
X034583Y036977D01*
X034668Y037012D01*
X034741Y037068D01*
X034797Y037141D01*
X034833Y037227D01*
X034838Y037268D01*
D02*
G37*
G36*
X034442D02*
X034145D01*
X034151Y037227D01*
X034186Y037141D01*
X034242Y037068D01*
X034315Y037012D01*
X0344Y036977D01*
X034442Y036972D01*
Y037268D01*
D02*
G37*
G36*
X035242Y036964D02*
Y036668D01*
X035538D01*
X035533Y036709D01*
X035497Y036795D01*
X035441Y036868D01*
X035368Y036924D01*
X035283Y036959D01*
X035242Y036964D01*
D02*
G37*
G36*
X035142D02*
X0351Y036959D01*
X035015Y036924D01*
X034942Y036868D01*
X034886Y036795D01*
X034851Y036709D01*
X034845Y036668D01*
X035142D01*
Y036964D01*
D02*
G37*
G36*
X033892D02*
Y036668D01*
X034188D01*
X034183Y036709D01*
X034147Y036795D01*
X034091Y036868D01*
X034018Y036924D01*
X033933Y036959D01*
X033892Y036964D01*
D02*
G37*
G36*
X033792D02*
X03375Y036959D01*
X033665Y036924D01*
X033592Y036868D01*
X033536Y036795D01*
X033501Y036709D01*
X033495Y036668D01*
X033792D01*
Y036964D01*
D02*
G37*
G36*
X035538Y036568D02*
X035242D01*
Y036272D01*
X035283Y036277D01*
X035368Y036312D01*
X035441Y036368D01*
X035497Y036442D01*
X035533Y036527D01*
X035538Y036568D01*
D02*
G37*
G36*
X035142D02*
X034845D01*
X034851Y036527D01*
X034886Y036442D01*
X034942Y036368D01*
X035015Y036312D01*
X0351Y036277D01*
X035142Y036272D01*
Y036568D01*
D02*
G37*
G36*
X034188D02*
X033892D01*
Y036272D01*
X033933Y036277D01*
X034018Y036312D01*
X034091Y036368D01*
X034147Y036442D01*
X034183Y036527D01*
X034188Y036568D01*
D02*
G37*
G36*
X033792D02*
X033495D01*
X033501Y036527D01*
X033536Y036442D01*
X033592Y036368D01*
X033665Y036312D01*
X03375Y036277D01*
X033792Y036272D01*
Y036568D01*
D02*
G37*
G36*
X03305Y036235D02*
Y03605D01*
X033235D01*
X033226Y036094D01*
X033173Y036173D01*
X033094Y036226D01*
X03305Y036235D01*
D02*
G37*
G36*
X03295D02*
X032906Y036226D01*
X032827Y036173D01*
X032774Y036094D01*
X032765Y03605D01*
X03295D01*
Y036235D01*
D02*
G37*
G36*
X02305D02*
Y03605D01*
X023235D01*
X023226Y036094D01*
X023173Y036173D01*
X023094Y036226D01*
X02305Y036235D01*
D02*
G37*
G36*
X02295D02*
X022906Y036226D01*
X022827Y036173D01*
X022774Y036094D01*
X022765Y03605D01*
X02295D01*
Y036235D01*
D02*
G37*
G36*
X02105D02*
Y03605D01*
X021235D01*
X021226Y036094D01*
X021173Y036173D01*
X021094Y036226D01*
X02105Y036235D01*
D02*
G37*
G36*
X02095D02*
X020906Y036226D01*
X020827Y036173D01*
X020774Y036094D01*
X020765Y03605D01*
X02095D01*
Y036235D01*
D02*
G37*
G36*
X01705D02*
Y03605D01*
X017235D01*
X017226Y036094D01*
X017173Y036173D01*
X017094Y036226D01*
X01705Y036235D01*
D02*
G37*
G36*
X01695D02*
X016906Y036226D01*
X016827Y036173D01*
X016774Y036094D01*
X016765Y03605D01*
X01695D01*
Y036235D01*
D02*
G37*
G36*
X01105D02*
Y03605D01*
X011235D01*
X011226Y036094D01*
X011173Y036173D01*
X011094Y036226D01*
X01105Y036235D01*
D02*
G37*
G36*
X01095D02*
X010906Y036226D01*
X010827Y036173D01*
X010774Y036094D01*
X010765Y03605D01*
X01095D01*
Y036235D01*
D02*
G37*
G36*
X00505D02*
Y03605D01*
X005235D01*
X005226Y036094D01*
X005173Y036173D01*
X005094Y036226D01*
X00505Y036235D01*
D02*
G37*
G36*
X00495D02*
X004906Y036226D01*
X004827Y036173D01*
X004774Y036094D01*
X004765Y03605D01*
X00495D01*
Y036235D01*
D02*
G37*
G36*
X00305D02*
Y03605D01*
X003235D01*
X003226Y036094D01*
X003173Y036173D01*
X003094Y036226D01*
X00305Y036235D01*
D02*
G37*
G36*
X00295D02*
X002906Y036226D01*
X002827Y036173D01*
X002774Y036094D01*
X002765Y03605D01*
X00295D01*
Y036235D01*
D02*
G37*
G36*
X035892Y036314D02*
Y036018D01*
X036188D01*
X036183Y036059D01*
X036147Y036145D01*
X036091Y036218D01*
X036018Y036274D01*
X035933Y036309D01*
X035892Y036314D01*
D02*
G37*
G36*
X035792D02*
X03575Y036309D01*
X035665Y036274D01*
X035592Y036218D01*
X035536Y036145D01*
X035501Y036059D01*
X035495Y036018D01*
X035792D01*
Y036314D01*
D02*
G37*
G36*
X034542D02*
Y036018D01*
X034838D01*
X034833Y036059D01*
X034797Y036145D01*
X034741Y036218D01*
X034668Y036274D01*
X034583Y036309D01*
X034542Y036314D01*
D02*
G37*
G36*
X034442D02*
X0344Y036309D01*
X034315Y036274D01*
X034242Y036218D01*
X034186Y036145D01*
X034151Y036059D01*
X034145Y036018D01*
X034442D01*
Y036314D01*
D02*
G37*
G36*
X033235Y03595D02*
X03305D01*
Y035765D01*
X033094Y035774D01*
X033173Y035827D01*
X033226Y035906D01*
X033235Y03595D01*
D02*
G37*
G36*
X03295D02*
X032765D01*
X032774Y035906D01*
X032827Y035827D01*
X032906Y035774D01*
X03295Y035765D01*
Y03595D01*
D02*
G37*
G36*
X023235D02*
X02305D01*
Y035765D01*
X023094Y035774D01*
X023173Y035827D01*
X023226Y035906D01*
X023235Y03595D01*
D02*
G37*
G36*
X02295D02*
X022765D01*
X022774Y035906D01*
X022827Y035827D01*
X022906Y035774D01*
X02295Y035765D01*
Y03595D01*
D02*
G37*
G36*
X021235D02*
X02105D01*
Y035765D01*
X021094Y035774D01*
X021173Y035827D01*
X021226Y035906D01*
X021235Y03595D01*
D02*
G37*
G36*
X02095D02*
X020765D01*
X020774Y035906D01*
X020827Y035827D01*
X020906Y035774D01*
X02095Y035765D01*
Y03595D01*
D02*
G37*
G36*
X017235D02*
X01705D01*
Y035765D01*
X017094Y035774D01*
X017173Y035827D01*
X017226Y035906D01*
X017235Y03595D01*
D02*
G37*
G36*
X01695D02*
X016765D01*
X016774Y035906D01*
X016827Y035827D01*
X016906Y035774D01*
X01695Y035765D01*
Y03595D01*
D02*
G37*
G36*
X011235D02*
X01105D01*
Y035765D01*
X011094Y035774D01*
X011173Y035827D01*
X011226Y035906D01*
X011235Y03595D01*
D02*
G37*
G36*
X01095D02*
X010765D01*
X010774Y035906D01*
X010827Y035827D01*
X010906Y035774D01*
X01095Y035765D01*
Y03595D01*
D02*
G37*
G36*
X005235D02*
X00505D01*
Y035765D01*
X005094Y035774D01*
X005173Y035827D01*
X005226Y035906D01*
X005235Y03595D01*
D02*
G37*
G36*
X00495D02*
X004765D01*
X004774Y035906D01*
X004827Y035827D01*
X004906Y035774D01*
X00495Y035765D01*
Y03595D01*
D02*
G37*
G36*
X003235D02*
X00305D01*
Y035765D01*
X003094Y035774D01*
X003173Y035827D01*
X003226Y035906D01*
X003235Y03595D01*
D02*
G37*
G36*
X00295D02*
X002765D01*
X002774Y035906D01*
X002827Y035827D01*
X002906Y035774D01*
X00295Y035765D01*
Y03595D01*
D02*
G37*
G36*
X036188Y035918D02*
X035892D01*
Y035622D01*
X035933Y035627D01*
X036018Y035662D01*
X036091Y035718D01*
X036147Y035791D01*
X036183Y035877D01*
X036188Y035918D01*
D02*
G37*
G36*
X035792D02*
X035495D01*
X035501Y035877D01*
X035536Y035791D01*
X035592Y035718D01*
X035665Y035662D01*
X03575Y035627D01*
X035792Y035622D01*
Y035918D01*
D02*
G37*
G36*
X034838D02*
X034542D01*
Y035622D01*
X034583Y035627D01*
X034668Y035662D01*
X034741Y035718D01*
X034797Y035791D01*
X034833Y035877D01*
X034838Y035918D01*
D02*
G37*
G36*
X034442D02*
X034145D01*
X034151Y035877D01*
X034186Y035791D01*
X034242Y035718D01*
X034315Y035662D01*
X0344Y035627D01*
X034442Y035622D01*
Y035918D01*
D02*
G37*
G36*
X035242Y035514D02*
Y035218D01*
X035538D01*
X035533Y035259D01*
X035497Y035345D01*
X035441Y035418D01*
X035368Y035474D01*
X035283Y035509D01*
X035242Y035514D01*
D02*
G37*
G36*
X035142D02*
X0351Y035509D01*
X035015Y035474D01*
X034942Y035418D01*
X034886Y035345D01*
X034851Y035259D01*
X034845Y035218D01*
X035142D01*
Y035514D01*
D02*
G37*
G36*
X033892D02*
Y035218D01*
X034188D01*
X034183Y035259D01*
X034147Y035345D01*
X034091Y035418D01*
X034018Y035474D01*
X033933Y035509D01*
X033892Y035514D01*
D02*
G37*
G36*
X033792D02*
X03375Y035509D01*
X033665Y035474D01*
X033592Y035418D01*
X033536Y035345D01*
X033501Y035259D01*
X033495Y035218D01*
X033792D01*
Y035514D01*
D02*
G37*
G36*
X035538Y035118D02*
X035242D01*
Y034822D01*
X035283Y034827D01*
X035368Y034862D01*
X035441Y034918D01*
X035497Y034992D01*
X035533Y035077D01*
X035538Y035118D01*
D02*
G37*
G36*
X035142D02*
X034845D01*
X034851Y035077D01*
X034886Y034992D01*
X034942Y034918D01*
X035015Y034862D01*
X0351Y034827D01*
X035142Y034822D01*
Y035118D01*
D02*
G37*
G36*
X034188D02*
X033892D01*
Y034822D01*
X033933Y034827D01*
X034018Y034862D01*
X034091Y034918D01*
X034147Y034992D01*
X034183Y035077D01*
X034188Y035118D01*
D02*
G37*
G36*
X033792D02*
X033495D01*
X033501Y035077D01*
X033536Y034992D01*
X033592Y034918D01*
X033665Y034862D01*
X03375Y034827D01*
X033792Y034822D01*
Y035118D01*
D02*
G37*
G36*
X035892Y034864D02*
Y034568D01*
X036188D01*
X036183Y034609D01*
X036147Y034695D01*
X036091Y034768D01*
X036018Y034824D01*
X035933Y034859D01*
X035892Y034864D01*
D02*
G37*
G36*
X035792D02*
X03575Y034859D01*
X035665Y034824D01*
X035592Y034768D01*
X035536Y034695D01*
X035501Y034609D01*
X035495Y034568D01*
X035792D01*
Y034864D01*
D02*
G37*
G36*
X034542D02*
Y034568D01*
X034838D01*
X034833Y034609D01*
X034797Y034695D01*
X034741Y034768D01*
X034668Y034824D01*
X034583Y034859D01*
X034542Y034864D01*
D02*
G37*
G36*
X034442D02*
X0344Y034859D01*
X034315Y034824D01*
X034242Y034768D01*
X034186Y034695D01*
X034151Y034609D01*
X034145Y034568D01*
X034442D01*
Y034864D01*
D02*
G37*
G36*
X0226Y034846D02*
Y034549D01*
X022896D01*
X022891Y034591D01*
X022856Y034676D01*
X0228Y034749D01*
X022727Y034805D01*
X022641Y03484D01*
X0226Y034846D01*
D02*
G37*
G36*
X0225D02*
X022459Y03484D01*
X022373Y034805D01*
X0223Y034749D01*
X022244Y034676D01*
X022209Y034591D01*
X022204Y034549D01*
X0225D01*
Y034846D01*
D02*
G37*
G36*
X021361D02*
Y034549D01*
X021657D01*
X021652Y034591D01*
X021617Y034676D01*
X021561Y034749D01*
X021488Y034805D01*
X021402Y03484D01*
X021361Y034846D01*
D02*
G37*
G36*
X021261D02*
X02122Y03484D01*
X021135Y034805D01*
X021061Y034749D01*
X021005Y034676D01*
X02097Y034591D01*
X020965Y034549D01*
X021261D01*
Y034846D01*
D02*
G37*
G36*
X007372Y038244D02*
X007223Y038224D01*
X007085Y038167D01*
X006966Y038076D01*
X006875Y037957D01*
X006818Y037819D01*
X006798Y03767D01*
X006818Y037522D01*
X006875Y037384D01*
X006966Y037265D01*
X007061Y037192D01*
X007044Y037142D01*
X005706D01*
X005667Y037134D01*
X005634Y037112D01*
X005612Y037079D01*
X005604Y03704D01*
Y03594D01*
X005612Y035901D01*
X005634Y035868D01*
X005667Y035846D01*
X005706Y035838D01*
X005945D01*
X005962Y035788D01*
X005924Y035759D01*
X005861Y035677D01*
X005821Y035581D01*
X005808Y035477D01*
X005821Y035374D01*
X005861Y035278D01*
X005924Y035195D01*
X006007Y035132D01*
X006059Y035111D01*
Y035057D01*
X006007Y035035D01*
X005924Y034972D01*
X005861Y034889D01*
X005821Y034793D01*
X005808Y03469D01*
X005821Y034587D01*
X005861Y034491D01*
X005924Y034408D01*
X006007Y034345D01*
X006103Y034305D01*
X006206Y034291D01*
X006309Y034305D01*
X006406Y034345D01*
X006488Y034408D01*
X006552Y034491D01*
X006591Y034587D01*
X006605Y03469D01*
X006591Y034793D01*
X006552Y034889D01*
X006488Y034972D01*
X006406Y035035D01*
X006354Y035057D01*
Y035111D01*
X006406Y035132D01*
X006488Y035195D01*
X006552Y035278D01*
X006591Y035374D01*
X006605Y035477D01*
X006591Y035581D01*
X006552Y035677D01*
X006488Y035759D01*
X006451Y035788D01*
X006468Y035838D01*
X006972D01*
X006989Y035788D01*
X006952Y035759D01*
X006889Y035677D01*
X006849Y035581D01*
X006835Y035477D01*
X006849Y035374D01*
X006889Y035278D01*
X006952Y035195D01*
X007035Y035132D01*
X007086Y035111D01*
Y035057D01*
X007035Y035035D01*
X006952Y034972D01*
X006889Y034889D01*
X006849Y034793D01*
X006835Y03469D01*
X006849Y034587D01*
X006889Y034491D01*
X006952Y034408D01*
X007035Y034345D01*
X007131Y034305D01*
X007234Y034291D01*
X007337Y034305D01*
X007433Y034345D01*
X007516Y034408D01*
X007579Y034491D01*
X007619Y034587D01*
X007633Y03469D01*
X007619Y034793D01*
X007579Y034889D01*
X007516Y034972D01*
X007433Y035035D01*
X007382Y035057D01*
Y035111D01*
X007433Y035132D01*
X007516Y035195D01*
X007579Y035278D01*
X007619Y035374D01*
X007633Y035477D01*
X007619Y035581D01*
X007579Y035677D01*
X007516Y035759D01*
X007478Y035788D01*
X007495Y035838D01*
X007756D01*
X007795Y035846D01*
X007828Y035868D01*
X007851Y035901D01*
X007858Y03594D01*
Y03704D01*
X007851Y037079D01*
X007828Y037112D01*
X007795Y037134D01*
X007756Y037142D01*
X007699D01*
X007682Y037192D01*
X007777Y037265D01*
X007868Y037384D01*
X007926Y037522D01*
X007945Y03767D01*
X007926Y037819D01*
X007868Y037957D01*
X007777Y038076D01*
X007658Y038167D01*
X00752Y038224D01*
X007372Y038244D01*
D02*
G37*
G36*
X036188Y034468D02*
X035892D01*
Y034172D01*
X035933Y034177D01*
X036018Y034212D01*
X036091Y034268D01*
X036147Y034341D01*
X036183Y034427D01*
X036188Y034468D01*
D02*
G37*
G36*
X035792D02*
X035495D01*
X035501Y034427D01*
X035536Y034341D01*
X035592Y034268D01*
X035665Y034212D01*
X03575Y034177D01*
X035792Y034172D01*
Y034468D01*
D02*
G37*
G36*
X034838D02*
X034542D01*
Y034172D01*
X034583Y034177D01*
X034668Y034212D01*
X034741Y034268D01*
X034797Y034341D01*
X034833Y034427D01*
X034838Y034468D01*
D02*
G37*
G36*
X034442D02*
X034145D01*
X034151Y034427D01*
X034186Y034341D01*
X034242Y034268D01*
X034315Y034212D01*
X0344Y034177D01*
X034442Y034172D01*
Y034468D01*
D02*
G37*
G36*
X022896Y034449D02*
X0226D01*
Y034153D01*
X022641Y034158D01*
X022727Y034193D01*
X0228Y03425D01*
X022856Y034323D01*
X022891Y034408D01*
X022896Y034449D01*
D02*
G37*
G36*
X0225D02*
X022204D01*
X022209Y034408D01*
X022244Y034323D01*
X0223Y03425D01*
X022373Y034193D01*
X022459Y034158D01*
X0225Y034153D01*
Y034449D01*
D02*
G37*
G36*
X021657D02*
X021361D01*
Y034153D01*
X021402Y034158D01*
X021488Y034193D01*
X021561Y03425D01*
X021617Y034323D01*
X021652Y034408D01*
X021657Y034449D01*
D02*
G37*
G36*
X021261D02*
X020965D01*
X02097Y034408D01*
X021005Y034323D01*
X021061Y03425D01*
X021135Y034193D01*
X02122Y034158D01*
X021261Y034153D01*
Y034449D01*
D02*
G37*
G36*
X03405Y034235D02*
Y03405D01*
X034235D01*
X034226Y034094D01*
X034173Y034173D01*
X034094Y034226D01*
X03405Y034235D01*
D02*
G37*
G36*
X03395D02*
X033906Y034226D01*
X033827Y034173D01*
X033774Y034094D01*
X033765Y03405D01*
X03395D01*
Y034235D01*
D02*
G37*
G36*
X03205D02*
Y03405D01*
X032235D01*
X032226Y034094D01*
X032173Y034173D01*
X032094Y034226D01*
X03205Y034235D01*
D02*
G37*
G36*
X03195D02*
X031906Y034226D01*
X031827Y034173D01*
X031774Y034094D01*
X031765Y03405D01*
X03195D01*
Y034235D01*
D02*
G37*
G36*
X03005D02*
Y03405D01*
X030235D01*
X030226Y034094D01*
X030173Y034173D01*
X030094Y034226D01*
X03005Y034235D01*
D02*
G37*
G36*
X02995D02*
X029906Y034226D01*
X029827Y034173D01*
X029774Y034094D01*
X029765Y03405D01*
X02995D01*
Y034235D01*
D02*
G37*
G36*
X02605D02*
Y03405D01*
X026235D01*
X026226Y034094D01*
X026173Y034173D01*
X026094Y034226D01*
X02605Y034235D01*
D02*
G37*
G36*
X02595D02*
X025906Y034226D01*
X025827Y034173D01*
X025774Y034094D01*
X025765Y03405D01*
X02595D01*
Y034235D01*
D02*
G37*
G36*
X02405D02*
Y03405D01*
X024235D01*
X024226Y034094D01*
X024173Y034173D01*
X024094Y034226D01*
X02405Y034235D01*
D02*
G37*
G36*
X02395D02*
X023906Y034226D01*
X023827Y034173D01*
X023774Y034094D01*
X023765Y03405D01*
X02395D01*
Y034235D01*
D02*
G37*
G36*
X02005D02*
Y03405D01*
X020235D01*
X020226Y034094D01*
X020173Y034173D01*
X020094Y034226D01*
X02005Y034235D01*
D02*
G37*
G36*
X01995D02*
X019906Y034226D01*
X019827Y034173D01*
X019774Y034094D01*
X019765Y03405D01*
X01995D01*
Y034235D01*
D02*
G37*
G36*
X00805D02*
Y03405D01*
X008235D01*
X008226Y034094D01*
X008173Y034173D01*
X008094Y034226D01*
X00805Y034235D01*
D02*
G37*
G36*
X00795D02*
X007906Y034226D01*
X007827Y034173D01*
X007774Y034094D01*
X007765Y03405D01*
X00795D01*
Y034235D01*
D02*
G37*
G36*
X00405D02*
Y03405D01*
X004235D01*
X004226Y034094D01*
X004173Y034173D01*
X004094Y034226D01*
X00405Y034235D01*
D02*
G37*
G36*
X00395D02*
X003906Y034226D01*
X003827Y034173D01*
X003774Y034094D01*
X003765Y03405D01*
X00395D01*
Y034235D01*
D02*
G37*
G36*
X00205D02*
Y03405D01*
X002235D01*
X002226Y034094D01*
X002173Y034173D01*
X002094Y034226D01*
X00205Y034235D01*
D02*
G37*
G36*
X00195D02*
X001906Y034226D01*
X001827Y034173D01*
X001774Y034094D01*
X001765Y03405D01*
X00195D01*
Y034235D01*
D02*
G37*
G36*
X023166Y034291D02*
Y033995D01*
X023462D01*
X023457Y034036D01*
X023421Y034122D01*
X023365Y034195D01*
X023292Y034251D01*
X023207Y034286D01*
X023166Y034291D01*
D02*
G37*
G36*
X023066D02*
X023024Y034286D01*
X022939Y034251D01*
X022866Y034195D01*
X02281Y034122D01*
X022775Y034036D01*
X022769Y033995D01*
X023066D01*
Y034291D01*
D02*
G37*
G36*
X021995D02*
Y033995D01*
X022292D01*
X022286Y034036D01*
X022251Y034122D01*
X022195Y034195D01*
X022122Y034251D01*
X022037Y034286D01*
X021995Y034291D01*
D02*
G37*
G36*
X021895D02*
X021854Y034286D01*
X021769Y034251D01*
X021696Y034195D01*
X02164Y034122D01*
X021604Y034036D01*
X021599Y033995D01*
X021895D01*
Y034291D01*
D02*
G37*
G36*
X034235Y03395D02*
X03405D01*
Y033765D01*
X034094Y033774D01*
X034173Y033827D01*
X034226Y033906D01*
X034235Y03395D01*
D02*
G37*
G36*
X03395D02*
X033765D01*
X033774Y033906D01*
X033827Y033827D01*
X033906Y033774D01*
X03395Y033765D01*
Y03395D01*
D02*
G37*
G36*
X032235D02*
X03205D01*
Y033765D01*
X032094Y033774D01*
X032173Y033827D01*
X032226Y033906D01*
X032235Y03395D01*
D02*
G37*
G36*
X03195D02*
X031765D01*
X031774Y033906D01*
X031827Y033827D01*
X031906Y033774D01*
X03195Y033765D01*
Y03395D01*
D02*
G37*
G36*
X030235D02*
X03005D01*
Y033765D01*
X030094Y033774D01*
X030173Y033827D01*
X030226Y033906D01*
X030235Y03395D01*
D02*
G37*
G36*
X02995D02*
X029765D01*
X029774Y033906D01*
X029827Y033827D01*
X029906Y033774D01*
X02995Y033765D01*
Y03395D01*
D02*
G37*
G36*
X026235D02*
X02605D01*
Y033765D01*
X026094Y033774D01*
X026173Y033827D01*
X026226Y033906D01*
X026235Y03395D01*
D02*
G37*
G36*
X02595D02*
X025765D01*
X025774Y033906D01*
X025827Y033827D01*
X025906Y033774D01*
X02595Y033765D01*
Y03395D01*
D02*
G37*
G36*
X024235D02*
X02405D01*
Y033765D01*
X024094Y033774D01*
X024173Y033827D01*
X024226Y033906D01*
X024235Y03395D01*
D02*
G37*
G36*
X02395D02*
X023765D01*
X023774Y033906D01*
X023827Y033827D01*
X023906Y033774D01*
X02395Y033765D01*
Y03395D01*
D02*
G37*
G36*
X020235D02*
X02005D01*
Y033765D01*
X020094Y033774D01*
X020173Y033827D01*
X020226Y033906D01*
X020235Y03395D01*
D02*
G37*
G36*
X01995D02*
X019765D01*
X019774Y033906D01*
X019827Y033827D01*
X019906Y033774D01*
X01995Y033765D01*
Y03395D01*
D02*
G37*
G36*
X008235D02*
X00805D01*
Y033765D01*
X008094Y033774D01*
X008173Y033827D01*
X008226Y033906D01*
X008235Y03395D01*
D02*
G37*
G36*
X00795D02*
X007765D01*
X007774Y033906D01*
X007827Y033827D01*
X007906Y033774D01*
X00795Y033765D01*
Y03395D01*
D02*
G37*
G36*
X004235D02*
X00405D01*
Y033765D01*
X004094Y033774D01*
X004173Y033827D01*
X004226Y033906D01*
X004235Y03395D01*
D02*
G37*
G36*
X00395D02*
X003765D01*
X003774Y033906D01*
X003827Y033827D01*
X003906Y033774D01*
X00395Y033765D01*
Y03395D01*
D02*
G37*
G36*
X002235D02*
X00205D01*
Y033765D01*
X002094Y033774D01*
X002173Y033827D01*
X002226Y033906D01*
X002235Y03395D01*
D02*
G37*
G36*
X00195D02*
X001765D01*
X001774Y033906D01*
X001827Y033827D01*
X001906Y033774D01*
X00195Y033765D01*
Y03395D01*
D02*
G37*
G36*
X023462Y033895D02*
X023166D01*
Y033599D01*
X023207Y033604D01*
X023292Y033639D01*
X023365Y033695D01*
X023421Y033768D01*
X023457Y033854D01*
X023462Y033895D01*
D02*
G37*
G36*
X023066D02*
X022769D01*
X022775Y033854D01*
X02281Y033768D01*
X022866Y033695D01*
X022939Y033639D01*
X023024Y033604D01*
X023066Y033599D01*
Y033895D01*
D02*
G37*
G36*
X022292D02*
X021995D01*
Y033599D01*
X022037Y033604D01*
X022122Y033639D01*
X022195Y033695D01*
X022251Y033768D01*
X022286Y033854D01*
X022292Y033895D01*
D02*
G37*
G36*
X021895D02*
X021599D01*
X021604Y033854D01*
X02164Y033768D01*
X021696Y033695D01*
X021769Y033639D01*
X021854Y033604D01*
X021895Y033599D01*
Y033895D01*
D02*
G37*
G36*
X0226Y033641D02*
Y033345D01*
X022896D01*
X022891Y033386D01*
X022856Y033472D01*
X0228Y033545D01*
X022727Y033601D01*
X022641Y033636D01*
X0226Y033641D01*
D02*
G37*
G36*
X0225D02*
X022459Y033636D01*
X022373Y033601D01*
X0223Y033545D01*
X022244Y033472D01*
X022209Y033386D01*
X022204Y033345D01*
X0225D01*
Y033641D01*
D02*
G37*
G36*
X021361D02*
Y033345D01*
X021657D01*
X021652Y033386D01*
X021617Y033472D01*
X021561Y033545D01*
X021488Y033601D01*
X021402Y033636D01*
X021361Y033641D01*
D02*
G37*
G36*
X021261D02*
X02122Y033636D01*
X021135Y033601D01*
X021061Y033545D01*
X021005Y033472D01*
X02097Y033386D01*
X020965Y033345D01*
X021261D01*
Y033641D01*
D02*
G37*
G36*
X022896Y033245D02*
X0226D01*
Y032949D01*
X022641Y032954D01*
X022727Y032989D01*
X0228Y033045D01*
X022856Y033118D01*
X022891Y033204D01*
X022896Y033245D01*
D02*
G37*
G36*
X0225D02*
X022204D01*
X022209Y033204D01*
X022244Y033118D01*
X0223Y033045D01*
X022373Y032989D01*
X022459Y032954D01*
X0225Y032949D01*
Y033245D01*
D02*
G37*
G36*
X021657D02*
X021361D01*
Y032949D01*
X021402Y032954D01*
X021488Y032989D01*
X021561Y033045D01*
X021617Y033118D01*
X021652Y033204D01*
X021657Y033245D01*
D02*
G37*
G36*
X021261D02*
X020965D01*
X02097Y033204D01*
X021005Y033118D01*
X021061Y033045D01*
X021135Y032989D01*
X02122Y032954D01*
X021261Y032949D01*
Y033245D01*
D02*
G37*
G36*
X023166Y032989D02*
Y032692D01*
X023462D01*
X023457Y032733D01*
X023421Y032819D01*
X023365Y032892D01*
X023292Y032948D01*
X023207Y032983D01*
X023166Y032989D01*
D02*
G37*
G36*
X023066D02*
X023024Y032983D01*
X022939Y032948D01*
X022866Y032892D01*
X02281Y032819D01*
X022775Y032733D01*
X022769Y032692D01*
X023066D01*
Y032989D01*
D02*
G37*
G36*
X022004D02*
Y032692D01*
X0223D01*
X022295Y032733D01*
X02226Y032819D01*
X022204Y032892D01*
X02213Y032948D01*
X022045Y032983D01*
X022004Y032989D01*
D02*
G37*
G36*
X021904D02*
X021863Y032983D01*
X021777Y032948D01*
X021704Y032892D01*
X021648Y032819D01*
X021613Y032733D01*
X021607Y032692D01*
X021904D01*
Y032989D01*
D02*
G37*
G36*
X023462Y032592D02*
X023166D01*
Y032296D01*
X023207Y032301D01*
X023292Y032336D01*
X023365Y032392D01*
X023421Y032466D01*
X023457Y032551D01*
X023462Y032592D01*
D02*
G37*
G36*
X023066D02*
X022769D01*
X022775Y032551D01*
X02281Y032466D01*
X022866Y032392D01*
X022939Y032336D01*
X023024Y032301D01*
X023066Y032296D01*
Y032592D01*
D02*
G37*
G36*
X0223D02*
X022004D01*
Y032296D01*
X022045Y032301D01*
X02213Y032336D01*
X022204Y032392D01*
X02226Y032466D01*
X022295Y032551D01*
X0223Y032592D01*
D02*
G37*
G36*
X021904D02*
X021607D01*
X021613Y032551D01*
X021648Y032466D01*
X021704Y032392D01*
X021777Y032336D01*
X021863Y032301D01*
X021904Y032296D01*
Y032592D01*
D02*
G37*
G36*
X0226Y032483D02*
Y032187D01*
X022896D01*
X022891Y032228D01*
X022856Y032314D01*
X0228Y032387D01*
X022727Y032443D01*
X022641Y032478D01*
X0226Y032483D01*
D02*
G37*
G36*
X0225D02*
X022459Y032478D01*
X022373Y032443D01*
X0223Y032387D01*
X022244Y032314D01*
X022209Y032228D01*
X022204Y032187D01*
X0225D01*
Y032483D01*
D02*
G37*
G36*
X021361D02*
Y032187D01*
X021657D01*
X021652Y032228D01*
X021617Y032314D01*
X021561Y032387D01*
X021488Y032443D01*
X021402Y032478D01*
X021361Y032483D01*
D02*
G37*
G36*
X021261D02*
X02122Y032478D01*
X021135Y032443D01*
X021061Y032387D01*
X021005Y032314D01*
X02097Y032228D01*
X020965Y032187D01*
X021261D01*
Y032483D01*
D02*
G37*
G36*
X03505Y032235D02*
Y03205D01*
X035235D01*
X035226Y032094D01*
X035173Y032173D01*
X035094Y032226D01*
X03505Y032235D01*
D02*
G37*
G36*
X03495D02*
X034906Y032226D01*
X034827Y032173D01*
X034774Y032094D01*
X034765Y03205D01*
X03495D01*
Y032235D01*
D02*
G37*
G36*
X03305D02*
Y03205D01*
X033235D01*
X033226Y032094D01*
X033173Y032173D01*
X033094Y032226D01*
X03305Y032235D01*
D02*
G37*
G36*
X03295D02*
X032906Y032226D01*
X032827Y032173D01*
X032774Y032094D01*
X032765Y03205D01*
X03295D01*
Y032235D01*
D02*
G37*
G36*
X03105D02*
Y03205D01*
X031235D01*
X031226Y032094D01*
X031173Y032173D01*
X031094Y032226D01*
X03105Y032235D01*
D02*
G37*
G36*
X03095D02*
X030906Y032226D01*
X030827Y032173D01*
X030774Y032094D01*
X030765Y03205D01*
X03095D01*
Y032235D01*
D02*
G37*
G36*
X02705D02*
Y03205D01*
X027235D01*
X027226Y032094D01*
X027173Y032173D01*
X027094Y032226D01*
X02705Y032235D01*
D02*
G37*
G36*
X02695D02*
X026906Y032226D01*
X026827Y032173D01*
X026774Y032094D01*
X026765Y03205D01*
X02695D01*
Y032235D01*
D02*
G37*
G36*
X01105D02*
Y03205D01*
X011235D01*
X011226Y032094D01*
X011173Y032173D01*
X011094Y032226D01*
X01105Y032235D01*
D02*
G37*
G36*
X01095D02*
X010906Y032226D01*
X010827Y032173D01*
X010774Y032094D01*
X010765Y03205D01*
X01095D01*
Y032235D01*
D02*
G37*
G36*
X00905D02*
Y03205D01*
X009235D01*
X009226Y032094D01*
X009173Y032173D01*
X009094Y032226D01*
X00905Y032235D01*
D02*
G37*
G36*
X00895D02*
X008906Y032226D01*
X008827Y032173D01*
X008774Y032094D01*
X008765Y03205D01*
X00895D01*
Y032235D01*
D02*
G37*
G36*
X00305D02*
Y03205D01*
X003235D01*
X003226Y032094D01*
X003173Y032173D01*
X003094Y032226D01*
X00305Y032235D01*
D02*
G37*
G36*
X00295D02*
X002906Y032226D01*
X002827Y032173D01*
X002774Y032094D01*
X002765Y03205D01*
X00295D01*
Y032235D01*
D02*
G37*
G36*
X007372Y03307D02*
X007223Y033051D01*
X007085Y032994D01*
X006966Y032903D01*
X006875Y032784D01*
X006818Y032645D01*
X006798Y032497D01*
X006818Y032349D01*
X006875Y03221D01*
X006966Y032092D01*
X007085Y032001D01*
X007223Y031943D01*
X007372Y031924D01*
X00752Y031943D01*
X007658Y032001D01*
X007777Y032092D01*
X007868Y03221D01*
X007926Y032349D01*
X007945Y032497D01*
X007926Y032645D01*
X007868Y032784D01*
X007777Y032903D01*
X007658Y032994D01*
X00752Y033051D01*
X007372Y03307D01*
D02*
G37*
G36*
X005135D02*
X004987Y033051D01*
X004849Y032994D01*
X00473Y032903D01*
X004639Y032784D01*
X004582Y032645D01*
X004562Y032497D01*
X004582Y032349D01*
X004639Y03221D01*
X00473Y032092D01*
X004849Y032001D01*
X004987Y031943D01*
X005135Y031924D01*
X005284Y031943D01*
X005422Y032001D01*
X005541Y032092D01*
X005632Y03221D01*
X005689Y032349D01*
X005709Y032497D01*
X005689Y032645D01*
X005632Y032784D01*
X005541Y032903D01*
X005422Y032994D01*
X005284Y033051D01*
X005135Y03307D01*
D02*
G37*
G36*
X022896Y032087D02*
X0226D01*
Y031791D01*
X022641Y031796D01*
X022727Y031831D01*
X0228Y031887D01*
X022856Y031961D01*
X022891Y032046D01*
X022896Y032087D01*
D02*
G37*
G36*
X0225D02*
X022204D01*
X022209Y032046D01*
X022244Y031961D01*
X0223Y031887D01*
X022373Y031831D01*
X022459Y031796D01*
X0225Y031791D01*
Y032087D01*
D02*
G37*
G36*
X021657D02*
X021361D01*
Y031791D01*
X021402Y031796D01*
X021488Y031831D01*
X021561Y031887D01*
X021617Y031961D01*
X021652Y032046D01*
X021657Y032087D01*
D02*
G37*
G36*
X021261D02*
X020965D01*
X02097Y032046D01*
X021005Y031961D01*
X021061Y031887D01*
X021135Y031831D01*
X02122Y031796D01*
X021261Y031791D01*
Y032087D01*
D02*
G37*
G36*
X035235Y03195D02*
X03505D01*
Y031765D01*
X035094Y031774D01*
X035173Y031827D01*
X035226Y031906D01*
X035235Y03195D01*
D02*
G37*
G36*
X03495D02*
X034765D01*
X034774Y031906D01*
X034827Y031827D01*
X034906Y031774D01*
X03495Y031765D01*
Y03195D01*
D02*
G37*
G36*
X033235D02*
X03305D01*
Y031765D01*
X033094Y031774D01*
X033173Y031827D01*
X033226Y031906D01*
X033235Y03195D01*
D02*
G37*
G36*
X03295D02*
X032765D01*
X032774Y031906D01*
X032827Y031827D01*
X032906Y031774D01*
X03295Y031765D01*
Y03195D01*
D02*
G37*
G36*
X031235D02*
X03105D01*
Y031765D01*
X031094Y031774D01*
X031173Y031827D01*
X031226Y031906D01*
X031235Y03195D01*
D02*
G37*
G36*
X03095D02*
X030765D01*
X030774Y031906D01*
X030827Y031827D01*
X030906Y031774D01*
X03095Y031765D01*
Y03195D01*
D02*
G37*
G36*
X027235D02*
X02705D01*
Y031765D01*
X027094Y031774D01*
X027173Y031827D01*
X027226Y031906D01*
X027235Y03195D01*
D02*
G37*
G36*
X02695D02*
X026765D01*
X026774Y031906D01*
X026827Y031827D01*
X026906Y031774D01*
X02695Y031765D01*
Y03195D01*
D02*
G37*
G36*
X011235D02*
X01105D01*
Y031765D01*
X011094Y031774D01*
X011173Y031827D01*
X011226Y031906D01*
X011235Y03195D01*
D02*
G37*
G36*
X01095D02*
X010765D01*
X010774Y031906D01*
X010827Y031827D01*
X010906Y031774D01*
X01095Y031765D01*
Y03195D01*
D02*
G37*
G36*
X009235D02*
X00905D01*
Y031765D01*
X009094Y031774D01*
X009173Y031827D01*
X009226Y031906D01*
X009235Y03195D01*
D02*
G37*
G36*
X00895D02*
X008765D01*
X008774Y031906D01*
X008827Y031827D01*
X008906Y031774D01*
X00895Y031765D01*
Y03195D01*
D02*
G37*
G36*
X003235D02*
X00305D01*
Y031765D01*
X003094Y031774D01*
X003173Y031827D01*
X003226Y031906D01*
X003235Y03195D01*
D02*
G37*
G36*
X00295D02*
X002765D01*
X002774Y031906D01*
X002827Y031827D01*
X002906Y031774D01*
X00295Y031765D01*
Y03195D01*
D02*
G37*
G36*
X034976Y03153D02*
X034886Y031518D01*
X034802Y031483D01*
X03473Y031428D01*
X034675Y031356D01*
X03464Y031273D01*
X034628Y031183D01*
X03464Y031093D01*
X034675Y031009D01*
X03473Y030937D01*
X034802Y030882D01*
X034886Y030848D01*
X034976Y030836D01*
X035065Y030848D01*
X035149Y030882D01*
X035221Y030937D01*
X035276Y031009D01*
X035311Y031093D01*
X035323Y031183D01*
X035311Y031273D01*
X035276Y031356D01*
X035221Y031428D01*
X035149Y031483D01*
X035065Y031518D01*
X034976Y03153D01*
D02*
G37*
G36*
X03205Y030235D02*
Y03005D01*
X032235D01*
X032226Y030094D01*
X032173Y030173D01*
X032094Y030226D01*
X03205Y030235D01*
D02*
G37*
G36*
X03195D02*
X031906Y030226D01*
X031827Y030173D01*
X031774Y030094D01*
X031765Y03005D01*
X03195D01*
Y030235D01*
D02*
G37*
G36*
X03005D02*
Y03005D01*
X030235D01*
X030226Y030094D01*
X030173Y030173D01*
X030094Y030226D01*
X03005Y030235D01*
D02*
G37*
G36*
X02995D02*
X029906Y030226D01*
X029827Y030173D01*
X029774Y030094D01*
X029765Y03005D01*
X02995D01*
Y030235D01*
D02*
G37*
G36*
X02605D02*
Y03005D01*
X026235D01*
X026226Y030094D01*
X026173Y030173D01*
X026094Y030226D01*
X02605Y030235D01*
D02*
G37*
G36*
X02595D02*
X025906Y030226D01*
X025827Y030173D01*
X025774Y030094D01*
X025765Y03005D01*
X02595D01*
Y030235D01*
D02*
G37*
G36*
X02405D02*
Y03005D01*
X024235D01*
X024226Y030094D01*
X024173Y030173D01*
X024094Y030226D01*
X02405Y030235D01*
D02*
G37*
G36*
X02395D02*
X023906Y030226D01*
X023827Y030173D01*
X023774Y030094D01*
X023765Y03005D01*
X02395D01*
Y030235D01*
D02*
G37*
G36*
X034976Y03053D02*
X034886Y030518D01*
X034802Y030483D01*
X03473Y030428D01*
X034675Y030356D01*
X03464Y030273D01*
X034628Y030183D01*
X03464Y030093D01*
X034675Y030009D01*
X03473Y029937D01*
X034802Y029882D01*
X034886Y029848D01*
X034976Y029836D01*
X035065Y029848D01*
X035149Y029882D01*
X035221Y029937D01*
X035276Y030009D01*
X035311Y030093D01*
X035323Y030183D01*
X035311Y030273D01*
X035276Y030356D01*
X035221Y030428D01*
X035149Y030483D01*
X035065Y030518D01*
X034976Y03053D01*
D02*
G37*
G36*
X032235Y02995D02*
X03205D01*
Y029765D01*
X032094Y029774D01*
X032173Y029827D01*
X032226Y029906D01*
X032235Y02995D01*
D02*
G37*
G36*
X03195D02*
X031765D01*
X031774Y029906D01*
X031827Y029827D01*
X031906Y029774D01*
X03195Y029765D01*
Y02995D01*
D02*
G37*
G36*
X030235D02*
X03005D01*
Y029765D01*
X030094Y029774D01*
X030173Y029827D01*
X030226Y029906D01*
X030235Y02995D01*
D02*
G37*
G36*
X02995D02*
X029765D01*
X029774Y029906D01*
X029827Y029827D01*
X029906Y029774D01*
X02995Y029765D01*
Y02995D01*
D02*
G37*
G36*
X026235D02*
X02605D01*
Y029765D01*
X026094Y029774D01*
X026173Y029827D01*
X026226Y029906D01*
X026235Y02995D01*
D02*
G37*
G36*
X02595D02*
X025765D01*
X025774Y029906D01*
X025827Y029827D01*
X025906Y029774D01*
X02595Y029765D01*
Y02995D01*
D02*
G37*
G36*
X024235D02*
X02405D01*
Y029765D01*
X024094Y029774D01*
X024173Y029827D01*
X024226Y029906D01*
X024235Y02995D01*
D02*
G37*
G36*
X02395D02*
X023765D01*
X023774Y029906D01*
X023827Y029827D01*
X023906Y029774D01*
X02395Y029765D01*
Y02995D01*
D02*
G37*
G36*
X03505Y028235D02*
Y02805D01*
X035235D01*
X035226Y028094D01*
X035173Y028173D01*
X035094Y028226D01*
X03505Y028235D01*
D02*
G37*
G36*
X03495D02*
X034906Y028226D01*
X034827Y028173D01*
X034774Y028094D01*
X034765Y02805D01*
X03495D01*
Y028235D01*
D02*
G37*
G36*
X03305D02*
Y02805D01*
X033235D01*
X033226Y028094D01*
X033173Y028173D01*
X033094Y028226D01*
X03305Y028235D01*
D02*
G37*
G36*
X03295D02*
X032906Y028226D01*
X032827Y028173D01*
X032774Y028094D01*
X032765Y02805D01*
X03295D01*
Y028235D01*
D02*
G37*
G36*
X02905D02*
Y02805D01*
X029235D01*
X029226Y028094D01*
X029173Y028173D01*
X029094Y028226D01*
X02905Y028235D01*
D02*
G37*
G36*
X02895D02*
X028906Y028226D01*
X028827Y028173D01*
X028774Y028094D01*
X028765Y02805D01*
X02895D01*
Y028235D01*
D02*
G37*
G36*
X02705D02*
Y02805D01*
X027235D01*
X027226Y028094D01*
X027173Y028173D01*
X027094Y028226D01*
X02705Y028235D01*
D02*
G37*
G36*
X02695D02*
X026906Y028226D01*
X026827Y028173D01*
X026774Y028094D01*
X026765Y02805D01*
X02695D01*
Y028235D01*
D02*
G37*
G36*
X01505D02*
Y02805D01*
X015235D01*
X015226Y028094D01*
X015173Y028173D01*
X015094Y028226D01*
X01505Y028235D01*
D02*
G37*
G36*
X01495D02*
X014906Y028226D01*
X014827Y028173D01*
X014774Y028094D01*
X014765Y02805D01*
X01495D01*
Y028235D01*
D02*
G37*
G36*
X01305D02*
Y02805D01*
X013235D01*
X013226Y028094D01*
X013173Y028173D01*
X013094Y028226D01*
X01305Y028235D01*
D02*
G37*
G36*
X01295D02*
X012906Y028226D01*
X012827Y028173D01*
X012774Y028094D01*
X012765Y02805D01*
X01295D01*
Y028235D01*
D02*
G37*
G36*
X01105D02*
Y02805D01*
X011235D01*
X011226Y028094D01*
X011173Y028173D01*
X011094Y028226D01*
X01105Y028235D01*
D02*
G37*
G36*
X01095D02*
X010906Y028226D01*
X010827Y028173D01*
X010774Y028094D01*
X010765Y02805D01*
X01095D01*
Y028235D01*
D02*
G37*
G36*
X00905D02*
Y02805D01*
X009235D01*
X009226Y028094D01*
X009173Y028173D01*
X009094Y028226D01*
X00905Y028235D01*
D02*
G37*
G36*
X00895D02*
X008906Y028226D01*
X008827Y028173D01*
X008774Y028094D01*
X008765Y02805D01*
X00895D01*
Y028235D01*
D02*
G37*
G36*
X00705D02*
Y02805D01*
X007235D01*
X007226Y028094D01*
X007173Y028173D01*
X007094Y028226D01*
X00705Y028235D01*
D02*
G37*
G36*
X00695D02*
X006906Y028226D01*
X006827Y028173D01*
X006774Y028094D01*
X006765Y02805D01*
X00695D01*
Y028235D01*
D02*
G37*
G36*
X00505D02*
Y02805D01*
X005235D01*
X005226Y028094D01*
X005173Y028173D01*
X005094Y028226D01*
X00505Y028235D01*
D02*
G37*
G36*
X00495D02*
X004906Y028226D01*
X004827Y028173D01*
X004774Y028094D01*
X004765Y02805D01*
X00495D01*
Y028235D01*
D02*
G37*
G36*
X035235Y02795D02*
X03505D01*
Y027765D01*
X035094Y027774D01*
X035173Y027827D01*
X035226Y027906D01*
X035235Y02795D01*
D02*
G37*
G36*
X03495D02*
X034765D01*
X034774Y027906D01*
X034827Y027827D01*
X034906Y027774D01*
X03495Y027765D01*
Y02795D01*
D02*
G37*
G36*
X033235D02*
X03305D01*
Y027765D01*
X033094Y027774D01*
X033173Y027827D01*
X033226Y027906D01*
X033235Y02795D01*
D02*
G37*
G36*
X03295D02*
X032765D01*
X032774Y027906D01*
X032827Y027827D01*
X032906Y027774D01*
X03295Y027765D01*
Y02795D01*
D02*
G37*
G36*
X029235D02*
X02905D01*
Y027765D01*
X029094Y027774D01*
X029173Y027827D01*
X029226Y027906D01*
X029235Y02795D01*
D02*
G37*
G36*
X02895D02*
X028765D01*
X028774Y027906D01*
X028827Y027827D01*
X028906Y027774D01*
X02895Y027765D01*
Y02795D01*
D02*
G37*
G36*
X027235D02*
X02705D01*
Y027765D01*
X027094Y027774D01*
X027173Y027827D01*
X027226Y027906D01*
X027235Y02795D01*
D02*
G37*
G36*
X02695D02*
X026765D01*
X026774Y027906D01*
X026827Y027827D01*
X026906Y027774D01*
X02695Y027765D01*
Y02795D01*
D02*
G37*
G36*
X015235D02*
X01505D01*
Y027765D01*
X015094Y027774D01*
X015173Y027827D01*
X015226Y027906D01*
X015235Y02795D01*
D02*
G37*
G36*
X01495D02*
X014765D01*
X014774Y027906D01*
X014827Y027827D01*
X014906Y027774D01*
X01495Y027765D01*
Y02795D01*
D02*
G37*
G36*
X013235D02*
X01305D01*
Y027765D01*
X013094Y027774D01*
X013173Y027827D01*
X013226Y027906D01*
X013235Y02795D01*
D02*
G37*
G36*
X01295D02*
X012765D01*
X012774Y027906D01*
X012827Y027827D01*
X012906Y027774D01*
X01295Y027765D01*
Y02795D01*
D02*
G37*
G36*
X011235D02*
X01105D01*
Y027765D01*
X011094Y027774D01*
X011173Y027827D01*
X011226Y027906D01*
X011235Y02795D01*
D02*
G37*
G36*
X01095D02*
X010765D01*
X010774Y027906D01*
X010827Y027827D01*
X010906Y027774D01*
X01095Y027765D01*
Y02795D01*
D02*
G37*
G36*
X009235D02*
X00905D01*
Y027765D01*
X009094Y027774D01*
X009173Y027827D01*
X009226Y027906D01*
X009235Y02795D01*
D02*
G37*
G36*
X00895D02*
X008765D01*
X008774Y027906D01*
X008827Y027827D01*
X008906Y027774D01*
X00895Y027765D01*
Y02795D01*
D02*
G37*
G36*
X007235D02*
X00705D01*
Y027765D01*
X007094Y027774D01*
X007173Y027827D01*
X007226Y027906D01*
X007235Y02795D01*
D02*
G37*
G36*
X00695D02*
X006765D01*
X006774Y027906D01*
X006827Y027827D01*
X006906Y027774D01*
X00695Y027765D01*
Y02795D01*
D02*
G37*
G36*
X005235D02*
X00505D01*
Y027765D01*
X005094Y027774D01*
X005173Y027827D01*
X005226Y027906D01*
X005235Y02795D01*
D02*
G37*
G36*
X00495D02*
X004765D01*
X004774Y027906D01*
X004827Y027827D01*
X004906Y027774D01*
X00495Y027765D01*
Y02795D01*
D02*
G37*
G36*
X006539Y026866D02*
Y02657D01*
X006836D01*
X00683Y026611D01*
X006795Y026696D01*
X006739Y026769D01*
X006666Y026825D01*
X006581Y026861D01*
X006539Y026866D01*
D02*
G37*
G36*
X006439D02*
X006398Y026861D01*
X006313Y026825D01*
X00624Y026769D01*
X006184Y026696D01*
X006148Y026611D01*
X006143Y02657D01*
X006439D01*
Y026866D01*
D02*
G37*
G36*
X005075D02*
Y02657D01*
X005371D01*
X005366Y026611D01*
X005331Y026696D01*
X005275Y026769D01*
X005202Y026825D01*
X005116Y026861D01*
X005075Y026866D01*
D02*
G37*
G36*
X004975D02*
X004934Y026861D01*
X004848Y026825D01*
X004775Y026769D01*
X004719Y026696D01*
X004684Y026611D01*
X004679Y02657D01*
X004975D01*
Y026866D01*
D02*
G37*
G36*
X02087Y027644D02*
X02002D01*
Y026544D01*
X02087D01*
Y027644D01*
D02*
G37*
G36*
X024445Y027648D02*
X024334Y027633D01*
X024231Y02759D01*
X024142Y027522D01*
X024074Y027433D01*
X024031Y02733D01*
X024017Y027219D01*
Y026969D01*
X024031Y026858D01*
X024074Y026755D01*
X024142Y026666D01*
X024231Y026598D01*
X024334Y026555D01*
X024445Y02654D01*
X024556Y026555D01*
X02466Y026598D01*
X024748Y026666D01*
X024817Y026755D01*
X024859Y026858D01*
X024874Y026969D01*
Y027219D01*
X024859Y02733D01*
X024817Y027433D01*
X024748Y027522D01*
X02466Y02759D01*
X024556Y027633D01*
X024445Y027648D01*
D02*
G37*
G36*
X023445D02*
X023334Y027633D01*
X023231Y02759D01*
X023142Y027522D01*
X023074Y027433D01*
X023031Y02733D01*
X023017Y027219D01*
Y026969D01*
X023031Y026858D01*
X023074Y026755D01*
X023142Y026666D01*
X023231Y026598D01*
X023334Y026555D01*
X023445Y02654D01*
X023556Y026555D01*
X02366Y026598D01*
X023748Y026666D01*
X023817Y026755D01*
X023859Y026858D01*
X023874Y026969D01*
Y027219D01*
X023859Y02733D01*
X023817Y027433D01*
X023748Y027522D01*
X02366Y02759D01*
X023556Y027633D01*
X023445Y027648D01*
D02*
G37*
G36*
X022445D02*
X022334Y027633D01*
X022231Y02759D01*
X022142Y027522D01*
X022074Y027433D01*
X022031Y02733D01*
X022017Y027219D01*
Y026969D01*
X022031Y026858D01*
X022074Y026755D01*
X022142Y026666D01*
X022231Y026598D01*
X022334Y026555D01*
X022445Y02654D01*
X022556Y026555D01*
X02266Y026598D01*
X022748Y026666D01*
X022817Y026755D01*
X022859Y026858D01*
X022874Y026969D01*
Y027219D01*
X022859Y02733D01*
X022817Y027433D01*
X022748Y027522D01*
X02266Y02759D01*
X022556Y027633D01*
X022445Y027648D01*
D02*
G37*
G36*
X006836Y02647D02*
X006539D01*
Y026173D01*
X006581Y026179D01*
X006666Y026214D01*
X006739Y02627D01*
X006795Y026343D01*
X00683Y026428D01*
X006836Y02647D01*
D02*
G37*
G36*
X006439D02*
X006143D01*
X006148Y026428D01*
X006184Y026343D01*
X00624Y02627D01*
X006313Y026214D01*
X006398Y026179D01*
X006439Y026173D01*
Y02647D01*
D02*
G37*
G36*
X005371D02*
X005075D01*
Y026173D01*
X005116Y026179D01*
X005202Y026214D01*
X005275Y02627D01*
X005331Y026343D01*
X005366Y026428D01*
X005371Y02647D01*
D02*
G37*
G36*
X004975D02*
X004679D01*
X004684Y026428D01*
X004719Y026343D01*
X004775Y02627D01*
X004848Y026214D01*
X004934Y026179D01*
X004975Y026173D01*
Y02647D01*
D02*
G37*
G36*
X02995Y026235D02*
X029906Y026226D01*
X029827Y026173D01*
X029774Y026094D01*
X029769Y026071D01*
X029716Y026057D01*
X029679Y026081D01*
X029621Y026093D01*
X02194D01*
X021882Y026081D01*
X021832Y026048D01*
X020432Y024648D01*
X020399Y024599D01*
X020387Y02454D01*
Y020346D01*
X020352Y020293D01*
X020336Y020215D01*
X020352Y020137D01*
X020396Y020071D01*
X020462Y020027D01*
X02054Y020011D01*
X020618Y020027D01*
X020684Y020071D01*
X020729Y020137D01*
X020737Y020181D01*
X020787Y020176D01*
Y019953D01*
X020687Y019853D01*
X020184D01*
X019969Y020068D01*
X019919Y020101D01*
X019861Y020113D01*
X019797D01*
X01976Y020202D01*
X019696Y020285D01*
X019612Y020349D01*
X019515Y02039D01*
X019411Y020403D01*
X019211D01*
X019106Y02039D01*
X019009Y020349D01*
X018925Y020285D01*
X018861Y020202D01*
X018821Y020104D01*
X018807Y02D01*
X018821Y019896D01*
X018861Y019798D01*
X018925Y019715D01*
X019009Y019651D01*
X019106Y01961D01*
X019211Y019597D01*
X019411D01*
X019515Y01961D01*
X019612Y019651D01*
X019696Y019715D01*
X019754Y01979D01*
X019796Y019795D01*
X01981Y019794D01*
X020012Y019592D01*
X020062Y019559D01*
X02012Y019547D01*
X02075D01*
X020809Y019559D01*
X020858Y019592D01*
X021048Y019782D01*
X021081Y019831D01*
X021093Y01989D01*
Y024227D01*
X022154Y025287D01*
X027677D01*
X027837Y025127D01*
Y02299D01*
X027849Y022931D01*
X027882Y022882D01*
X028082Y022682D01*
X028132Y022649D01*
X02819Y022637D01*
X028465D01*
Y022455D01*
X029415D01*
Y023305D01*
X028465D01*
Y022943D01*
X028254D01*
X028143Y023053D01*
Y02519D01*
X028131Y025249D01*
X028098Y025298D01*
X027848Y025548D01*
X027799Y025581D01*
X02774Y025593D01*
X02209D01*
X022032Y025581D01*
X021982Y025548D01*
X020832Y024398D01*
X020799Y024349D01*
X020787Y02429D01*
Y020255D01*
X020737Y02025D01*
X020729Y020293D01*
X020693Y020346D01*
Y024477D01*
X022004Y025787D01*
X029557D01*
X031663Y023682D01*
X031712Y023649D01*
X031771Y023637D01*
X031934D01*
X031987Y023602D01*
X032066Y023586D01*
X032144Y023602D01*
X03221Y023646D01*
X032254Y023712D01*
X032269Y02379D01*
X032254Y023868D01*
X03221Y023934D01*
X032144Y023978D01*
X032066Y023994D01*
X031987Y023978D01*
X031934Y023943D01*
X031834D01*
X030056Y025721D01*
X03007Y025769D01*
X030094Y025774D01*
X030173Y025827D01*
X030226Y025906D01*
X030235Y02595D01*
X03D01*
Y026D01*
X02995D01*
Y026235D01*
D02*
G37*
G36*
X03405D02*
Y02605D01*
X034235D01*
X034226Y026094D01*
X034173Y026173D01*
X034094Y026226D01*
X03405Y026235D01*
D02*
G37*
G36*
X03395D02*
X033906Y026226D01*
X033827Y026173D01*
X033774Y026094D01*
X033765Y02605D01*
X03395D01*
Y026235D01*
D02*
G37*
G36*
X03005D02*
Y02605D01*
X030235D01*
X030226Y026094D01*
X030173Y026173D01*
X030094Y026226D01*
X03005Y026235D01*
D02*
G37*
G36*
X02005D02*
Y02605D01*
X020235D01*
X020226Y026094D01*
X020173Y026173D01*
X020094Y026226D01*
X02005Y026235D01*
D02*
G37*
G36*
X01995D02*
X019906Y026226D01*
X019827Y026173D01*
X019774Y026094D01*
X019765Y02605D01*
X01995D01*
Y026235D01*
D02*
G37*
G36*
X01805D02*
Y02605D01*
X018235D01*
X018226Y026094D01*
X018173Y026173D01*
X018094Y026226D01*
X01805Y026235D01*
D02*
G37*
G36*
X01795D02*
X017906Y026226D01*
X017827Y026173D01*
X017774Y026094D01*
X017765Y02605D01*
X01795D01*
Y026235D01*
D02*
G37*
G36*
X007139Y026216D02*
Y02592D01*
X007436D01*
X00743Y025961D01*
X007395Y026046D01*
X007339Y026119D01*
X007266Y026175D01*
X007181Y026211D01*
X007139Y026216D01*
D02*
G37*
G36*
X007039D02*
X006998Y026211D01*
X006913Y026175D01*
X00684Y026119D01*
X006784Y026046D01*
X006748Y025961D01*
X006743Y02592D01*
X007039D01*
Y026216D01*
D02*
G37*
G36*
X005789D02*
Y02592D01*
X006086D01*
X00608Y025961D01*
X006045Y026046D01*
X005989Y026119D01*
X005916Y026175D01*
X005831Y026211D01*
X005789Y026216D01*
D02*
G37*
G36*
X005689D02*
X005648Y026211D01*
X005563Y026175D01*
X00549Y026119D01*
X005434Y026046D01*
X005398Y025961D01*
X005393Y02592D01*
X005689D01*
Y026216D01*
D02*
G37*
G36*
X004449D02*
Y02592D01*
X004745D01*
X00474Y025961D01*
X004705Y026046D01*
X004649Y026119D01*
X004576Y026175D01*
X00449Y026211D01*
X004449Y026216D01*
D02*
G37*
G36*
X004349D02*
X004308Y026211D01*
X004223Y026175D01*
X004149Y026119D01*
X004093Y026046D01*
X004058Y025961D01*
X004053Y02592D01*
X004349D01*
Y026216D01*
D02*
G37*
G36*
X034235Y02595D02*
X03405D01*
Y025765D01*
X034094Y025774D01*
X034173Y025827D01*
X034226Y025906D01*
X034235Y02595D01*
D02*
G37*
G36*
X03395D02*
X033765D01*
X033774Y025906D01*
X033827Y025827D01*
X033906Y025774D01*
X03395Y025765D01*
Y02595D01*
D02*
G37*
G36*
X020235D02*
X02005D01*
Y025765D01*
X020094Y025774D01*
X020173Y025827D01*
X020226Y025906D01*
X020235Y02595D01*
D02*
G37*
G36*
X01995D02*
X019765D01*
X019774Y025906D01*
X019827Y025827D01*
X019906Y025774D01*
X01995Y025765D01*
Y02595D01*
D02*
G37*
G36*
X018235D02*
X01805D01*
Y025765D01*
X018094Y025774D01*
X018173Y025827D01*
X018226Y025906D01*
X018235Y02595D01*
D02*
G37*
G36*
X01795D02*
X017765D01*
X017774Y025906D01*
X017827Y025827D01*
X017906Y025774D01*
X01795Y025765D01*
Y02595D01*
D02*
G37*
G36*
X007436Y02582D02*
X007139D01*
Y025523D01*
X007181Y025529D01*
X007266Y025564D01*
X007339Y02562D01*
X007395Y025693D01*
X00743Y025778D01*
X007436Y02582D01*
D02*
G37*
G36*
X007039D02*
X006743D01*
X006748Y025778D01*
X006784Y025693D01*
X00684Y02562D01*
X006913Y025564D01*
X006998Y025529D01*
X007039Y025523D01*
Y02582D01*
D02*
G37*
G36*
X006086D02*
X005789D01*
Y025523D01*
X005831Y025529D01*
X005916Y025564D01*
X005989Y02562D01*
X006045Y025693D01*
X00608Y025778D01*
X006086Y02582D01*
D02*
G37*
G36*
X005689D02*
X005393D01*
X005398Y025778D01*
X005434Y025693D01*
X00549Y02562D01*
X005563Y025564D01*
X005648Y025529D01*
X005689Y025523D01*
Y02582D01*
D02*
G37*
G36*
X004745D02*
X004449D01*
Y025523D01*
X00449Y025529D01*
X004576Y025564D01*
X004649Y02562D01*
X004705Y025693D01*
X00474Y025778D01*
X004745Y02582D01*
D02*
G37*
G36*
X004349D02*
X004053D01*
X004058Y025778D01*
X004093Y025693D01*
X004149Y02562D01*
X004223Y025564D01*
X004308Y025529D01*
X004349Y025523D01*
Y02582D01*
D02*
G37*
G36*
X006539Y025584D02*
Y025287D01*
X006836D01*
X00683Y025329D01*
X006795Y025414D01*
X006739Y025487D01*
X006666Y025543D01*
X006581Y025578D01*
X006539Y025584D01*
D02*
G37*
G36*
X006439D02*
X006398Y025578D01*
X006313Y025543D01*
X00624Y025487D01*
X006184Y025414D01*
X006148Y025329D01*
X006143Y025287D01*
X006439D01*
Y025584D01*
D02*
G37*
G36*
X005075D02*
Y025287D01*
X005371D01*
X005366Y025329D01*
X005331Y025414D01*
X005275Y025487D01*
X005202Y025543D01*
X005116Y025578D01*
X005075Y025584D01*
D02*
G37*
G36*
X004975D02*
X004934Y025578D01*
X004848Y025543D01*
X004775Y025487D01*
X004719Y025414D01*
X004684Y025329D01*
X004679Y025287D01*
X004975D01*
Y025584D01*
D02*
G37*
G36*
X006836Y025187D02*
X006539D01*
Y024891D01*
X006581Y024896D01*
X006666Y024932D01*
X006739Y024988D01*
X006795Y025061D01*
X00683Y025146D01*
X006836Y025187D01*
D02*
G37*
G36*
X006439D02*
X006143D01*
X006148Y025146D01*
X006184Y025061D01*
X00624Y024988D01*
X006313Y024932D01*
X006398Y024896D01*
X006439Y024891D01*
Y025187D01*
D02*
G37*
G36*
X005371D02*
X005075D01*
Y024891D01*
X005116Y024896D01*
X005202Y024932D01*
X005275Y024988D01*
X005331Y025061D01*
X005366Y025146D01*
X005371Y025187D01*
D02*
G37*
G36*
X004975D02*
X004679D01*
X004684Y025146D01*
X004719Y025061D01*
X004775Y024988D01*
X004848Y024932D01*
X004934Y024896D01*
X004975Y024891D01*
Y025187D01*
D02*
G37*
G36*
X007139Y024966D02*
Y02467D01*
X007436D01*
X00743Y024711D01*
X007395Y024796D01*
X007339Y024869D01*
X007266Y024925D01*
X007181Y024961D01*
X007139Y024966D01*
D02*
G37*
G36*
X007039D02*
X006998Y024961D01*
X006913Y024925D01*
X00684Y024869D01*
X006784Y024796D01*
X006748Y024711D01*
X006743Y02467D01*
X007039D01*
Y024966D01*
D02*
G37*
G36*
X005789D02*
Y02467D01*
X006086D01*
X00608Y024711D01*
X006045Y024796D01*
X005989Y024869D01*
X005916Y024925D01*
X005831Y024961D01*
X005789Y024966D01*
D02*
G37*
G36*
X005689D02*
X005648Y024961D01*
X005563Y024925D01*
X00549Y024869D01*
X005434Y024796D01*
X005398Y024711D01*
X005393Y02467D01*
X005689D01*
Y024966D01*
D02*
G37*
G36*
X004484D02*
Y02467D01*
X004781D01*
X004775Y024711D01*
X00474Y024796D01*
X004684Y024869D01*
X004611Y024925D01*
X004526Y024961D01*
X004484Y024966D01*
D02*
G37*
G36*
X004384D02*
X004343Y024961D01*
X004258Y024925D01*
X004185Y024869D01*
X004129Y024796D01*
X004093Y024711D01*
X004088Y02467D01*
X004384D01*
Y024966D01*
D02*
G37*
G36*
X007436Y02457D02*
X007139D01*
Y024273D01*
X007181Y024279D01*
X007266Y024314D01*
X007339Y02437D01*
X007395Y024443D01*
X00743Y024528D01*
X007436Y02457D01*
D02*
G37*
G36*
X007039D02*
X006743D01*
X006748Y024528D01*
X006784Y024443D01*
X00684Y02437D01*
X006913Y024314D01*
X006998Y024279D01*
X007039Y024273D01*
Y02457D01*
D02*
G37*
G36*
X006086D02*
X005789D01*
Y024273D01*
X005831Y024279D01*
X005916Y024314D01*
X005989Y02437D01*
X006045Y024443D01*
X00608Y024528D01*
X006086Y02457D01*
D02*
G37*
G36*
X005689D02*
X005393D01*
X005398Y024528D01*
X005434Y024443D01*
X00549Y02437D01*
X005563Y024314D01*
X005648Y024279D01*
X005689Y024273D01*
Y02457D01*
D02*
G37*
G36*
X004781D02*
X004484D01*
Y024273D01*
X004526Y024279D01*
X004611Y024314D01*
X004684Y02437D01*
X00474Y024443D01*
X004775Y024528D01*
X004781Y02457D01*
D02*
G37*
G36*
X004384D02*
X004088D01*
X004093Y024528D01*
X004129Y024443D01*
X004185Y02437D01*
X004258Y024314D01*
X004343Y024279D01*
X004384Y024273D01*
Y02457D01*
D02*
G37*
G36*
X02705Y024235D02*
Y02405D01*
X027235D01*
X027226Y024094D01*
X027173Y024173D01*
X027094Y024226D01*
X02705Y024235D01*
D02*
G37*
G36*
X02695D02*
X026906Y024226D01*
X026827Y024173D01*
X026774Y024094D01*
X026765Y02405D01*
X02695D01*
Y024235D01*
D02*
G37*
G36*
X02305D02*
Y02405D01*
X023235D01*
X023226Y024094D01*
X023173Y024173D01*
X023094Y024226D01*
X02305Y024235D01*
D02*
G37*
G36*
X02295D02*
X022906Y024226D01*
X022827Y024173D01*
X022774Y024094D01*
X022765Y02405D01*
X02295D01*
Y024235D01*
D02*
G37*
G36*
X01505D02*
Y02405D01*
X015235D01*
X015226Y024094D01*
X015173Y024173D01*
X015094Y024226D01*
X01505Y024235D01*
D02*
G37*
G36*
X01495D02*
X014906Y024226D01*
X014827Y024173D01*
X014774Y024094D01*
X014765Y02405D01*
X01495D01*
Y024235D01*
D02*
G37*
G36*
X01305D02*
Y02405D01*
X013235D01*
X013226Y024094D01*
X013173Y024173D01*
X013094Y024226D01*
X01305Y024235D01*
D02*
G37*
G36*
X01295D02*
X012906Y024226D01*
X012827Y024173D01*
X012774Y024094D01*
X012765Y02405D01*
X01295D01*
Y024235D01*
D02*
G37*
G36*
X01105D02*
Y02405D01*
X011235D01*
X011226Y024094D01*
X011173Y024173D01*
X011094Y024226D01*
X01105Y024235D01*
D02*
G37*
G36*
X01095D02*
X010906Y024226D01*
X010827Y024173D01*
X010774Y024094D01*
X010765Y02405D01*
X01095D01*
Y024235D01*
D02*
G37*
G36*
X027235Y02395D02*
X02705D01*
Y023765D01*
X027094Y023774D01*
X027173Y023827D01*
X027226Y023906D01*
X027235Y02395D01*
D02*
G37*
G36*
X02695D02*
X026765D01*
X026774Y023906D01*
X026827Y023827D01*
X026906Y023774D01*
X02695Y023765D01*
Y02395D01*
D02*
G37*
G36*
X023235D02*
X02305D01*
Y023765D01*
X023094Y023774D01*
X023173Y023827D01*
X023226Y023906D01*
X023235Y02395D01*
D02*
G37*
G36*
X02295D02*
X022765D01*
X022774Y023906D01*
X022827Y023827D01*
X022906Y023774D01*
X02295Y023765D01*
Y02395D01*
D02*
G37*
G36*
X015235D02*
X01505D01*
Y023765D01*
X015094Y023774D01*
X015173Y023827D01*
X015226Y023906D01*
X015235Y02395D01*
D02*
G37*
G36*
X01495D02*
X014765D01*
X014774Y023906D01*
X014827Y023827D01*
X014906Y023774D01*
X01495Y023765D01*
Y02395D01*
D02*
G37*
G36*
X013235D02*
X01305D01*
Y023765D01*
X013094Y023774D01*
X013173Y023827D01*
X013226Y023906D01*
X013235Y02395D01*
D02*
G37*
G36*
X01295D02*
X012765D01*
X012774Y023906D01*
X012827Y023827D01*
X012906Y023774D01*
X01295Y023765D01*
Y02395D01*
D02*
G37*
G36*
X011235D02*
X01105D01*
Y023765D01*
X011094Y023774D01*
X011173Y023827D01*
X011226Y023906D01*
X011235Y02395D01*
D02*
G37*
G36*
X01095D02*
X010765D01*
X010774Y023906D01*
X010827Y023827D01*
X010906Y023774D01*
X01095Y023765D01*
Y02395D01*
D02*
G37*
G36*
X025411Y024403D02*
X025211D01*
X025106Y02439D01*
X025009Y024349D01*
X024925Y024285D01*
X024861Y024202D01*
X024821Y024104D01*
X024807Y024D01*
X024821Y023896D01*
X024861Y023798D01*
X024925Y023715D01*
X025009Y023651D01*
X025106Y02361D01*
X025211Y023597D01*
X025411D01*
X025515Y02361D01*
X025612Y023651D01*
X025696Y023715D01*
X02576Y023798D01*
X0258Y023896D01*
X025814Y024D01*
X0258Y024104D01*
X02576Y024202D01*
X025696Y024285D01*
X025612Y024349D01*
X025515Y02439D01*
X025411Y024403D01*
D02*
G37*
G36*
X019411D02*
X019211D01*
X019106Y02439D01*
X019009Y024349D01*
X018925Y024285D01*
X018861Y024202D01*
X018821Y024104D01*
X018807Y024D01*
X018821Y023896D01*
X018861Y023798D01*
X018925Y023715D01*
X019009Y023651D01*
X019106Y02361D01*
X019211Y023597D01*
X019411D01*
X019515Y02361D01*
X019612Y023651D01*
X019696Y023715D01*
X01976Y023798D01*
X0198Y023896D01*
X019814Y024D01*
X0198Y024104D01*
X01976Y024202D01*
X019696Y024285D01*
X019612Y024349D01*
X019515Y02439D01*
X019411Y024403D01*
D02*
G37*
G36*
X035026Y024319D02*
X034926D01*
X034815Y024304D01*
X034711Y024261D01*
X034622Y024193D01*
X034554Y024104D01*
X034511Y024001D01*
X034497Y02389D01*
X034511Y023779D01*
X034554Y023676D01*
X034622Y023587D01*
X034711Y023519D01*
X034815Y023476D01*
X034926Y023461D01*
X035026D01*
X035136Y023476D01*
X03524Y023519D01*
X035329Y023587D01*
X035397Y023676D01*
X03544Y023779D01*
X035454Y02389D01*
X03544Y024001D01*
X035397Y024104D01*
X035329Y024193D01*
X03524Y024261D01*
X035136Y024304D01*
X035026Y024319D01*
D02*
G37*
G36*
X02899D02*
X02889D01*
X028779Y024304D01*
X028676Y024261D01*
X028587Y024193D01*
X028519Y024104D01*
X028476Y024001D01*
X028461Y02389D01*
X028476Y023779D01*
X028519Y023676D01*
X028587Y023587D01*
X028676Y023519D01*
X028779Y023476D01*
X02889Y023461D01*
X02899D01*
X029101Y023476D01*
X029204Y023519D01*
X029293Y023587D01*
X029361Y023676D01*
X029404Y023779D01*
X029419Y02389D01*
X029404Y024001D01*
X029361Y024104D01*
X029293Y024193D01*
X029204Y024261D01*
X029101Y024304D01*
X02899Y024319D01*
D02*
G37*
G36*
X019411Y023403D02*
X019211D01*
X019106Y02339D01*
X019009Y023349D01*
X018925Y023285D01*
X018861Y023202D01*
X018821Y023104D01*
X018807Y023D01*
X018821Y022896D01*
X018861Y022798D01*
X018925Y022715D01*
X019009Y022651D01*
X019106Y02261D01*
X019211Y022597D01*
X019411D01*
X019515Y02261D01*
X019612Y022651D01*
X019696Y022715D01*
X01976Y022798D01*
X0198Y022896D01*
X019814Y023D01*
X0198Y023104D01*
X01976Y023202D01*
X019696Y023285D01*
X019612Y023349D01*
X019515Y02339D01*
X019411Y023403D01*
D02*
G37*
G36*
X035451Y023305D02*
X034501D01*
Y022455D01*
X035451D01*
Y023305D01*
D02*
G37*
G36*
X03405Y022235D02*
Y02205D01*
X034235D01*
X034226Y022094D01*
X034173Y022173D01*
X034094Y022226D01*
X03405Y022235D01*
D02*
G37*
G36*
X03395D02*
X033906Y022226D01*
X033827Y022173D01*
X033774Y022094D01*
X033765Y02205D01*
X03395D01*
Y022235D01*
D02*
G37*
G36*
X03005D02*
Y02205D01*
X030235D01*
X030226Y022094D01*
X030173Y022173D01*
X030094Y022226D01*
X03005Y022235D01*
D02*
G37*
G36*
X02995D02*
X029906Y022226D01*
X029827Y022173D01*
X029774Y022094D01*
X029765Y02205D01*
X02995D01*
Y022235D01*
D02*
G37*
G36*
X02805D02*
Y02205D01*
X028235D01*
X028226Y022094D01*
X028173Y022173D01*
X028094Y022226D01*
X02805Y022235D01*
D02*
G37*
G36*
X02795D02*
X027906Y022226D01*
X027827Y022173D01*
X027774Y022094D01*
X027765Y02205D01*
X02795D01*
Y022235D01*
D02*
G37*
G36*
X02605D02*
Y02205D01*
X026235D01*
X026226Y022094D01*
X026173Y022173D01*
X026094Y022226D01*
X02605Y022235D01*
D02*
G37*
G36*
X02205D02*
Y02205D01*
X022235D01*
X022226Y022094D01*
X022173Y022173D01*
X022094Y022226D01*
X02205Y022235D01*
D02*
G37*
G36*
X02195D02*
X021906Y022226D01*
X021827Y022173D01*
X021774Y022094D01*
X021765Y02205D01*
X02195D01*
Y022235D01*
D02*
G37*
G36*
X01805D02*
Y02205D01*
X018235D01*
X018226Y022094D01*
X018173Y022173D01*
X018094Y022226D01*
X01805Y022235D01*
D02*
G37*
G36*
X01795D02*
X017906Y022226D01*
X017827Y022173D01*
X017774Y022094D01*
X017765Y02205D01*
X01795D01*
Y022235D01*
D02*
G37*
G36*
X01605D02*
Y02205D01*
X016235D01*
X016226Y022094D01*
X016173Y022173D01*
X016094Y022226D01*
X01605Y022235D01*
D02*
G37*
G36*
X01595D02*
X015906Y022226D01*
X015827Y022173D01*
X015774Y022094D01*
X015765Y02205D01*
X01595D01*
Y022235D01*
D02*
G37*
G36*
X01405D02*
Y02205D01*
X014235D01*
X014226Y022094D01*
X014173Y022173D01*
X014094Y022226D01*
X01405Y022235D01*
D02*
G37*
G36*
X01395D02*
X013906Y022226D01*
X013827Y022173D01*
X013774Y022094D01*
X013765Y02205D01*
X01395D01*
Y022235D01*
D02*
G37*
G36*
X00805D02*
Y02205D01*
X008235D01*
X008226Y022094D01*
X008173Y022173D01*
X008094Y022226D01*
X00805Y022235D01*
D02*
G37*
G36*
X00795D02*
X007906Y022226D01*
X007827Y022173D01*
X007774Y022094D01*
X007765Y02205D01*
X00795D01*
Y022235D01*
D02*
G37*
G36*
X00605D02*
Y02205D01*
X006235D01*
X006226Y022094D01*
X006173Y022173D01*
X006094Y022226D01*
X00605Y022235D01*
D02*
G37*
G36*
X00595D02*
X005906Y022226D01*
X005827Y022173D01*
X005774Y022094D01*
X005765Y02205D01*
X00595D01*
Y022235D01*
D02*
G37*
G36*
X00405D02*
Y02205D01*
X004235D01*
X004226Y022094D01*
X004173Y022173D01*
X004094Y022226D01*
X00405Y022235D01*
D02*
G37*
G36*
X00395D02*
X003906Y022226D01*
X003827Y022173D01*
X003774Y022094D01*
X003765Y02205D01*
X00395D01*
Y022235D01*
D02*
G37*
G36*
X032686Y022725D02*
X031586D01*
Y021875D01*
X032686D01*
Y022725D01*
D02*
G37*
G36*
X034235Y02195D02*
X03405D01*
Y021765D01*
X034094Y021774D01*
X034173Y021827D01*
X034226Y021906D01*
X034235Y02195D01*
D02*
G37*
G36*
X03395D02*
X033765D01*
X033774Y021906D01*
X033827Y021827D01*
X033906Y021774D01*
X03395Y021765D01*
Y02195D01*
D02*
G37*
G36*
X030235D02*
X03005D01*
Y021765D01*
X030094Y021774D01*
X030173Y021827D01*
X030226Y021906D01*
X030235Y02195D01*
D02*
G37*
G36*
X02995D02*
X029765D01*
X029774Y021906D01*
X029827Y021827D01*
X029906Y021774D01*
X02995Y021765D01*
Y02195D01*
D02*
G37*
G36*
X028235D02*
X02805D01*
Y021765D01*
X028094Y021774D01*
X028173Y021827D01*
X028226Y021906D01*
X028235Y02195D01*
D02*
G37*
G36*
X02795D02*
X027765D01*
X027774Y021906D01*
X027827Y021827D01*
X027906Y021774D01*
X02795Y021765D01*
Y02195D01*
D02*
G37*
G36*
X026235D02*
X02605D01*
Y021765D01*
X026094Y021774D01*
X026173Y021827D01*
X026226Y021906D01*
X026235Y02195D01*
D02*
G37*
G36*
X025411Y022403D02*
X025211D01*
X025106Y02239D01*
X025009Y022349D01*
X024925Y022285D01*
X024861Y022202D01*
X024821Y022104D01*
X024807Y022D01*
X024821Y021896D01*
X024861Y021798D01*
X024925Y021715D01*
X025009Y021651D01*
X025106Y02161D01*
X025211Y021597D01*
X025411D01*
X025515Y02161D01*
X025612Y021651D01*
X025696Y021715D01*
X02576Y021798D01*
X025773Y021829D01*
X025822Y021834D01*
X025827Y021827D01*
X025906Y021774D01*
X02595Y021765D01*
Y022D01*
Y022235D01*
X025906Y022226D01*
X025827Y022173D01*
X025822Y022166D01*
X025773Y022171D01*
X02576Y022202D01*
X025696Y022285D01*
X025612Y022349D01*
X025515Y02239D01*
X025411Y022403D01*
D02*
G37*
G36*
X022235Y02195D02*
X02205D01*
Y021765D01*
X022094Y021774D01*
X022173Y021827D01*
X022226Y021906D01*
X022235Y02195D01*
D02*
G37*
G36*
X02195D02*
X021765D01*
X021774Y021906D01*
X021827Y021827D01*
X021906Y021774D01*
X02195Y021765D01*
Y02195D01*
D02*
G37*
G36*
X018235D02*
X01805D01*
Y021765D01*
X018094Y021774D01*
X018173Y021827D01*
X018226Y021906D01*
X018235Y02195D01*
D02*
G37*
G36*
X01795D02*
X017765D01*
X017774Y021906D01*
X017827Y021827D01*
X017906Y021774D01*
X01795Y021765D01*
Y02195D01*
D02*
G37*
G36*
X016235D02*
X01605D01*
Y021765D01*
X016094Y021774D01*
X016173Y021827D01*
X016226Y021906D01*
X016235Y02195D01*
D02*
G37*
G36*
X01595D02*
X015765D01*
X015774Y021906D01*
X015827Y021827D01*
X015906Y021774D01*
X01595Y021765D01*
Y02195D01*
D02*
G37*
G36*
X014235D02*
X01405D01*
Y021765D01*
X014094Y021774D01*
X014173Y021827D01*
X014226Y021906D01*
X014235Y02195D01*
D02*
G37*
G36*
X01395D02*
X013765D01*
X013774Y021906D01*
X013827Y021827D01*
X013906Y021774D01*
X01395Y021765D01*
Y02195D01*
D02*
G37*
G36*
X008235D02*
X00805D01*
Y021765D01*
X008094Y021774D01*
X008173Y021827D01*
X008226Y021906D01*
X008235Y02195D01*
D02*
G37*
G36*
X00795D02*
X007765D01*
X007774Y021906D01*
X007827Y021827D01*
X007906Y021774D01*
X00795Y021765D01*
Y02195D01*
D02*
G37*
G36*
X006235D02*
X00605D01*
Y021765D01*
X006094Y021774D01*
X006173Y021827D01*
X006226Y021906D01*
X006235Y02195D01*
D02*
G37*
G36*
X00595D02*
X005765D01*
X005774Y021906D01*
X005827Y021827D01*
X005906Y021774D01*
X00595Y021765D01*
Y02195D01*
D02*
G37*
G36*
X004235D02*
X00405D01*
Y021765D01*
X004094Y021774D01*
X004173Y021827D01*
X004226Y021906D01*
X004235Y02195D01*
D02*
G37*
G36*
X00395D02*
X003765D01*
X003774Y021906D01*
X003827Y021827D01*
X003906Y021774D01*
X00395Y021765D01*
Y02195D01*
D02*
G37*
G36*
X019411Y022403D02*
X019211D01*
X019106Y02239D01*
X019009Y022349D01*
X018925Y022285D01*
X018861Y022202D01*
X018821Y022104D01*
X018807Y022D01*
X018821Y021896D01*
X018861Y021798D01*
X018925Y021715D01*
X019009Y021651D01*
X019106Y02161D01*
X019211Y021597D01*
X019411D01*
X019515Y02161D01*
X019612Y021651D01*
X019696Y021715D01*
X01976Y021798D01*
X0198Y021896D01*
X019814Y022D01*
X0198Y022104D01*
X01976Y022202D01*
X019696Y022285D01*
X019612Y022349D01*
X019515Y02239D01*
X019411Y022403D01*
D02*
G37*
G36*
X032261Y021729D02*
X032011D01*
X0319Y021714D01*
X031796Y021671D01*
X031707Y021603D01*
X031639Y021514D01*
X031596Y021411D01*
X031582Y0213D01*
X031596Y021189D01*
X031639Y021086D01*
X031707Y020997D01*
X031796Y020929D01*
X0319Y020886D01*
X032011Y020871D01*
X032261D01*
X032371Y020886D01*
X032475Y020929D01*
X032564Y020997D01*
X032632Y021086D01*
X032675Y021189D01*
X032689Y0213D01*
X032675Y021411D01*
X032632Y021514D01*
X032564Y021603D01*
X032475Y021671D01*
X032371Y021714D01*
X032261Y021729D01*
D02*
G37*
G36*
X025411Y021403D02*
X025211D01*
X025106Y02139D01*
X025009Y021349D01*
X024925Y021285D01*
X024861Y021202D01*
X024821Y021104D01*
X024807Y021D01*
X024821Y020896D01*
X024861Y020798D01*
X024925Y020715D01*
X025009Y020651D01*
X025106Y02061D01*
X025211Y020597D01*
X025411D01*
X025515Y02061D01*
X025612Y020651D01*
X025696Y020715D01*
X02576Y020798D01*
X0258Y020896D01*
X025814Y021D01*
X0258Y021104D01*
X02576Y021202D01*
X025696Y021285D01*
X025612Y021349D01*
X025515Y02139D01*
X025411Y021403D01*
D02*
G37*
G36*
X019411D02*
X019211D01*
X019106Y02139D01*
X019009Y021349D01*
X018925Y021285D01*
X018861Y021202D01*
X018821Y021104D01*
X018807Y021D01*
X018821Y020896D01*
X018861Y020798D01*
X018925Y020715D01*
X019009Y020651D01*
X019106Y02061D01*
X019211Y020597D01*
X019411D01*
X019515Y02061D01*
X019612Y020651D01*
X019696Y020715D01*
X01976Y020798D01*
X0198Y020896D01*
X019814Y021D01*
X0198Y021104D01*
X01976Y021202D01*
X019696Y021285D01*
X019612Y021349D01*
X019515Y02139D01*
X019411Y021403D01*
D02*
G37*
G36*
X03505Y020235D02*
Y02005D01*
X035235D01*
X035226Y020094D01*
X035173Y020173D01*
X035094Y020226D01*
X03505Y020235D01*
D02*
G37*
G36*
X03495D02*
X034906Y020226D01*
X034827Y020173D01*
X034774Y020094D01*
X034765Y02005D01*
X03495D01*
Y020235D01*
D02*
G37*
G36*
X03305D02*
Y02005D01*
X033235D01*
X033226Y020094D01*
X033173Y020173D01*
X033094Y020226D01*
X03305Y020235D01*
D02*
G37*
G36*
X03295D02*
X032906Y020226D01*
X032827Y020173D01*
X032774Y020094D01*
X032765Y02005D01*
X03295D01*
Y020235D01*
D02*
G37*
G36*
X03105D02*
Y02005D01*
X031235D01*
X031226Y020094D01*
X031173Y020173D01*
X031094Y020226D01*
X03105Y020235D01*
D02*
G37*
G36*
X03095D02*
X030906Y020226D01*
X030827Y020173D01*
X030774Y020094D01*
X030765Y02005D01*
X03095D01*
Y020235D01*
D02*
G37*
G36*
X02705D02*
Y02005D01*
X027235D01*
X027226Y020094D01*
X027173Y020173D01*
X027094Y020226D01*
X02705Y020235D01*
D02*
G37*
G36*
X02695D02*
X026906Y020226D01*
X026827Y020173D01*
X026774Y020094D01*
X026765Y02005D01*
X02695D01*
Y020235D01*
D02*
G37*
G36*
X02305D02*
Y02005D01*
X023235D01*
X023226Y020094D01*
X023173Y020173D01*
X023094Y020226D01*
X02305Y020235D01*
D02*
G37*
G36*
X02295D02*
X022906Y020226D01*
X022827Y020173D01*
X022774Y020094D01*
X022765Y02005D01*
X02295D01*
Y020235D01*
D02*
G37*
G36*
X01505D02*
Y02005D01*
X015235D01*
X015226Y020094D01*
X015173Y020173D01*
X015094Y020226D01*
X01505Y020235D01*
D02*
G37*
G36*
X01495D02*
X014906Y020226D01*
X014827Y020173D01*
X014774Y020094D01*
X014765Y02005D01*
X01495D01*
Y020235D01*
D02*
G37*
G36*
X01305D02*
Y02005D01*
X013235D01*
X013226Y020094D01*
X013173Y020173D01*
X013094Y020226D01*
X01305Y020235D01*
D02*
G37*
G36*
X01295D02*
X012906Y020226D01*
X012827Y020173D01*
X012774Y020094D01*
X012765Y02005D01*
X01295D01*
Y020235D01*
D02*
G37*
G36*
X00505D02*
Y02005D01*
X005235D01*
X005226Y020094D01*
X005173Y020173D01*
X005094Y020226D01*
X00505Y020235D01*
D02*
G37*
G36*
X00495D02*
X004906Y020226D01*
X004827Y020173D01*
X004774Y020094D01*
X004765Y02005D01*
X00495D01*
Y020235D01*
D02*
G37*
G36*
X032261Y020729D02*
X032011D01*
X0319Y020714D01*
X031796Y020671D01*
X031707Y020603D01*
X031639Y020514D01*
X031596Y020411D01*
X031582Y0203D01*
X031596Y020189D01*
X031639Y020086D01*
X031707Y019997D01*
X031796Y019929D01*
X0319Y019886D01*
X032011Y019871D01*
X032261D01*
X032371Y019886D01*
X032475Y019929D01*
X032564Y019997D01*
X032632Y020086D01*
X032675Y020189D01*
X032689Y0203D01*
X032675Y020411D01*
X032632Y020514D01*
X032564Y020603D01*
X032475Y020671D01*
X032371Y020714D01*
X032261Y020729D01*
D02*
G37*
G36*
X035235Y01995D02*
X03505D01*
Y019765D01*
X035094Y019774D01*
X035173Y019827D01*
X035226Y019906D01*
X035235Y01995D01*
D02*
G37*
G36*
X03495D02*
X034765D01*
X034774Y019906D01*
X034827Y019827D01*
X034906Y019774D01*
X03495Y019765D01*
Y01995D01*
D02*
G37*
G36*
X033235D02*
X03305D01*
Y019765D01*
X033094Y019774D01*
X033173Y019827D01*
X033226Y019906D01*
X033235Y01995D01*
D02*
G37*
G36*
X03295D02*
X032765D01*
X032774Y019906D01*
X032827Y019827D01*
X032906Y019774D01*
X03295Y019765D01*
Y01995D01*
D02*
G37*
G36*
X031235D02*
X03105D01*
Y019765D01*
X031094Y019774D01*
X031173Y019827D01*
X031226Y019906D01*
X031235Y01995D01*
D02*
G37*
G36*
X03095D02*
X030765D01*
X030774Y019906D01*
X030827Y019827D01*
X030906Y019774D01*
X03095Y019765D01*
Y01995D01*
D02*
G37*
G36*
X027235D02*
X02705D01*
Y019765D01*
X027094Y019774D01*
X027173Y019827D01*
X027226Y019906D01*
X027235Y01995D01*
D02*
G37*
G36*
X02695D02*
X026765D01*
X026774Y019906D01*
X026827Y019827D01*
X026906Y019774D01*
X02695Y019765D01*
Y01995D01*
D02*
G37*
G36*
X023235D02*
X02305D01*
Y019765D01*
X023094Y019774D01*
X023173Y019827D01*
X023226Y019906D01*
X023235Y01995D01*
D02*
G37*
G36*
X02295D02*
X022765D01*
X022774Y019906D01*
X022827Y019827D01*
X022906Y019774D01*
X02295Y019765D01*
Y01995D01*
D02*
G37*
G36*
X015235D02*
X01505D01*
Y019765D01*
X015094Y019774D01*
X015173Y019827D01*
X015226Y019906D01*
X015235Y01995D01*
D02*
G37*
G36*
X01495D02*
X014765D01*
X014774Y019906D01*
X014827Y019827D01*
X014906Y019774D01*
X01495Y019765D01*
Y01995D01*
D02*
G37*
G36*
X013235D02*
X01305D01*
Y019765D01*
X013094Y019774D01*
X013173Y019827D01*
X013226Y019906D01*
X013235Y01995D01*
D02*
G37*
G36*
X01295D02*
X012765D01*
X012774Y019906D01*
X012827Y019827D01*
X012906Y019774D01*
X01295Y019765D01*
Y01995D01*
D02*
G37*
G36*
X005235D02*
X00505D01*
Y019765D01*
X005094Y019774D01*
X005173Y019827D01*
X005226Y019906D01*
X005235Y01995D01*
D02*
G37*
G36*
X00495D02*
X004765D01*
X004774Y019906D01*
X004827Y019827D01*
X004906Y019774D01*
X00495Y019765D01*
Y01995D01*
D02*
G37*
G36*
X025411Y020403D02*
X025211D01*
X025106Y02039D01*
X025009Y020349D01*
X024925Y020285D01*
X024861Y020202D01*
X024821Y020104D01*
X024807Y02D01*
X024821Y019896D01*
X024861Y019798D01*
X024925Y019715D01*
X025009Y019651D01*
X025106Y01961D01*
X025211Y019597D01*
X025411D01*
X025515Y01961D01*
X025612Y019651D01*
X025696Y019715D01*
X02576Y019798D01*
X0258Y019896D01*
X025814Y02D01*
X0258Y020104D01*
X02576Y020202D01*
X025696Y020285D01*
X025612Y020349D01*
X025515Y02039D01*
X025411Y020403D01*
D02*
G37*
G36*
Y019403D02*
X025211D01*
X025106Y01939D01*
X025009Y019349D01*
X024925Y019285D01*
X024861Y019202D01*
X024821Y019104D01*
X024807Y019D01*
X024821Y018896D01*
X024861Y018798D01*
X024925Y018715D01*
X025009Y018651D01*
X025106Y01861D01*
X025211Y018597D01*
X025411D01*
X025515Y01861D01*
X025612Y018651D01*
X025696Y018715D01*
X02576Y018798D01*
X0258Y018896D01*
X025814Y019D01*
X0258Y019104D01*
X02576Y019202D01*
X025696Y019285D01*
X025612Y019349D01*
X025515Y01939D01*
X025411Y019403D01*
D02*
G37*
G36*
X019411D02*
X019211D01*
X019106Y01939D01*
X019009Y019349D01*
X018925Y019285D01*
X018861Y019202D01*
X018821Y019104D01*
X018807Y019D01*
X018821Y018896D01*
X018861Y018798D01*
X018925Y018715D01*
X019009Y018651D01*
X019106Y01861D01*
X019211Y018597D01*
X019411D01*
X019515Y01861D01*
X019612Y018651D01*
X019696Y018715D01*
X01976Y018798D01*
X0198Y018896D01*
X019814Y019D01*
X0198Y019104D01*
X01976Y019202D01*
X019696Y019285D01*
X019612Y019349D01*
X019515Y01939D01*
X019411Y019403D01*
D02*
G37*
G36*
X03405Y018235D02*
Y01805D01*
X034235D01*
X034226Y018094D01*
X034173Y018173D01*
X034094Y018226D01*
X03405Y018235D01*
D02*
G37*
G36*
X03395D02*
X033906Y018226D01*
X033827Y018173D01*
X033774Y018094D01*
X033765Y01805D01*
X03395D01*
Y018235D01*
D02*
G37*
G36*
X03005D02*
Y01805D01*
X030235D01*
X030226Y018094D01*
X030173Y018173D01*
X030094Y018226D01*
X03005Y018235D01*
D02*
G37*
G36*
X02995D02*
X029906Y018226D01*
X029827Y018173D01*
X029774Y018094D01*
X029765Y01805D01*
X02995D01*
Y018235D01*
D02*
G37*
G36*
X02405D02*
Y01805D01*
X024235D01*
X024226Y018094D01*
X024173Y018173D01*
X024094Y018226D01*
X02405Y018235D01*
D02*
G37*
G36*
X02395D02*
X023906Y018226D01*
X023827Y018173D01*
X023774Y018094D01*
X023765Y01805D01*
X02395D01*
Y018235D01*
D02*
G37*
G36*
X02205D02*
Y01805D01*
X022235D01*
X022226Y018094D01*
X022173Y018173D01*
X022094Y018226D01*
X02205Y018235D01*
D02*
G37*
G36*
X02195D02*
X021906Y018226D01*
X021827Y018173D01*
X021774Y018094D01*
X021765Y01805D01*
X02195D01*
Y018235D01*
D02*
G37*
G36*
X02005D02*
Y01805D01*
X020235D01*
X020226Y018094D01*
X020173Y018173D01*
X020094Y018226D01*
X02005Y018235D01*
D02*
G37*
G36*
X01805D02*
Y01805D01*
X018235D01*
X018226Y018094D01*
X018173Y018173D01*
X018094Y018226D01*
X01805Y018235D01*
D02*
G37*
G36*
X01795D02*
X017906Y018226D01*
X017827Y018173D01*
X017774Y018094D01*
X017765Y01805D01*
X01795D01*
Y018235D01*
D02*
G37*
G36*
X01405D02*
Y01805D01*
X014235D01*
X014226Y018094D01*
X014173Y018173D01*
X014094Y018226D01*
X01405Y018235D01*
D02*
G37*
G36*
X01395D02*
X013906Y018226D01*
X013827Y018173D01*
X013774Y018094D01*
X013765Y01805D01*
X01395D01*
Y018235D01*
D02*
G37*
G36*
X01205D02*
Y01805D01*
X012235D01*
X012226Y018094D01*
X012173Y018173D01*
X012094Y018226D01*
X01205Y018235D01*
D02*
G37*
G36*
X01195D02*
X011906Y018226D01*
X011827Y018173D01*
X011774Y018094D01*
X011765Y01805D01*
X01195D01*
Y018235D01*
D02*
G37*
G36*
X00805D02*
Y01805D01*
X008235D01*
X008226Y018094D01*
X008173Y018173D01*
X008094Y018226D01*
X00805Y018235D01*
D02*
G37*
G36*
X00795D02*
X007906Y018226D01*
X007827Y018173D01*
X007774Y018094D01*
X007765Y01805D01*
X00795D01*
Y018235D01*
D02*
G37*
G36*
X00605D02*
Y01805D01*
X006235D01*
X006226Y018094D01*
X006173Y018173D01*
X006094Y018226D01*
X00605Y018235D01*
D02*
G37*
G36*
X00595D02*
X005906Y018226D01*
X005827Y018173D01*
X005774Y018094D01*
X005765Y01805D01*
X00595D01*
Y018235D01*
D02*
G37*
G36*
X032261Y018729D02*
X032011D01*
X0319Y018714D01*
X031796Y018671D01*
X031707Y018603D01*
X031639Y018514D01*
X031596Y018411D01*
X031582Y0183D01*
X031596Y018189D01*
X031639Y018086D01*
X031707Y017997D01*
X031796Y017929D01*
X0319Y017886D01*
X032011Y017871D01*
X032261D01*
X032371Y017886D01*
X032475Y017929D01*
X032564Y017997D01*
X032632Y018086D01*
X032675Y018189D01*
X032689Y0183D01*
X032675Y018411D01*
X032632Y018514D01*
X032564Y018603D01*
X032475Y018671D01*
X032371Y018714D01*
X032261Y018729D01*
D02*
G37*
G36*
X012235Y01795D02*
X011765D01*
X011774Y017906D01*
X0118Y017867D01*
X011771Y01782D01*
X011706Y017829D01*
X011606D01*
X011495Y017814D01*
X011392Y017771D01*
X011303Y017703D01*
X011235Y017614D01*
X011192Y017511D01*
X011178Y0174D01*
X011192Y017289D01*
X011235Y017186D01*
X011303Y017097D01*
X011392Y017029D01*
X011495Y016986D01*
X011606Y016971D01*
X011706D01*
X011817Y016986D01*
X011921Y017029D01*
X012009Y017097D01*
X012078Y017186D01*
X01212Y017289D01*
X012135Y0174D01*
X01212Y017511D01*
X012078Y017614D01*
X012009Y017703D01*
X012004Y017707D01*
X012019Y017759D01*
X012094Y017774D01*
X012173Y017827D01*
X012226Y017906D01*
X012235Y01795D01*
D02*
G37*
G36*
X034235D02*
X03405D01*
Y017765D01*
X034094Y017774D01*
X034173Y017827D01*
X034226Y017906D01*
X034235Y01795D01*
D02*
G37*
G36*
X03395D02*
X033765D01*
X033774Y017906D01*
X033827Y017827D01*
X033906Y017774D01*
X03395Y017765D01*
Y01795D01*
D02*
G37*
G36*
X030235D02*
X03005D01*
Y017765D01*
X030094Y017774D01*
X030173Y017827D01*
X030226Y017906D01*
X030235Y01795D01*
D02*
G37*
G36*
X02995D02*
X029765D01*
X029774Y017906D01*
X029827Y017827D01*
X029906Y017774D01*
X02995Y017765D01*
Y01795D01*
D02*
G37*
G36*
X024235D02*
X02405D01*
Y017765D01*
X024094Y017774D01*
X024173Y017827D01*
X024226Y017906D01*
X024235Y01795D01*
D02*
G37*
G36*
X02395D02*
X023765D01*
X023774Y017906D01*
X023827Y017827D01*
X023906Y017774D01*
X02395Y017765D01*
Y01795D01*
D02*
G37*
G36*
X022235D02*
X02205D01*
Y017765D01*
X022094Y017774D01*
X022173Y017827D01*
X022226Y017906D01*
X022235Y01795D01*
D02*
G37*
G36*
X02195D02*
X021765D01*
X021774Y017906D01*
X021827Y017827D01*
X021906Y017774D01*
X02195Y017765D01*
Y01795D01*
D02*
G37*
G36*
X020235D02*
X02005D01*
Y017765D01*
X020094Y017774D01*
X020173Y017827D01*
X020226Y017906D01*
X020235Y01795D01*
D02*
G37*
G36*
X019411Y018403D02*
X019211D01*
X019106Y01839D01*
X019009Y018349D01*
X018925Y018285D01*
X018861Y018202D01*
X018821Y018104D01*
X018807Y018D01*
X018821Y017896D01*
X018861Y017798D01*
X018925Y017715D01*
X019009Y017651D01*
X019106Y01761D01*
X019211Y017597D01*
X019411D01*
X019515Y01761D01*
X019612Y017651D01*
X019696Y017715D01*
X01976Y017798D01*
X019773Y017829D01*
X019822Y017834D01*
X019827Y017827D01*
X019906Y017774D01*
X01995Y017765D01*
Y018D01*
Y018235D01*
X019906Y018226D01*
X019827Y018173D01*
X019822Y018166D01*
X019773Y018171D01*
X01976Y018202D01*
X019696Y018285D01*
X019612Y018349D01*
X019515Y01839D01*
X019411Y018403D01*
D02*
G37*
G36*
X018235Y01795D02*
X01805D01*
Y017765D01*
X018094Y017774D01*
X018173Y017827D01*
X018226Y017906D01*
X018235Y01795D01*
D02*
G37*
G36*
X01795D02*
X017765D01*
X017774Y017906D01*
X017827Y017827D01*
X017906Y017774D01*
X01795Y017765D01*
Y01795D01*
D02*
G37*
G36*
X014235D02*
X01405D01*
Y017765D01*
X014094Y017774D01*
X014173Y017827D01*
X014226Y017906D01*
X014235Y01795D01*
D02*
G37*
G36*
X01395D02*
X013765D01*
X013774Y017906D01*
X013827Y017827D01*
X013906Y017774D01*
X01395Y017765D01*
Y01795D01*
D02*
G37*
G36*
X008235D02*
X00805D01*
Y017765D01*
X008094Y017774D01*
X008173Y017827D01*
X008226Y017906D01*
X008235Y01795D01*
D02*
G37*
G36*
X00795D02*
X007765D01*
X007774Y017906D01*
X007827Y017827D01*
X007906Y017774D01*
X00795Y017765D01*
Y01795D01*
D02*
G37*
G36*
X006235D02*
X00605D01*
Y017765D01*
X006094Y017774D01*
X006173Y017827D01*
X006226Y017906D01*
X006235Y01795D01*
D02*
G37*
G36*
X00595D02*
X005765D01*
X005774Y017906D01*
X005827Y017827D01*
X005906Y017774D01*
X00595Y017765D01*
Y01795D01*
D02*
G37*
G36*
X025411Y018403D02*
X025211D01*
X025106Y01839D01*
X025009Y018349D01*
X024925Y018285D01*
X024861Y018202D01*
X024821Y018104D01*
X024807Y018D01*
X024821Y017896D01*
X024861Y017798D01*
X024925Y017715D01*
X025009Y017651D01*
X025106Y01761D01*
X025211Y017597D01*
X025411D01*
X025515Y01761D01*
X025612Y017651D01*
X025696Y017715D01*
X02576Y017798D01*
X0258Y017896D01*
X025814Y018D01*
X0258Y018104D01*
X02576Y018202D01*
X025696Y018285D01*
X025612Y018349D01*
X025515Y01839D01*
X025411Y018403D01*
D02*
G37*
G36*
Y017403D02*
X025211D01*
X025106Y01739D01*
X025009Y017349D01*
X024925Y017285D01*
X024861Y017202D01*
X024841Y017153D01*
X021992D01*
X021939Y017188D01*
X021861Y017204D01*
X021782Y017188D01*
X021716Y017144D01*
X021672Y017078D01*
X021657Y017D01*
X021672Y016922D01*
X021716Y016856D01*
X021782Y016812D01*
X021861Y016796D01*
X021939Y016812D01*
X021992Y016847D01*
X024841D01*
X024861Y016798D01*
X024925Y016715D01*
X025009Y016651D01*
X025106Y01661D01*
X025211Y016597D01*
X025411D01*
X025515Y01661D01*
X025612Y016651D01*
X025696Y016715D01*
X02576Y016798D01*
X0258Y016896D01*
X025814Y017D01*
X0258Y017104D01*
X02576Y017202D01*
X025696Y017285D01*
X025612Y017349D01*
X025515Y01739D01*
X025411Y017403D01*
D02*
G37*
G36*
X019411D02*
X019211D01*
X019106Y01739D01*
X019009Y017349D01*
X018925Y017285D01*
X018861Y017202D01*
X018821Y017104D01*
X018807Y017D01*
X018821Y016896D01*
X018861Y016798D01*
X018925Y016715D01*
X019009Y016651D01*
X019106Y01661D01*
X019211Y016597D01*
X019411D01*
X019515Y01661D01*
X019612Y016651D01*
X019696Y016715D01*
X01976Y016798D01*
X0198Y016896D01*
X019814Y017D01*
X0198Y017104D01*
X01976Y017202D01*
X019696Y017285D01*
X019612Y017349D01*
X019515Y01739D01*
X019411Y017403D01*
D02*
G37*
G36*
X018011Y021245D02*
X017917Y021226D01*
X017837Y021173D01*
X017784Y021094D01*
X017766Y021D01*
X017784Y020906D01*
X017837Y020827D01*
X017858Y020814D01*
Y020224D01*
X015262Y017628D01*
X015229Y017579D01*
X015218Y01752D01*
Y01619D01*
X015168Y016177D01*
X015094Y016226D01*
X01505Y016235D01*
Y016D01*
Y015765D01*
X015094Y015774D01*
X015168Y015823D01*
X015218Y01581D01*
Y01219D01*
X015168Y012177D01*
X015094Y012226D01*
X01505Y012235D01*
Y012D01*
Y011765D01*
X015094Y011774D01*
X015168Y011823D01*
X015218Y01181D01*
Y009886D01*
X015197Y009873D01*
X015144Y009794D01*
X015126Y0097D01*
X015144Y009606D01*
X015197Y009527D01*
X015277Y009474D01*
X015371Y009455D01*
X015464Y009474D01*
X015544Y009527D01*
X015597Y009606D01*
X015615Y0097D01*
X015597Y009794D01*
X015544Y009873D01*
X015523Y009886D01*
Y017457D01*
X018119Y020052D01*
X018152Y020102D01*
X018163Y02016D01*
Y020814D01*
X018184Y020827D01*
X018237Y020906D01*
X018255Y021D01*
X018237Y021094D01*
X018184Y021173D01*
X018104Y021226D01*
X018011Y021245D01*
D02*
G37*
G36*
X03105Y016235D02*
Y01605D01*
X031235D01*
X031226Y016094D01*
X031173Y016173D01*
X031094Y016226D01*
X03105Y016235D01*
D02*
G37*
G36*
X03095D02*
X030906Y016226D01*
X030827Y016173D01*
X030774Y016094D01*
X030765Y01605D01*
X03095D01*
Y016235D01*
D02*
G37*
G36*
X02905D02*
Y01605D01*
X029235D01*
X029226Y016094D01*
X029173Y016173D01*
X029094Y016226D01*
X02905Y016235D01*
D02*
G37*
G36*
X02895D02*
X028906Y016226D01*
X028827Y016173D01*
X028774Y016094D01*
X028765Y01605D01*
X02895D01*
Y016235D01*
D02*
G37*
G36*
X02705D02*
Y01605D01*
X027235D01*
X027226Y016094D01*
X027173Y016173D01*
X027094Y016226D01*
X02705Y016235D01*
D02*
G37*
G36*
X02695D02*
X026906Y016226D01*
X026827Y016173D01*
X026774Y016094D01*
X026765Y01605D01*
X02695D01*
Y016235D01*
D02*
G37*
G36*
X01495D02*
X014906Y016226D01*
X014827Y016173D01*
X014774Y016094D01*
X014765Y01605D01*
X01495D01*
Y016235D01*
D02*
G37*
G36*
X01305D02*
Y01605D01*
X013235D01*
X013226Y016094D01*
X013173Y016173D01*
X013094Y016226D01*
X01305Y016235D01*
D02*
G37*
G36*
X01295D02*
X012906Y016226D01*
X012827Y016173D01*
X012774Y016094D01*
X012765Y01605D01*
X01295D01*
Y016235D01*
D02*
G37*
G36*
X01105D02*
Y01605D01*
X011235D01*
X011226Y016094D01*
X011173Y016173D01*
X011094Y016226D01*
X01105Y016235D01*
D02*
G37*
G36*
X01095D02*
X010906Y016226D01*
X010827Y016173D01*
X010774Y016094D01*
X010765Y01605D01*
X01095D01*
Y016235D01*
D02*
G37*
G36*
X00905D02*
Y01605D01*
X009235D01*
X009226Y016094D01*
X009173Y016173D01*
X009094Y016226D01*
X00905Y016235D01*
D02*
G37*
G36*
X00895D02*
X008906Y016226D01*
X008827Y016173D01*
X008774Y016094D01*
X008765Y01605D01*
X00895D01*
Y016235D01*
D02*
G37*
G36*
X00705D02*
Y01605D01*
X007235D01*
X007226Y016094D01*
X007173Y016173D01*
X007094Y016226D01*
X00705Y016235D01*
D02*
G37*
G36*
X00695D02*
X006906Y016226D01*
X006827Y016173D01*
X006774Y016094D01*
X006765Y01605D01*
X00695D01*
Y016235D01*
D02*
G37*
G36*
X00505D02*
Y01605D01*
X005235D01*
X005226Y016094D01*
X005173Y016173D01*
X005094Y016226D01*
X00505Y016235D01*
D02*
G37*
G36*
X00495D02*
X004906Y016226D01*
X004827Y016173D01*
X004774Y016094D01*
X004765Y01605D01*
X00495D01*
Y016235D01*
D02*
G37*
G36*
X011706Y016819D02*
X011606D01*
X011495Y016804D01*
X011392Y016761D01*
X011303Y016693D01*
X011235Y016604D01*
X011192Y016501D01*
X011178Y01639D01*
X011192Y016279D01*
X011235Y016176D01*
X011303Y016087D01*
X011392Y016019D01*
X011495Y015976D01*
X011606Y015961D01*
X011706D01*
X011817Y015976D01*
X011921Y016019D01*
X012009Y016087D01*
X012078Y016176D01*
X01212Y016279D01*
X012135Y01639D01*
X01212Y016501D01*
X012078Y016604D01*
X012009Y016693D01*
X011921Y016761D01*
X011817Y016804D01*
X011706Y016819D01*
D02*
G37*
G36*
X031235Y01595D02*
X03105D01*
Y015765D01*
X031094Y015774D01*
X031173Y015827D01*
X031226Y015906D01*
X031235Y01595D01*
D02*
G37*
G36*
X03095D02*
X030765D01*
X030774Y015906D01*
X030827Y015827D01*
X030906Y015774D01*
X03095Y015765D01*
Y01595D01*
D02*
G37*
G36*
X029235D02*
X02905D01*
Y015765D01*
X029094Y015774D01*
X029173Y015827D01*
X029226Y015906D01*
X029235Y01595D01*
D02*
G37*
G36*
X02895D02*
X028765D01*
X028774Y015906D01*
X028827Y015827D01*
X028906Y015774D01*
X02895Y015765D01*
Y01595D01*
D02*
G37*
G36*
X027235D02*
X02705D01*
Y015765D01*
X027094Y015774D01*
X027173Y015827D01*
X027226Y015906D01*
X027235Y01595D01*
D02*
G37*
G36*
X02695D02*
X026765D01*
X026774Y015906D01*
X026827Y015827D01*
X026906Y015774D01*
X02695Y015765D01*
Y01595D01*
D02*
G37*
G36*
X01495D02*
X014765D01*
X014774Y015906D01*
X014827Y015827D01*
X014906Y015774D01*
X01495Y015765D01*
Y01595D01*
D02*
G37*
G36*
X013235D02*
X01305D01*
Y015765D01*
X013094Y015774D01*
X013173Y015827D01*
X013226Y015906D01*
X013235Y01595D01*
D02*
G37*
G36*
X01295D02*
X012765D01*
X012774Y015906D01*
X012827Y015827D01*
X012906Y015774D01*
X01295Y015765D01*
Y01595D01*
D02*
G37*
G36*
X011235D02*
X01105D01*
Y015765D01*
X011094Y015774D01*
X011173Y015827D01*
X011226Y015906D01*
X011235Y01595D01*
D02*
G37*
G36*
X01095D02*
X010765D01*
X010774Y015906D01*
X010827Y015827D01*
X010906Y015774D01*
X01095Y015765D01*
Y01595D01*
D02*
G37*
G36*
X009235D02*
X00905D01*
Y015765D01*
X009094Y015774D01*
X009173Y015827D01*
X009226Y015906D01*
X009235Y01595D01*
D02*
G37*
G36*
X00895D02*
X008765D01*
X008774Y015906D01*
X008827Y015827D01*
X008906Y015774D01*
X00895Y015765D01*
Y01595D01*
D02*
G37*
G36*
X007235D02*
X00705D01*
Y015765D01*
X007094Y015774D01*
X007173Y015827D01*
X007226Y015906D01*
X007235Y01595D01*
D02*
G37*
G36*
X00695D02*
X006765D01*
X006774Y015906D01*
X006827Y015827D01*
X006906Y015774D01*
X00695Y015765D01*
Y01595D01*
D02*
G37*
G36*
X005235D02*
X00505D01*
Y015765D01*
X005094Y015774D01*
X005173Y015827D01*
X005226Y015906D01*
X005235Y01595D01*
D02*
G37*
G36*
X00495D02*
X004765D01*
X004774Y015906D01*
X004827Y015827D01*
X004906Y015774D01*
X00495Y015765D01*
Y01595D01*
D02*
G37*
G36*
X025411Y016403D02*
X025211D01*
X025106Y01639D01*
X025009Y016349D01*
X024925Y016285D01*
X024861Y016202D01*
X024821Y016104D01*
X024807Y016D01*
X024821Y015896D01*
X024861Y015798D01*
X024925Y015715D01*
X025009Y015651D01*
X025106Y01561D01*
X025211Y015597D01*
X025411D01*
X025515Y01561D01*
X025612Y015651D01*
X025696Y015715D01*
X02576Y015798D01*
X0258Y015896D01*
X025814Y016D01*
X0258Y016104D01*
X02576Y016202D01*
X025696Y016285D01*
X025612Y016349D01*
X025515Y01639D01*
X025411Y016403D01*
D02*
G37*
G36*
X019411D02*
X019211D01*
X019106Y01639D01*
X019009Y016349D01*
X018925Y016285D01*
X018861Y016202D01*
X018821Y016104D01*
X018807Y016D01*
X018821Y015896D01*
X018861Y015798D01*
X018925Y015715D01*
X019009Y015651D01*
X019106Y01561D01*
X019211Y015597D01*
X019411D01*
X019515Y01561D01*
X019612Y015651D01*
X019696Y015715D01*
X01976Y015798D01*
X0198Y015896D01*
X019814Y016D01*
X0198Y016104D01*
X01976Y016202D01*
X019696Y016285D01*
X019612Y016349D01*
X019515Y01639D01*
X019411Y016403D01*
D02*
G37*
G36*
X033066Y016698D02*
X032961Y016685D01*
X032864Y016644D01*
X03278Y01658D01*
X032716Y016497D01*
X032676Y016399D01*
X032662Y016295D01*
Y016035D01*
X032676Y015931D01*
X032716Y015833D01*
X03278Y01575D01*
X032858Y01569D01*
X032863Y015638D01*
X032854Y015634D01*
X03277Y01557D01*
X032706Y015487D01*
X032666Y015389D01*
X032652Y015285D01*
Y015025D01*
X032666Y014921D01*
X032706Y014823D01*
X03277Y01474D01*
X032854Y014676D01*
X032951Y014635D01*
X033056Y014622D01*
X03316Y014635D01*
X033257Y014676D01*
X033341Y01474D01*
X033405Y014823D01*
X033445Y014921D01*
X033459Y015025D01*
Y015285D01*
X033445Y015389D01*
X033405Y015487D01*
X033341Y01557D01*
X033263Y01563D01*
X033258Y015682D01*
X033267Y015686D01*
X033351Y01575D01*
X033415Y015833D01*
X033455Y015931D01*
X033469Y016035D01*
Y016295D01*
X033455Y016399D01*
X033415Y016497D01*
X033351Y01658D01*
X033267Y016644D01*
X03317Y016685D01*
X033066Y016698D01*
D02*
G37*
G36*
X032066D02*
X031961Y016685D01*
X031864Y016644D01*
X03178Y01658D01*
X031716Y016497D01*
X031676Y016399D01*
X031662Y016295D01*
Y016035D01*
X031676Y015931D01*
X031696Y015882D01*
X028802Y012988D01*
X028769Y012939D01*
X028758Y01288D01*
Y010456D01*
X028722Y010403D01*
X028707Y010325D01*
X028722Y010247D01*
X028766Y010181D01*
X028832Y010137D01*
X028911Y010121D01*
X028989Y010137D01*
X029055Y010181D01*
X029099Y010247D01*
X029114Y010325D01*
X029099Y010403D01*
X029063Y010456D01*
Y012817D01*
X031612Y015365D01*
X03166Y015342D01*
X031652Y015285D01*
Y015025D01*
X031666Y014921D01*
X031686Y014872D01*
X029352Y012538D01*
X029319Y012489D01*
X029308Y01243D01*
Y010456D01*
X029272Y010403D01*
X029257Y010325D01*
X029272Y010247D01*
X029316Y010181D01*
X029382Y010137D01*
X029461Y010121D01*
X029539Y010137D01*
X029605Y010181D01*
X029649Y010247D01*
X029664Y010325D01*
X029649Y010403D01*
X029613Y010456D01*
Y012367D01*
X031902Y014655D01*
X031951Y014635D01*
X032056Y014622D01*
X03216Y014635D01*
X032257Y014676D01*
X032341Y01474D01*
X032405Y014823D01*
X032445Y014921D01*
X032459Y015025D01*
Y015285D01*
X032445Y015389D01*
X032405Y015487D01*
X032341Y01557D01*
X032263Y01563D01*
X032258Y015682D01*
X032267Y015686D01*
X032351Y01575D01*
X032415Y015833D01*
X032455Y015931D01*
X032469Y016035D01*
Y016295D01*
X032455Y016399D01*
X032415Y016497D01*
X032351Y01658D01*
X032267Y016644D01*
X03217Y016685D01*
X032066Y016698D01*
D02*
G37*
G36*
X035056Y015668D02*
X034951Y015655D01*
X034854Y015614D01*
X03477Y01555D01*
X034706Y015467D01*
X034666Y015369D01*
X034652Y015265D01*
Y015005D01*
X034666Y014901D01*
X034706Y014803D01*
X03477Y01472D01*
X034854Y014656D01*
X034951Y014615D01*
X035056Y014602D01*
X03516Y014615D01*
X035257Y014656D01*
X035341Y01472D01*
X035405Y014803D01*
X035445Y014901D01*
X035459Y015005D01*
Y015265D01*
X035445Y015369D01*
X035405Y015467D01*
X035341Y01555D01*
X035257Y015614D01*
X03516Y015655D01*
X035056Y015668D01*
D02*
G37*
G36*
X025411Y015403D02*
X025211D01*
X025106Y01539D01*
X025009Y015349D01*
X024925Y015285D01*
X024861Y015202D01*
X024821Y015104D01*
X024807Y015D01*
X024821Y014896D01*
X024861Y014798D01*
X024925Y014715D01*
X025009Y014651D01*
X025106Y01461D01*
X025211Y014597D01*
X025411D01*
X025515Y01461D01*
X025612Y014651D01*
X025696Y014715D01*
X02576Y014798D01*
X0258Y014896D01*
X025814Y015D01*
X0258Y015104D01*
X02576Y015202D01*
X025696Y015285D01*
X025612Y015349D01*
X025515Y01539D01*
X025411Y015403D01*
D02*
G37*
G36*
X019411D02*
X019211D01*
X019106Y01539D01*
X019009Y015349D01*
X018925Y015285D01*
X018861Y015202D01*
X018821Y015104D01*
X018807Y015D01*
X018821Y014896D01*
X018861Y014798D01*
X018925Y014715D01*
X019009Y014651D01*
X019106Y01461D01*
X019211Y014597D01*
X019411D01*
X019515Y01461D01*
X019612Y014651D01*
X019696Y014715D01*
X01976Y014798D01*
X0198Y014896D01*
X019814Y015D01*
X0198Y015104D01*
X01976Y015202D01*
X019696Y015285D01*
X019612Y015349D01*
X019515Y01539D01*
X019411Y015403D01*
D02*
G37*
G36*
X03205Y014235D02*
Y01405D01*
X032235D01*
X032226Y014094D01*
X032173Y014173D01*
X032094Y014226D01*
X03205Y014235D01*
D02*
G37*
G36*
X03195D02*
X031906Y014226D01*
X031827Y014173D01*
X031774Y014094D01*
X031765Y01405D01*
X03195D01*
Y014235D01*
D02*
G37*
G36*
X02805D02*
Y01405D01*
X028235D01*
X028226Y014094D01*
X028173Y014173D01*
X028094Y014226D01*
X02805Y014235D01*
D02*
G37*
G36*
X02795D02*
X027906Y014226D01*
X027827Y014173D01*
X027774Y014094D01*
X027765Y01405D01*
X02795D01*
Y014235D01*
D02*
G37*
G36*
X02605D02*
Y01405D01*
X026235D01*
X026226Y014094D01*
X026173Y014173D01*
X026094Y014226D01*
X02605Y014235D01*
D02*
G37*
G36*
X02405D02*
Y01405D01*
X024235D01*
X024226Y014094D01*
X024173Y014173D01*
X024094Y014226D01*
X02405Y014235D01*
D02*
G37*
G36*
X02395D02*
X023906Y014226D01*
X023827Y014173D01*
X023774Y014094D01*
X023765Y01405D01*
X02395D01*
Y014235D01*
D02*
G37*
G36*
X02205D02*
Y01405D01*
X022235D01*
X022226Y014094D01*
X022173Y014173D01*
X022094Y014226D01*
X02205Y014235D01*
D02*
G37*
G36*
X02195D02*
X021906Y014226D01*
X021827Y014173D01*
X021774Y014094D01*
X021765Y01405D01*
X02195D01*
Y014235D01*
D02*
G37*
G36*
X02005D02*
Y01405D01*
X020235D01*
X020226Y014094D01*
X020173Y014173D01*
X020094Y014226D01*
X02005Y014235D01*
D02*
G37*
G36*
X01005D02*
Y01405D01*
X010235D01*
X010226Y014094D01*
X010173Y014173D01*
X010094Y014226D01*
X01005Y014235D01*
D02*
G37*
G36*
X00995D02*
X009906Y014226D01*
X009827Y014173D01*
X009774Y014094D01*
X009765Y01405D01*
X00995D01*
Y014235D01*
D02*
G37*
G36*
X00805D02*
Y01405D01*
X008235D01*
X008226Y014094D01*
X008173Y014173D01*
X008094Y014226D01*
X00805Y014235D01*
D02*
G37*
G36*
X00795D02*
X007906Y014226D01*
X007827Y014173D01*
X007774Y014094D01*
X007765Y01405D01*
X00795D01*
Y014235D01*
D02*
G37*
G36*
X00605D02*
Y01405D01*
X006235D01*
X006226Y014094D01*
X006173Y014173D01*
X006094Y014226D01*
X00605Y014235D01*
D02*
G37*
G36*
X00595D02*
X005906Y014226D01*
X005827Y014173D01*
X005774Y014094D01*
X005765Y01405D01*
X00595D01*
Y014235D01*
D02*
G37*
G36*
X00405D02*
Y01405D01*
X004235D01*
X004226Y014094D01*
X004173Y014173D01*
X004094Y014226D01*
X00405Y014235D01*
D02*
G37*
G36*
X00395D02*
X003906Y014226D01*
X003827Y014173D01*
X003774Y014094D01*
X003765Y01405D01*
X00395D01*
Y014235D01*
D02*
G37*
G36*
X011706Y014829D02*
X011606D01*
X011495Y014814D01*
X011392Y014771D01*
X011303Y014703D01*
X011235Y014614D01*
X011192Y014511D01*
X011178Y0144D01*
X011192Y014289D01*
X011235Y014186D01*
X011303Y014097D01*
X011392Y014029D01*
X011495Y013986D01*
X011606Y013971D01*
X011706D01*
X011817Y013986D01*
X011921Y014029D01*
X012009Y014097D01*
X012078Y014186D01*
X01212Y014289D01*
X012135Y0144D01*
X01212Y014511D01*
X012078Y014614D01*
X012009Y014703D01*
X011921Y014771D01*
X011817Y014814D01*
X011706Y014829D01*
D02*
G37*
G36*
X032235Y01395D02*
X03205D01*
Y013765D01*
X032094Y013774D01*
X032173Y013827D01*
X032226Y013906D01*
X032235Y01395D01*
D02*
G37*
G36*
X03195D02*
X031765D01*
X031774Y013906D01*
X031827Y013827D01*
X031906Y013774D01*
X03195Y013765D01*
Y01395D01*
D02*
G37*
G36*
X028235D02*
X02805D01*
Y013765D01*
X028094Y013774D01*
X028173Y013827D01*
X028226Y013906D01*
X028235Y01395D01*
D02*
G37*
G36*
X02795D02*
X027765D01*
X027774Y013906D01*
X027827Y013827D01*
X027906Y013774D01*
X02795Y013765D01*
Y01395D01*
D02*
G37*
G36*
X026235D02*
X02605D01*
Y013765D01*
X026094Y013774D01*
X026173Y013827D01*
X026226Y013906D01*
X026235Y01395D01*
D02*
G37*
G36*
X025411Y014403D02*
X025211D01*
X025106Y01439D01*
X025009Y014349D01*
X024925Y014285D01*
X024861Y014202D01*
X024821Y014104D01*
X024807Y014D01*
X024821Y013896D01*
X024861Y013798D01*
X024925Y013715D01*
X025009Y013651D01*
X025106Y01361D01*
X025211Y013597D01*
X025411D01*
X025515Y01361D01*
X025612Y013651D01*
X025696Y013715D01*
X02576Y013798D01*
X025773Y013829D01*
X025822Y013834D01*
X025827Y013827D01*
X025906Y013774D01*
X02595Y013765D01*
Y014D01*
Y014235D01*
X025906Y014226D01*
X025827Y014173D01*
X025822Y014166D01*
X025773Y014171D01*
X02576Y014202D01*
X025696Y014285D01*
X025612Y014349D01*
X025515Y01439D01*
X025411Y014403D01*
D02*
G37*
G36*
X024235Y01395D02*
X02405D01*
Y013765D01*
X024094Y013774D01*
X024173Y013827D01*
X024226Y013906D01*
X024235Y01395D01*
D02*
G37*
G36*
X02395D02*
X023765D01*
X023774Y013906D01*
X023827Y013827D01*
X023906Y013774D01*
X02395Y013765D01*
Y01395D01*
D02*
G37*
G36*
X022235D02*
X02205D01*
Y013765D01*
X022094Y013774D01*
X022173Y013827D01*
X022226Y013906D01*
X022235Y01395D01*
D02*
G37*
G36*
X02195D02*
X021765D01*
X021774Y013906D01*
X021827Y013827D01*
X021906Y013774D01*
X02195Y013765D01*
Y01395D01*
D02*
G37*
G36*
X020235D02*
X02005D01*
Y013765D01*
X020094Y013774D01*
X020173Y013827D01*
X020226Y013906D01*
X020235Y01395D01*
D02*
G37*
G36*
X019411Y014403D02*
X019211D01*
X019106Y01439D01*
X019009Y014349D01*
X018925Y014285D01*
X018861Y014202D01*
X018821Y014104D01*
X018807Y014D01*
X018821Y013896D01*
X018861Y013798D01*
X018925Y013715D01*
X019009Y013651D01*
X019106Y01361D01*
X019211Y013597D01*
X019411D01*
X019515Y01361D01*
X019612Y013651D01*
X019696Y013715D01*
X01976Y013798D01*
X019773Y013829D01*
X019822Y013834D01*
X019827Y013827D01*
X019906Y013774D01*
X01995Y013765D01*
Y014D01*
Y014235D01*
X019906Y014226D01*
X019827Y014173D01*
X019822Y014166D01*
X019773Y014171D01*
X01976Y014202D01*
X019696Y014285D01*
X019612Y014349D01*
X019515Y01439D01*
X019411Y014403D01*
D02*
G37*
G36*
X010235Y01395D02*
X01005D01*
Y013765D01*
X010094Y013774D01*
X010173Y013827D01*
X010226Y013906D01*
X010235Y01395D01*
D02*
G37*
G36*
X00995D02*
X009765D01*
X009774Y013906D01*
X009827Y013827D01*
X009906Y013774D01*
X00995Y013765D01*
Y01395D01*
D02*
G37*
G36*
X008235D02*
X00805D01*
Y013765D01*
X008094Y013774D01*
X008173Y013827D01*
X008226Y013906D01*
X008235Y01395D01*
D02*
G37*
G36*
X00795D02*
X007765D01*
X007774Y013906D01*
X007827Y013827D01*
X007906Y013774D01*
X00795Y013765D01*
Y01395D01*
D02*
G37*
G36*
X006235D02*
X00605D01*
Y013765D01*
X006094Y013774D01*
X006173Y013827D01*
X006226Y013906D01*
X006235Y01395D01*
D02*
G37*
G36*
X00595D02*
X005765D01*
X005774Y013906D01*
X005827Y013827D01*
X005906Y013774D01*
X00595Y013765D01*
Y01395D01*
D02*
G37*
G36*
X004235D02*
X00405D01*
Y013765D01*
X004094Y013774D01*
X004173Y013827D01*
X004226Y013906D01*
X004235Y01395D01*
D02*
G37*
G36*
X00395D02*
X003765D01*
X003774Y013906D01*
X003827Y013827D01*
X003906Y013774D01*
X00395Y013765D01*
Y01395D01*
D02*
G37*
G36*
X025411Y013403D02*
X025211D01*
X025106Y01339D01*
X025009Y013349D01*
X024925Y013285D01*
X024861Y013202D01*
X024821Y013104D01*
X024807Y013D01*
X024821Y012896D01*
X024861Y012798D01*
X024925Y012715D01*
X025009Y012651D01*
X025106Y01261D01*
X025211Y012597D01*
X025411D01*
X025515Y01261D01*
X025612Y012651D01*
X025696Y012715D01*
X02576Y012798D01*
X0258Y012896D01*
X025814Y013D01*
X0258Y013104D01*
X02576Y013202D01*
X025696Y013285D01*
X025612Y013349D01*
X025515Y01339D01*
X025411Y013403D01*
D02*
G37*
G36*
X019411D02*
X019211D01*
X019106Y01339D01*
X019009Y013349D01*
X018925Y013285D01*
X018861Y013202D01*
X018821Y013104D01*
X018807Y013D01*
X018821Y012896D01*
X018861Y012798D01*
X018925Y012715D01*
X019009Y012651D01*
X019106Y01261D01*
X019211Y012597D01*
X019411D01*
X019515Y01261D01*
X019612Y012651D01*
X019696Y012715D01*
X01976Y012798D01*
X0198Y012896D01*
X019814Y013D01*
X0198Y013104D01*
X01976Y013202D01*
X019696Y013285D01*
X019612Y013349D01*
X019515Y01339D01*
X019411Y013403D01*
D02*
G37*
G36*
X025411Y012403D02*
X025211D01*
X025106Y01239D01*
X025009Y012349D01*
X024925Y012285D01*
X024861Y012202D01*
X024828Y012122D01*
X02203D01*
X022005Y012138D01*
X021927Y012154D01*
X021849Y012138D01*
X021783Y012094D01*
X021739Y012028D01*
X021723Y01195D01*
X021739Y011872D01*
X021783Y011806D01*
X021849Y011762D01*
X021927Y011746D01*
X022005Y011762D01*
X022071Y011806D01*
X022078Y011816D01*
X024854D01*
X024861Y011798D01*
X024925Y011715D01*
X025009Y011651D01*
X025106Y01161D01*
X025211Y011597D01*
X025411D01*
X025515Y01161D01*
X025612Y011651D01*
X025696Y011715D01*
X02576Y011798D01*
X0258Y011896D01*
X025814Y012D01*
X0258Y012104D01*
X02576Y012202D01*
X025696Y012285D01*
X025612Y012349D01*
X025515Y01239D01*
X025411Y012403D01*
D02*
G37*
G36*
X03505Y012235D02*
Y01205D01*
X035235D01*
X035226Y012094D01*
X035173Y012173D01*
X035094Y012226D01*
X03505Y012235D01*
D02*
G37*
G36*
X03495D02*
X034906Y012226D01*
X034827Y012173D01*
X034774Y012094D01*
X034765Y01205D01*
X03495D01*
Y012235D01*
D02*
G37*
G36*
X03105D02*
Y01205D01*
X031235D01*
X031226Y012094D01*
X031173Y012173D01*
X031094Y012226D01*
X03105Y012235D01*
D02*
G37*
G36*
X03095D02*
X030906Y012226D01*
X030827Y012173D01*
X030774Y012094D01*
X030765Y01205D01*
X03095D01*
Y012235D01*
D02*
G37*
G36*
X02705D02*
Y01205D01*
X027235D01*
X027226Y012094D01*
X027173Y012173D01*
X027094Y012226D01*
X02705Y012235D01*
D02*
G37*
G36*
X02695D02*
X026906Y012226D01*
X026827Y012173D01*
X026774Y012094D01*
X026765Y01205D01*
X02695D01*
Y012235D01*
D02*
G37*
G36*
X01495D02*
X014906Y012226D01*
X014827Y012173D01*
X014774Y012094D01*
X014765Y01205D01*
X01495D01*
Y012235D01*
D02*
G37*
G36*
X01305D02*
Y01205D01*
X013235D01*
X013226Y012094D01*
X013173Y012173D01*
X013094Y012226D01*
X01305Y012235D01*
D02*
G37*
G36*
X01295D02*
X012906Y012226D01*
X012827Y012173D01*
X012774Y012094D01*
X012765Y01205D01*
X01295D01*
Y012235D01*
D02*
G37*
G36*
X01095D02*
X010906Y012226D01*
X010827Y012173D01*
X010774Y012094D01*
X010765Y01205D01*
X01095D01*
Y012235D01*
D02*
G37*
G36*
X00905D02*
Y01205D01*
X009235D01*
X009226Y012094D01*
X009173Y012173D01*
X009094Y012226D01*
X00905Y012235D01*
D02*
G37*
G36*
X00895D02*
X008906Y012226D01*
X008827Y012173D01*
X008774Y012094D01*
X008765Y01205D01*
X00895D01*
Y012235D01*
D02*
G37*
G36*
X00705D02*
Y01205D01*
X007235D01*
X007226Y012094D01*
X007173Y012173D01*
X007094Y012226D01*
X00705Y012235D01*
D02*
G37*
G36*
X00695D02*
X006906Y012226D01*
X006827Y012173D01*
X006774Y012094D01*
X006765Y01205D01*
X00695D01*
Y012235D01*
D02*
G37*
G36*
X00505D02*
Y01205D01*
X005235D01*
X005226Y012094D01*
X005173Y012173D01*
X005094Y012226D01*
X00505Y012235D01*
D02*
G37*
G36*
X00495D02*
X004906Y012226D01*
X004827Y012173D01*
X004774Y012094D01*
X004765Y01205D01*
X00495D01*
Y012235D01*
D02*
G37*
G36*
X035235Y01195D02*
X03505D01*
Y011765D01*
X035094Y011774D01*
X035173Y011827D01*
X035226Y011906D01*
X035235Y01195D01*
D02*
G37*
G36*
X03495D02*
X034765D01*
X034774Y011906D01*
X034827Y011827D01*
X034906Y011774D01*
X03495Y011765D01*
Y01195D01*
D02*
G37*
G36*
X031235D02*
X03105D01*
Y011765D01*
X031094Y011774D01*
X031173Y011827D01*
X031226Y011906D01*
X031235Y01195D01*
D02*
G37*
G36*
X03095D02*
X030765D01*
X030774Y011906D01*
X030827Y011827D01*
X030906Y011774D01*
X03095Y011765D01*
Y01195D01*
D02*
G37*
G36*
X027235D02*
X02705D01*
Y011765D01*
X027094Y011774D01*
X027173Y011827D01*
X027226Y011906D01*
X027235Y01195D01*
D02*
G37*
G36*
X02695D02*
X026765D01*
X026774Y011906D01*
X026827Y011827D01*
X026906Y011774D01*
X02695Y011765D01*
Y01195D01*
D02*
G37*
G36*
X01495D02*
X014765D01*
X014774Y011906D01*
X014827Y011827D01*
X014906Y011774D01*
X01495Y011765D01*
Y01195D01*
D02*
G37*
G36*
X013235D02*
X01305D01*
Y011765D01*
X013094Y011774D01*
X013173Y011827D01*
X013226Y011906D01*
X013235Y01195D01*
D02*
G37*
G36*
X01295D02*
X012765D01*
X012774Y011906D01*
X012827Y011827D01*
X012906Y011774D01*
X01295Y011765D01*
Y01195D01*
D02*
G37*
G36*
X01095D02*
X010765D01*
X010774Y011906D01*
X010827Y011827D01*
X010906Y011774D01*
X01095Y011765D01*
Y01195D01*
D02*
G37*
G36*
X009235D02*
X00905D01*
Y011765D01*
X009094Y011774D01*
X009173Y011827D01*
X009226Y011906D01*
X009235Y01195D01*
D02*
G37*
G36*
X00895D02*
X008765D01*
X008774Y011906D01*
X008827Y011827D01*
X008906Y011774D01*
X00895Y011765D01*
Y01195D01*
D02*
G37*
G36*
X007235D02*
X00705D01*
Y011765D01*
X007094Y011774D01*
X007173Y011827D01*
X007226Y011906D01*
X007235Y01195D01*
D02*
G37*
G36*
X00695D02*
X006765D01*
X006774Y011906D01*
X006827Y011827D01*
X006906Y011774D01*
X00695Y011765D01*
Y01195D01*
D02*
G37*
G36*
X005235D02*
X00505D01*
Y011765D01*
X005094Y011774D01*
X005173Y011827D01*
X005226Y011906D01*
X005235Y01195D01*
D02*
G37*
G36*
X00495D02*
X004765D01*
X004774Y011906D01*
X004827Y011827D01*
X004906Y011774D01*
X00495Y011765D01*
Y01195D01*
D02*
G37*
G36*
X019411Y012403D02*
X019211D01*
X019106Y01239D01*
X019009Y012349D01*
X018925Y012285D01*
X018861Y012202D01*
X018821Y012104D01*
X018807Y012D01*
X018821Y011896D01*
X018861Y011798D01*
X018925Y011715D01*
X019009Y011651D01*
X019106Y01161D01*
X019211Y011597D01*
X019411D01*
X019515Y01161D01*
X019612Y011651D01*
X019696Y011715D01*
X01976Y011798D01*
X0198Y011896D01*
X019814Y012D01*
X0198Y012104D01*
X01976Y012202D01*
X019696Y012285D01*
X019612Y012349D01*
X019515Y01239D01*
X019411Y012403D01*
D02*
G37*
G36*
X01105Y012235D02*
Y012D01*
Y011765D01*
X011094Y011774D01*
X011173Y011827D01*
X011181Y011839D01*
X011231Y011824D01*
Y011355D01*
X012181D01*
Y012205D01*
X011231D01*
Y012176D01*
X011181Y012161D01*
X011173Y012173D01*
X011094Y012226D01*
X01105Y012235D01*
D02*
G37*
G36*
X014671Y0122D02*
X013721D01*
Y01135D01*
X014671D01*
Y0122D01*
D02*
G37*
G36*
X025411Y011403D02*
X025211D01*
X025106Y01139D01*
X025009Y011349D01*
X024925Y011285D01*
X024861Y011202D01*
X024821Y011104D01*
X024807Y011D01*
X024821Y010896D01*
X024861Y010798D01*
X024925Y010715D01*
X025009Y010651D01*
X025106Y01061D01*
X025211Y010597D01*
X025411D01*
X025515Y01061D01*
X025612Y010651D01*
X025696Y010715D01*
X02576Y010798D01*
X0258Y010896D01*
X025814Y011D01*
X0258Y011104D01*
X02576Y011202D01*
X025696Y011285D01*
X025612Y011349D01*
X025515Y01139D01*
X025411Y011403D01*
D02*
G37*
G36*
X019411D02*
X019211D01*
X019106Y01139D01*
X019009Y011349D01*
X018925Y011285D01*
X018861Y011202D01*
X018821Y011104D01*
X018807Y011D01*
X018821Y010896D01*
X018861Y010798D01*
X018925Y010715D01*
X019009Y010651D01*
X019106Y01061D01*
X019211Y010597D01*
X019411D01*
X019515Y01061D01*
X019612Y010651D01*
X019696Y010715D01*
X01976Y010798D01*
X0198Y010896D01*
X019814Y011D01*
X0198Y011104D01*
X01976Y011202D01*
X019696Y011285D01*
X019612Y011349D01*
X019515Y01139D01*
X019411Y011403D01*
D02*
G37*
G36*
X032686Y011425D02*
X031586D01*
Y010575D01*
X032686D01*
Y011425D01*
D02*
G37*
G36*
X011756Y011199D02*
X011656D01*
X011545Y011184D01*
X011442Y011141D01*
X011353Y011073D01*
X011285Y010984D01*
X011242Y010881D01*
X011228Y01077D01*
X011242Y010659D01*
X011285Y010556D01*
X011353Y010467D01*
X011442Y010399D01*
X011545Y010356D01*
X011656Y010341D01*
X011756D01*
X011867Y010356D01*
X011971Y010399D01*
X012059Y010467D01*
X012128Y010556D01*
X01217Y010659D01*
X012185Y01077D01*
X01217Y010881D01*
X012128Y010984D01*
X012059Y011073D01*
X011971Y011141D01*
X011867Y011184D01*
X011756Y011199D01*
D02*
G37*
G36*
X014246Y011194D02*
X014146D01*
X014035Y011179D01*
X013932Y011136D01*
X013843Y011068D01*
X013775Y010979D01*
X013732Y010876D01*
X013718Y010765D01*
X013732Y010654D01*
X013775Y010551D01*
X013843Y010462D01*
X013932Y010394D01*
X014035Y010351D01*
X014146Y010336D01*
X014246D01*
X014357Y010351D01*
X014461Y010394D01*
X014549Y010462D01*
X014618Y010551D01*
X01466Y010654D01*
X014675Y010765D01*
X01466Y010876D01*
X014618Y010979D01*
X014549Y011068D01*
X014461Y011136D01*
X014357Y011179D01*
X014246Y011194D01*
D02*
G37*
G36*
X03405Y010235D02*
Y01005D01*
X034235D01*
X034226Y010094D01*
X034173Y010173D01*
X034094Y010226D01*
X03405Y010235D01*
D02*
G37*
G36*
X03395D02*
X033906Y010226D01*
X033827Y010173D01*
X033774Y010094D01*
X033765Y01005D01*
X03395D01*
Y010235D01*
D02*
G37*
G36*
X02005D02*
Y01005D01*
X020235D01*
X020226Y010094D01*
X020173Y010173D01*
X020094Y010226D01*
X02005Y010235D01*
D02*
G37*
G36*
X01005D02*
Y01005D01*
X010235D01*
X010226Y010094D01*
X010173Y010173D01*
X010094Y010226D01*
X01005Y010235D01*
D02*
G37*
G36*
X00995D02*
X009906Y010226D01*
X009827Y010173D01*
X009774Y010094D01*
X009765Y01005D01*
X00995D01*
Y010235D01*
D02*
G37*
G36*
X00805D02*
Y01005D01*
X008235D01*
X008226Y010094D01*
X008173Y010173D01*
X008094Y010226D01*
X00805Y010235D01*
D02*
G37*
G36*
X00795D02*
X007906Y010226D01*
X007827Y010173D01*
X007774Y010094D01*
X007765Y01005D01*
X00795D01*
Y010235D01*
D02*
G37*
G36*
X00605D02*
Y01005D01*
X006235D01*
X006226Y010094D01*
X006173Y010173D01*
X006094Y010226D01*
X00605Y010235D01*
D02*
G37*
G36*
X00595D02*
X005906Y010226D01*
X005827Y010173D01*
X005774Y010094D01*
X005765Y01005D01*
X00595D01*
Y010235D01*
D02*
G37*
G36*
X00405D02*
Y01005D01*
X004235D01*
X004226Y010094D01*
X004173Y010173D01*
X004094Y010226D01*
X00405Y010235D01*
D02*
G37*
G36*
X00395D02*
X003906Y010226D01*
X003827Y010173D01*
X003774Y010094D01*
X003765Y01005D01*
X00395D01*
Y010235D01*
D02*
G37*
G36*
X034235Y00995D02*
X03405D01*
Y009765D01*
X034094Y009774D01*
X034173Y009827D01*
X034226Y009906D01*
X034235Y00995D01*
D02*
G37*
G36*
X03395D02*
X033765D01*
X033774Y009906D01*
X033827Y009827D01*
X033906Y009774D01*
X03395Y009765D01*
Y00995D01*
D02*
G37*
G36*
X020235D02*
X02005D01*
Y009765D01*
X020094Y009774D01*
X020173Y009827D01*
X020226Y009906D01*
X020235Y00995D01*
D02*
G37*
G36*
X019411Y010403D02*
X019211D01*
X019106Y01039D01*
X019009Y010349D01*
X018925Y010285D01*
X018861Y010202D01*
X018821Y010104D01*
X018807Y01D01*
X018821Y009896D01*
X018861Y009798D01*
X018925Y009715D01*
X019009Y009651D01*
X019106Y00961D01*
X019211Y009597D01*
X019411D01*
X019515Y00961D01*
X019612Y009651D01*
X019696Y009715D01*
X01976Y009798D01*
X019773Y009829D01*
X019822Y009834D01*
X019827Y009827D01*
X019906Y009774D01*
X01995Y009765D01*
Y01D01*
Y010235D01*
X019906Y010226D01*
X019827Y010173D01*
X019822Y010166D01*
X019773Y010171D01*
X01976Y010202D01*
X019696Y010285D01*
X019612Y010349D01*
X019515Y01039D01*
X019411Y010403D01*
D02*
G37*
G36*
X010235Y00995D02*
X01005D01*
Y009765D01*
X010094Y009774D01*
X010173Y009827D01*
X010226Y009906D01*
X010235Y00995D01*
D02*
G37*
G36*
X00995D02*
X009765D01*
X009774Y009906D01*
X009827Y009827D01*
X009906Y009774D01*
X00995Y009765D01*
Y00995D01*
D02*
G37*
G36*
X008235D02*
X00805D01*
Y009765D01*
X008094Y009774D01*
X008173Y009827D01*
X008226Y009906D01*
X008235Y00995D01*
D02*
G37*
G36*
X00795D02*
X007765D01*
X007774Y009906D01*
X007827Y009827D01*
X007906Y009774D01*
X00795Y009765D01*
Y00995D01*
D02*
G37*
G36*
X006235D02*
X00605D01*
Y009765D01*
X006094Y009774D01*
X006173Y009827D01*
X006226Y009906D01*
X006235Y00995D01*
D02*
G37*
G36*
X00595D02*
X005765D01*
X005774Y009906D01*
X005827Y009827D01*
X005906Y009774D01*
X00595Y009765D01*
Y00995D01*
D02*
G37*
G36*
X004235D02*
X00405D01*
Y009765D01*
X004094Y009774D01*
X004173Y009827D01*
X004226Y009906D01*
X004235Y00995D01*
D02*
G37*
G36*
X00395D02*
X003765D01*
X003774Y009906D01*
X003827Y009827D01*
X003906Y009774D01*
X00395Y009765D01*
Y00995D01*
D02*
G37*
G36*
X025411Y010403D02*
X025211D01*
X025106Y01039D01*
X025009Y010349D01*
X024925Y010285D01*
X024861Y010202D01*
X024821Y010104D01*
X024807Y01D01*
X024821Y009896D01*
X024861Y009798D01*
X024925Y009715D01*
X025009Y009651D01*
X025106Y00961D01*
X025211Y009597D01*
X025411D01*
X025515Y00961D01*
X025612Y009651D01*
X025696Y009715D01*
X02576Y009798D01*
X0258Y009896D01*
X025814Y01D01*
X0258Y010104D01*
X02576Y010202D01*
X025696Y010285D01*
X025612Y010349D01*
X025515Y01039D01*
X025411Y010403D01*
D02*
G37*
G36*
X032261Y010429D02*
X032011D01*
X0319Y010414D01*
X031796Y010371D01*
X031707Y010303D01*
X031639Y010214D01*
X031596Y010111D01*
X031582Y01D01*
X031596Y009889D01*
X031639Y009786D01*
X031707Y009697D01*
X031796Y009629D01*
X0319Y009586D01*
X032011Y009571D01*
X032261D01*
X032371Y009586D01*
X032475Y009629D01*
X032564Y009697D01*
X032632Y009786D01*
X032675Y009889D01*
X032689Y01D01*
X032675Y010111D01*
X032632Y010214D01*
X032564Y010303D01*
X032475Y010371D01*
X032371Y010414D01*
X032261Y010429D01*
D02*
G37*
G36*
X01719Y015185D02*
X017097Y015166D01*
X017017Y015113D01*
X016964Y015034D01*
X016945Y01494D01*
X016964Y014846D01*
X017017Y014767D01*
X017037Y014754D01*
Y009879D01*
X017017Y009865D01*
X016964Y009786D01*
X016945Y009692D01*
X016964Y009599D01*
X017017Y009519D01*
X017097Y009466D01*
X01719Y009448D01*
X017284Y009466D01*
X017363Y009519D01*
X017416Y009599D01*
X017435Y009692D01*
X017416Y009786D01*
X017363Y009865D01*
X017343Y009879D01*
Y014754D01*
X017363Y014767D01*
X017416Y014846D01*
X017435Y01494D01*
X017416Y015034D01*
X017363Y015113D01*
X017284Y015166D01*
X01719Y015185D01*
D02*
G37*
G36*
X01624D02*
X016147Y015166D01*
X016067Y015113D01*
X016014Y015034D01*
X015995Y01494D01*
X016014Y014846D01*
X016067Y014767D01*
X016087Y014754D01*
Y009879D01*
X016067Y009865D01*
X016014Y009786D01*
X015995Y009692D01*
X016014Y009599D01*
X016067Y009519D01*
X016147Y009466D01*
X01624Y009448D01*
X016334Y009466D01*
X016413Y009519D01*
X016466Y009599D01*
X016485Y009692D01*
X016466Y009786D01*
X016413Y009865D01*
X016393Y009879D01*
Y014754D01*
X016413Y014767D01*
X016466Y014846D01*
X016485Y01494D01*
X016466Y015034D01*
X016413Y015113D01*
X016334Y015166D01*
X01624Y015185D01*
D02*
G37*
G36*
X025411Y009403D02*
X025211D01*
X025106Y00939D01*
X025009Y009349D01*
X024925Y009285D01*
X024861Y009202D01*
X024821Y009104D01*
X024807Y009D01*
X024821Y008896D01*
X024861Y008798D01*
X024925Y008715D01*
X025009Y008651D01*
X025106Y00861D01*
X025211Y008597D01*
X025411D01*
X025515Y00861D01*
X025612Y008651D01*
X025696Y008715D01*
X02576Y008798D01*
X0258Y008896D01*
X025814Y009D01*
X0258Y009104D01*
X02576Y009202D01*
X025696Y009285D01*
X025612Y009349D01*
X025515Y00939D01*
X025411Y009403D01*
D02*
G37*
G36*
X019411D02*
X019211D01*
X019106Y00939D01*
X019009Y009349D01*
X018925Y009285D01*
X018861Y009202D01*
X018821Y009104D01*
X018807Y009D01*
X018821Y008896D01*
X018861Y008798D01*
X018925Y008715D01*
X019009Y008651D01*
X019106Y00861D01*
X019211Y008597D01*
X019411D01*
X019515Y00861D01*
X019612Y008651D01*
X019696Y008715D01*
X01976Y008798D01*
X0198Y008896D01*
X019814Y009D01*
X0198Y009104D01*
X01976Y009202D01*
X019696Y009285D01*
X019612Y009349D01*
X019515Y00939D01*
X019411Y009403D01*
D02*
G37*
G36*
X032261Y009429D02*
X032011D01*
X0319Y009414D01*
X031796Y009371D01*
X031707Y009303D01*
X031639Y009214D01*
X031596Y009111D01*
X031582Y009D01*
X031596Y008889D01*
X031639Y008786D01*
X031707Y008697D01*
X031796Y008629D01*
X0319Y008586D01*
X032011Y008571D01*
X032261D01*
X032371Y008586D01*
X032475Y008629D01*
X032564Y008697D01*
X032632Y008786D01*
X032675Y008889D01*
X032689Y009D01*
X032675Y009111D01*
X032632Y009214D01*
X032564Y009303D01*
X032475Y009371D01*
X032371Y009414D01*
X032261Y009429D01*
D02*
G37*
G36*
X03505Y008235D02*
Y00805D01*
X035235D01*
X035226Y008094D01*
X035173Y008173D01*
X035094Y008226D01*
X03505Y008235D01*
D02*
G37*
G36*
X03495D02*
X034906Y008226D01*
X034827Y008173D01*
X034774Y008094D01*
X034765Y00805D01*
X03495D01*
Y008235D01*
D02*
G37*
G36*
X01305D02*
Y00805D01*
X013235D01*
X013226Y008094D01*
X013173Y008173D01*
X013094Y008226D01*
X01305Y008235D01*
D02*
G37*
G36*
X01295D02*
X012906Y008226D01*
X012827Y008173D01*
X012774Y008094D01*
X012765Y00805D01*
X01295D01*
Y008235D01*
D02*
G37*
G36*
X01105D02*
Y00805D01*
X011235D01*
X011226Y008094D01*
X011173Y008173D01*
X011094Y008226D01*
X01105Y008235D01*
D02*
G37*
G36*
X01095D02*
X010906Y008226D01*
X010827Y008173D01*
X010774Y008094D01*
X010765Y00805D01*
X01095D01*
Y008235D01*
D02*
G37*
G36*
X00905D02*
Y00805D01*
X009235D01*
X009226Y008094D01*
X009173Y008173D01*
X009094Y008226D01*
X00905Y008235D01*
D02*
G37*
G36*
X00895D02*
X008906Y008226D01*
X008827Y008173D01*
X008774Y008094D01*
X008765Y00805D01*
X00895D01*
Y008235D01*
D02*
G37*
G36*
X00705D02*
Y00805D01*
X007235D01*
X007226Y008094D01*
X007173Y008173D01*
X007094Y008226D01*
X00705Y008235D01*
D02*
G37*
G36*
X00695D02*
X006906Y008226D01*
X006827Y008173D01*
X006774Y008094D01*
X006765Y00805D01*
X00695D01*
Y008235D01*
D02*
G37*
G36*
X00505D02*
Y00805D01*
X005235D01*
X005226Y008094D01*
X005173Y008173D01*
X005094Y008226D01*
X00505Y008235D01*
D02*
G37*
G36*
X00495D02*
X004906Y008226D01*
X004827Y008173D01*
X004774Y008094D01*
X004765Y00805D01*
X00495D01*
Y008235D01*
D02*
G37*
G36*
X035235Y00795D02*
X03505D01*
Y007765D01*
X035094Y007774D01*
X035173Y007827D01*
X035226Y007906D01*
X035235Y00795D01*
D02*
G37*
G36*
X03495D02*
X034765D01*
X034774Y007906D01*
X034827Y007827D01*
X034906Y007774D01*
X03495Y007765D01*
Y00795D01*
D02*
G37*
G36*
X013235D02*
X01305D01*
Y007765D01*
X013094Y007774D01*
X013173Y007827D01*
X013226Y007906D01*
X013235Y00795D01*
D02*
G37*
G36*
X01295D02*
X012765D01*
X012774Y007906D01*
X012827Y007827D01*
X012906Y007774D01*
X01295Y007765D01*
Y00795D01*
D02*
G37*
G36*
X011235D02*
X01105D01*
Y007765D01*
X011094Y007774D01*
X011173Y007827D01*
X011226Y007906D01*
X011235Y00795D01*
D02*
G37*
G36*
X01095D02*
X010765D01*
X010774Y007906D01*
X010827Y007827D01*
X010906Y007774D01*
X01095Y007765D01*
Y00795D01*
D02*
G37*
G36*
X009235D02*
X00905D01*
Y007765D01*
X009094Y007774D01*
X009173Y007827D01*
X009226Y007906D01*
X009235Y00795D01*
D02*
G37*
G36*
X00895D02*
X008765D01*
X008774Y007906D01*
X008827Y007827D01*
X008906Y007774D01*
X00895Y007765D01*
Y00795D01*
D02*
G37*
G36*
X007235D02*
X00705D01*
Y007765D01*
X007094Y007774D01*
X007173Y007827D01*
X007226Y007906D01*
X007235Y00795D01*
D02*
G37*
G36*
X00695D02*
X006765D01*
X006774Y007906D01*
X006827Y007827D01*
X006906Y007774D01*
X00695Y007765D01*
Y00795D01*
D02*
G37*
G36*
X005235D02*
X00505D01*
Y007765D01*
X005094Y007774D01*
X005173Y007827D01*
X005226Y007906D01*
X005235Y00795D01*
D02*
G37*
G36*
X00495D02*
X004765D01*
X004774Y007906D01*
X004827Y007827D01*
X004906Y007774D01*
X00495Y007765D01*
Y00795D01*
D02*
G37*
G36*
X002591Y0089D02*
X000791D01*
Y0077D01*
X002591D01*
Y0089D01*
D02*
G37*
G36*
X025411Y008403D02*
X025211D01*
X025106Y00839D01*
X025009Y008349D01*
X024925Y008285D01*
X024861Y008202D01*
X024821Y008104D01*
X024807Y008D01*
X024821Y007896D01*
X024861Y007798D01*
X024925Y007715D01*
X025009Y007651D01*
X025106Y00761D01*
X025211Y007597D01*
X025411D01*
X025515Y00761D01*
X025612Y007651D01*
X025696Y007715D01*
X02576Y007798D01*
X0258Y007896D01*
X025814Y008D01*
X0258Y008104D01*
X02576Y008202D01*
X025696Y008285D01*
X025612Y008349D01*
X025515Y00839D01*
X025411Y008403D01*
D02*
G37*
G36*
X019411D02*
X019211D01*
X019106Y00839D01*
X019009Y008349D01*
X018925Y008285D01*
X018861Y008202D01*
X018821Y008104D01*
X018807Y008D01*
X018821Y007896D01*
X018861Y007798D01*
X018925Y007715D01*
X019009Y007651D01*
X019106Y00761D01*
X019211Y007597D01*
X019411D01*
X019515Y00761D01*
X019612Y007651D01*
X019696Y007715D01*
X01976Y007798D01*
X0198Y007896D01*
X019814Y008D01*
X0198Y008104D01*
X01976Y008202D01*
X019696Y008285D01*
X019612Y008349D01*
X019515Y00839D01*
X019411Y008403D01*
D02*
G37*
G36*
X032261Y008429D02*
X032011D01*
X0319Y008414D01*
X031796Y008371D01*
X031707Y008303D01*
X031639Y008214D01*
X031596Y008111D01*
X031582Y008D01*
X031596Y007889D01*
X031639Y007786D01*
X031707Y007697D01*
X031796Y007629D01*
X0319Y007586D01*
X032011Y007571D01*
X032261D01*
X032371Y007586D01*
X032475Y007629D01*
X032564Y007697D01*
X032632Y007786D01*
X032675Y007889D01*
X032689Y008D01*
X032675Y008111D01*
X032632Y008214D01*
X032564Y008303D01*
X032475Y008371D01*
X032371Y008414D01*
X032261Y008429D01*
D02*
G37*
G36*
X011881Y007919D02*
X011631D01*
X01152Y007904D01*
X011417Y007861D01*
X011328Y007793D01*
X01126Y007704D01*
X011217Y007601D01*
X011203Y00749D01*
X011217Y007379D01*
X01126Y007276D01*
X011328Y007187D01*
X011417Y007119D01*
X01152Y007076D01*
X011631Y007061D01*
X011881D01*
X011992Y007076D01*
X012096Y007119D01*
X012184Y007187D01*
X012253Y007276D01*
X012295Y007379D01*
X01231Y00749D01*
X012295Y007601D01*
X012253Y007704D01*
X012184Y007793D01*
X012096Y007861D01*
X011992Y007904D01*
X011881Y007919D01*
D02*
G37*
G36*
X025411Y007403D02*
X025211D01*
X025106Y00739D01*
X025009Y007349D01*
X024925Y007285D01*
X024861Y007202D01*
X024821Y007104D01*
X024807Y007D01*
X024821Y006896D01*
X024861Y006798D01*
X024925Y006715D01*
X025009Y006651D01*
X025106Y00661D01*
X025211Y006597D01*
X025411D01*
X025515Y00661D01*
X025612Y006651D01*
X025696Y006715D01*
X02576Y006798D01*
X0258Y006896D01*
X025814Y007D01*
X0258Y007104D01*
X02576Y007202D01*
X025696Y007285D01*
X025612Y007349D01*
X025515Y00739D01*
X025411Y007403D01*
D02*
G37*
G36*
X019411D02*
X019211D01*
X019106Y00739D01*
X019009Y007349D01*
X018925Y007285D01*
X018861Y007202D01*
X018821Y007104D01*
X018807Y007D01*
X018821Y006896D01*
X018861Y006798D01*
X018925Y006715D01*
X019009Y006651D01*
X019106Y00661D01*
X019211Y006597D01*
X019411D01*
X019515Y00661D01*
X019612Y006651D01*
X019696Y006715D01*
X01976Y006798D01*
X0198Y006896D01*
X019814Y007D01*
X0198Y007104D01*
X01976Y007202D01*
X019696Y007285D01*
X019612Y007349D01*
X019515Y00739D01*
X019411Y007403D01*
D02*
G37*
G36*
X032261Y007429D02*
X032011D01*
X0319Y007414D01*
X031796Y007371D01*
X031707Y007303D01*
X031639Y007214D01*
X031596Y007111D01*
X031582Y007D01*
X031596Y006889D01*
X031639Y006786D01*
X031707Y006697D01*
X031796Y006629D01*
X0319Y006586D01*
X032011Y006571D01*
X032261D01*
X032371Y006586D01*
X032475Y006629D01*
X032564Y006697D01*
X032632Y006786D01*
X032675Y006889D01*
X032689Y007D01*
X032675Y007111D01*
X032632Y007214D01*
X032564Y007303D01*
X032475Y007371D01*
X032371Y007414D01*
X032261Y007429D01*
D02*
G37*
G36*
X011881Y006919D02*
X011631D01*
X01152Y006904D01*
X011417Y006861D01*
X011328Y006793D01*
X01126Y006704D01*
X011217Y006601D01*
X011203Y00649D01*
X011217Y006379D01*
X01126Y006276D01*
X011328Y006187D01*
X011417Y006119D01*
X01152Y006076D01*
X011631Y006061D01*
X011881D01*
X011992Y006076D01*
X012096Y006119D01*
X012184Y006187D01*
X012253Y006276D01*
X012295Y006379D01*
X01231Y00649D01*
X012295Y006601D01*
X012253Y006704D01*
X012184Y006793D01*
X012096Y006861D01*
X011992Y006904D01*
X011881Y006919D01*
D02*
G37*
G36*
X03405Y006235D02*
Y00605D01*
X034235D01*
X034226Y006094D01*
X034173Y006173D01*
X034094Y006226D01*
X03405Y006235D01*
D02*
G37*
G36*
X03395D02*
X033906Y006226D01*
X033827Y006173D01*
X033774Y006094D01*
X033765Y00605D01*
X03395D01*
Y006235D01*
D02*
G37*
G36*
X03005D02*
Y00605D01*
X030235D01*
X030226Y006094D01*
X030173Y006173D01*
X030094Y006226D01*
X03005Y006235D01*
D02*
G37*
G36*
X02995D02*
X029906Y006226D01*
X029827Y006173D01*
X029774Y006094D01*
X029765Y00605D01*
X02995D01*
Y006235D01*
D02*
G37*
G36*
X02005D02*
Y00605D01*
X020235D01*
X020226Y006094D01*
X020173Y006173D01*
X020094Y006226D01*
X02005Y006235D01*
D02*
G37*
G36*
X01995D02*
X019906Y006226D01*
X019827Y006173D01*
X019774Y006094D01*
X019765Y00605D01*
X01995D01*
Y006235D01*
D02*
G37*
G36*
X01805D02*
Y00605D01*
X018235D01*
X018226Y006094D01*
X018173Y006173D01*
X018094Y006226D01*
X01805Y006235D01*
D02*
G37*
G36*
X01795D02*
X017906Y006226D01*
X017827Y006173D01*
X017774Y006094D01*
X017765Y00605D01*
X01795D01*
Y006235D01*
D02*
G37*
G36*
X01005D02*
Y00605D01*
X010235D01*
X010226Y006094D01*
X010173Y006173D01*
X010094Y006226D01*
X01005Y006235D01*
D02*
G37*
G36*
X00995D02*
X009906Y006226D01*
X009827Y006173D01*
X009774Y006094D01*
X009765Y00605D01*
X00995D01*
Y006235D01*
D02*
G37*
G36*
X00805D02*
Y00605D01*
X008235D01*
X008226Y006094D01*
X008173Y006173D01*
X008094Y006226D01*
X00805Y006235D01*
D02*
G37*
G36*
X00795D02*
X007906Y006226D01*
X007827Y006173D01*
X007774Y006094D01*
X007765Y00605D01*
X00795D01*
Y006235D01*
D02*
G37*
G36*
X00605D02*
Y00605D01*
X006235D01*
X006226Y006094D01*
X006173Y006173D01*
X006094Y006226D01*
X00605Y006235D01*
D02*
G37*
G36*
X00595D02*
X005906Y006226D01*
X005827Y006173D01*
X005774Y006094D01*
X005765Y00605D01*
X00595D01*
Y006235D01*
D02*
G37*
G36*
X00405D02*
Y00605D01*
X004235D01*
X004226Y006094D01*
X004173Y006173D01*
X004094Y006226D01*
X00405Y006235D01*
D02*
G37*
G36*
X00395D02*
X003906Y006226D01*
X003827Y006173D01*
X003774Y006094D01*
X003765Y00605D01*
X00395D01*
Y006235D01*
D02*
G37*
G36*
X034235Y00595D02*
X03405D01*
Y005765D01*
X034094Y005774D01*
X034173Y005827D01*
X034226Y005906D01*
X034235Y00595D01*
D02*
G37*
G36*
X03395D02*
X033765D01*
X033774Y005906D01*
X033827Y005827D01*
X033906Y005774D01*
X03395Y005765D01*
Y00595D01*
D02*
G37*
G36*
X030235D02*
X03005D01*
Y005765D01*
X030094Y005774D01*
X030173Y005827D01*
X030226Y005906D01*
X030235Y00595D01*
D02*
G37*
G36*
X02995D02*
X029765D01*
X029774Y005906D01*
X029827Y005827D01*
X029906Y005774D01*
X02995Y005765D01*
Y00595D01*
D02*
G37*
G36*
X020235D02*
X02005D01*
Y005765D01*
X020094Y005774D01*
X020173Y005827D01*
X020226Y005906D01*
X020235Y00595D01*
D02*
G37*
G36*
X01995D02*
X019765D01*
X019774Y005906D01*
X019827Y005827D01*
X019906Y005774D01*
X01995Y005765D01*
Y00595D01*
D02*
G37*
G36*
X018235D02*
X01805D01*
Y005765D01*
X018094Y005774D01*
X018173Y005827D01*
X018226Y005906D01*
X018235Y00595D01*
D02*
G37*
G36*
X01795D02*
X017765D01*
X017774Y005906D01*
X017827Y005827D01*
X017906Y005774D01*
X01795Y005765D01*
Y00595D01*
D02*
G37*
G36*
X010235D02*
X01005D01*
Y005765D01*
X010094Y005774D01*
X010173Y005827D01*
X010226Y005906D01*
X010235Y00595D01*
D02*
G37*
G36*
X00995D02*
X009765D01*
X009774Y005906D01*
X009827Y005827D01*
X009906Y005774D01*
X00995Y005765D01*
Y00595D01*
D02*
G37*
G36*
X008235D02*
X00805D01*
Y005765D01*
X008094Y005774D01*
X008173Y005827D01*
X008226Y005906D01*
X008235Y00595D01*
D02*
G37*
G36*
X00795D02*
X007765D01*
X007774Y005906D01*
X007827Y005827D01*
X007906Y005774D01*
X00795Y005765D01*
Y00595D01*
D02*
G37*
G36*
X006235D02*
X00605D01*
Y005765D01*
X006094Y005774D01*
X006173Y005827D01*
X006226Y005906D01*
X006235Y00595D01*
D02*
G37*
G36*
X00595D02*
X005765D01*
X005774Y005906D01*
X005827Y005827D01*
X005906Y005774D01*
X00595Y005765D01*
Y00595D01*
D02*
G37*
G36*
X004235D02*
X00405D01*
Y005765D01*
X004094Y005774D01*
X004173Y005827D01*
X004226Y005906D01*
X004235Y00595D01*
D02*
G37*
G36*
X00395D02*
X003765D01*
X003774Y005906D01*
X003827Y005827D01*
X003906Y005774D01*
X00395Y005765D01*
Y00595D01*
D02*
G37*
G36*
X025411Y006403D02*
X025211D01*
X025106Y00639D01*
X025009Y006349D01*
X024925Y006285D01*
X024861Y006202D01*
X024821Y006104D01*
X024807Y006D01*
X024821Y005896D01*
X024861Y005798D01*
X024925Y005715D01*
X025009Y005651D01*
X025106Y00561D01*
X025211Y005597D01*
X025411D01*
X025515Y00561D01*
X025612Y005651D01*
X025696Y005715D01*
X02576Y005798D01*
X0258Y005896D01*
X025814Y006D01*
X0258Y006104D01*
X02576Y006202D01*
X025696Y006285D01*
X025612Y006349D01*
X025515Y00639D01*
X025411Y006403D01*
D02*
G37*
G36*
X011881Y005919D02*
X011631D01*
X01152Y005904D01*
X011417Y005861D01*
X011328Y005793D01*
X01126Y005704D01*
X011217Y005601D01*
X011203Y00549D01*
X011217Y005379D01*
X01126Y005276D01*
X011328Y005187D01*
X011417Y005119D01*
X01152Y005076D01*
X011631Y005061D01*
X011881D01*
X011992Y005076D01*
X012096Y005119D01*
X012184Y005187D01*
X012253Y005276D01*
X012295Y005379D01*
X01231Y00549D01*
X012295Y005601D01*
X012253Y005704D01*
X012184Y005793D01*
X012096Y005861D01*
X011992Y005904D01*
X011881Y005919D01*
D02*
G37*
G36*
X025811Y0054D02*
X024811D01*
Y0046D01*
X025811D01*
Y0054D01*
D02*
G37*
G36*
X032261Y006429D02*
X032011D01*
X0319Y006414D01*
X031796Y006371D01*
X031707Y006303D01*
X031639Y006214D01*
X031596Y006111D01*
X031582Y006D01*
X031596Y005889D01*
X031622Y005828D01*
X030097Y004303D01*
X023832D01*
X022963Y005172D01*
Y005319D01*
X022999Y005372D01*
X023014Y00545D01*
X022999Y005528D01*
X022955Y005594D01*
X022889Y005638D01*
X022811Y005654D01*
X022732Y005638D01*
X022666Y005594D01*
X022633Y005545D01*
X022631Y005544D01*
X02258D01*
X022578Y005545D01*
X022545Y005594D01*
X022479Y005638D01*
X022401Y005654D01*
X022322Y005638D01*
X022256Y005594D01*
X022212Y005528D01*
X022197Y00545D01*
X022212Y005372D01*
X022256Y005306D01*
X022267Y005299D01*
Y005217D01*
X022278Y005158D01*
X022311Y005108D01*
X023578Y003842D01*
X023628Y003809D01*
X023686Y003797D01*
X030243D01*
X030302Y003809D01*
X030351Y003842D01*
X031357Y004847D01*
X031614D01*
X031639Y004786D01*
X031707Y004697D01*
X031796Y004629D01*
X0319Y004586D01*
X032011Y004571D01*
X032261D01*
X032371Y004586D01*
X032475Y004629D01*
X032564Y004697D01*
X032632Y004786D01*
X032675Y004889D01*
X032689Y005D01*
X032675Y005111D01*
X032632Y005214D01*
X032564Y005303D01*
X032475Y005371D01*
X032371Y005414D01*
X032261Y005429D01*
X032011D01*
X0319Y005414D01*
X031796Y005371D01*
X031707Y005303D01*
X031639Y005214D01*
X031614Y005153D01*
X031445D01*
X031426Y005199D01*
X031838Y005611D01*
X0319Y005586D01*
X032011Y005571D01*
X032261D01*
X032371Y005586D01*
X032475Y005629D01*
X032564Y005697D01*
X032632Y005786D01*
X032675Y005889D01*
X032689Y006D01*
X032675Y006111D01*
X032632Y006214D01*
X032564Y006303D01*
X032475Y006371D01*
X032371Y006414D01*
X032261Y006429D01*
D02*
G37*
G36*
X011881Y004919D02*
X011631D01*
X01152Y004904D01*
X011417Y004861D01*
X011328Y004793D01*
X01126Y004704D01*
X011217Y004601D01*
X011203Y00449D01*
X011217Y004379D01*
X01126Y004276D01*
X011328Y004187D01*
X011417Y004119D01*
X01152Y004076D01*
X011631Y004061D01*
X011881D01*
X011992Y004076D01*
X012096Y004119D01*
X012184Y004187D01*
X012253Y004276D01*
X012295Y004379D01*
X01231Y00449D01*
X012295Y004601D01*
X012253Y004704D01*
X012184Y004793D01*
X012096Y004861D01*
X011992Y004904D01*
X011881Y004919D01*
D02*
G37*
G36*
X03505Y004235D02*
Y00405D01*
X035235D01*
X035226Y004094D01*
X035173Y004173D01*
X035094Y004226D01*
X03505Y004235D01*
D02*
G37*
G36*
X03495D02*
X034906Y004226D01*
X034827Y004173D01*
X034774Y004094D01*
X034765Y00405D01*
X03495D01*
Y004235D01*
D02*
G37*
G36*
X03105D02*
Y00405D01*
X031235D01*
X031226Y004094D01*
X031173Y004173D01*
X031094Y004226D01*
X03105Y004235D01*
D02*
G37*
G36*
X03095D02*
X030906Y004226D01*
X030827Y004173D01*
X030774Y004094D01*
X030765Y00405D01*
X03095D01*
Y004235D01*
D02*
G37*
G36*
X01905D02*
Y00405D01*
X019235D01*
X019226Y004094D01*
X019173Y004173D01*
X019094Y004226D01*
X01905Y004235D01*
D02*
G37*
G36*
X01895D02*
X018906Y004226D01*
X018827Y004173D01*
X018774Y004094D01*
X018765Y00405D01*
X01895D01*
Y004235D01*
D02*
G37*
G36*
X01705D02*
Y00405D01*
X017235D01*
X017226Y004094D01*
X017173Y004173D01*
X017094Y004226D01*
X01705Y004235D01*
D02*
G37*
G36*
X01695D02*
X016906Y004226D01*
X016827Y004173D01*
X016774Y004094D01*
X016765Y00405D01*
X01695D01*
Y004235D01*
D02*
G37*
G36*
X01305D02*
Y00405D01*
X013235D01*
X013226Y004094D01*
X013173Y004173D01*
X013094Y004226D01*
X01305Y004235D01*
D02*
G37*
G36*
X01295D02*
X012906Y004226D01*
X012827Y004173D01*
X012774Y004094D01*
X012765Y00405D01*
X01295D01*
Y004235D01*
D02*
G37*
G36*
X01105D02*
Y00405D01*
X011235D01*
X011226Y004094D01*
X011173Y004173D01*
X011094Y004226D01*
X01105Y004235D01*
D02*
G37*
G36*
X01095D02*
X010906Y004226D01*
X010827Y004173D01*
X010774Y004094D01*
X010765Y00405D01*
X01095D01*
Y004235D01*
D02*
G37*
G36*
X00905D02*
Y00405D01*
X009235D01*
X009226Y004094D01*
X009173Y004173D01*
X009094Y004226D01*
X00905Y004235D01*
D02*
G37*
G36*
X00895D02*
X008906Y004226D01*
X008827Y004173D01*
X008774Y004094D01*
X008765Y00405D01*
X00895D01*
Y004235D01*
D02*
G37*
G36*
X00705D02*
Y00405D01*
X007235D01*
X007226Y004094D01*
X007173Y004173D01*
X007094Y004226D01*
X00705Y004235D01*
D02*
G37*
G36*
X00695D02*
X006906Y004226D01*
X006827Y004173D01*
X006774Y004094D01*
X006765Y00405D01*
X00695D01*
Y004235D01*
D02*
G37*
G36*
X00305D02*
Y00405D01*
X003235D01*
X003226Y004094D01*
X003173Y004173D01*
X003094Y004226D01*
X00305Y004235D01*
D02*
G37*
G36*
X00295D02*
X002906Y004226D01*
X002827Y004173D01*
X002774Y004094D01*
X002765Y00405D01*
X00295D01*
Y004235D01*
D02*
G37*
G36*
X017521Y008365D02*
X0167D01*
Y007761D01*
X015892Y006953D01*
X015859Y006903D01*
X015847Y006844D01*
Y004281D01*
X015812Y004228D01*
X015796Y00415D01*
X015812Y004072D01*
X015856Y004006D01*
X015922Y003962D01*
X016Y003946D01*
X016078Y003962D01*
X016144Y004006D01*
X016188Y004072D01*
X016204Y00415D01*
X016188Y004228D01*
X016153Y004281D01*
Y006781D01*
X016917Y007545D01*
X017521D01*
Y008365D01*
D02*
G37*
G36*
X035235Y00395D02*
X03505D01*
Y003765D01*
X035094Y003774D01*
X035173Y003827D01*
X035226Y003906D01*
X035235Y00395D01*
D02*
G37*
G36*
X03495D02*
X034765D01*
X034774Y003906D01*
X034827Y003827D01*
X034906Y003774D01*
X03495Y003765D01*
Y00395D01*
D02*
G37*
G36*
X031235D02*
X03105D01*
Y003765D01*
X031094Y003774D01*
X031173Y003827D01*
X031226Y003906D01*
X031235Y00395D01*
D02*
G37*
G36*
X03095D02*
X030765D01*
X030774Y003906D01*
X030827Y003827D01*
X030906Y003774D01*
X03095Y003765D01*
Y00395D01*
D02*
G37*
G36*
X019235D02*
X01905D01*
Y003765D01*
X019094Y003774D01*
X019173Y003827D01*
X019226Y003906D01*
X019235Y00395D01*
D02*
G37*
G36*
X01895D02*
X018765D01*
X018774Y003906D01*
X018827Y003827D01*
X018906Y003774D01*
X01895Y003765D01*
Y00395D01*
D02*
G37*
G36*
X017235D02*
X01705D01*
Y003765D01*
X017094Y003774D01*
X017173Y003827D01*
X017226Y003906D01*
X017235Y00395D01*
D02*
G37*
G36*
X01695D02*
X016765D01*
X016774Y003906D01*
X016827Y003827D01*
X016906Y003774D01*
X01695Y003765D01*
Y00395D01*
D02*
G37*
G36*
X013235D02*
X01305D01*
Y003765D01*
X013094Y003774D01*
X013173Y003827D01*
X013226Y003906D01*
X013235Y00395D01*
D02*
G37*
G36*
X01295D02*
X012765D01*
X012774Y003906D01*
X012827Y003827D01*
X012906Y003774D01*
X01295Y003765D01*
Y00395D01*
D02*
G37*
G36*
X011235D02*
X01105D01*
Y003765D01*
X011094Y003774D01*
X011173Y003827D01*
X011226Y003906D01*
X011235Y00395D01*
D02*
G37*
G36*
X01095D02*
X010765D01*
X010774Y003906D01*
X010827Y003827D01*
X010906Y003774D01*
X01095Y003765D01*
Y00395D01*
D02*
G37*
G36*
X009235D02*
X00905D01*
Y003765D01*
X009094Y003774D01*
X009173Y003827D01*
X009226Y003906D01*
X009235Y00395D01*
D02*
G37*
G36*
X00895D02*
X008765D01*
X008774Y003906D01*
X008827Y003827D01*
X008906Y003774D01*
X00895Y003765D01*
Y00395D01*
D02*
G37*
G36*
X007235D02*
X00705D01*
Y003765D01*
X007094Y003774D01*
X007173Y003827D01*
X007226Y003906D01*
X007235Y00395D01*
D02*
G37*
G36*
X00695D02*
X006765D01*
X006774Y003906D01*
X006827Y003827D01*
X006906Y003774D01*
X00695Y003765D01*
Y00395D01*
D02*
G37*
G36*
X003235D02*
X00305D01*
Y003765D01*
X003094Y003774D01*
X003173Y003827D01*
X003226Y003906D01*
X003235Y00395D01*
D02*
G37*
G36*
X00295D02*
X002765D01*
X002774Y003906D01*
X002827Y003827D01*
X002906Y003774D01*
X00295Y003765D01*
Y00395D01*
D02*
G37*
G36*
X011881Y003919D02*
X011631D01*
X01152Y003904D01*
X011417Y003861D01*
X011328Y003793D01*
X01126Y003704D01*
X011217Y003601D01*
X011203Y00349D01*
X011217Y003379D01*
X01126Y003276D01*
X011328Y003187D01*
X011417Y003119D01*
X01152Y003076D01*
X011631Y003061D01*
X011881D01*
X011992Y003076D01*
X012096Y003119D01*
X012184Y003187D01*
X012253Y003276D01*
X012295Y003379D01*
X01231Y00349D01*
X012295Y003601D01*
X012253Y003704D01*
X012184Y003793D01*
X012096Y003861D01*
X011992Y003904D01*
X011881Y003919D01*
D02*
G37*
G36*
Y002919D02*
X011631D01*
X01152Y002904D01*
X011417Y002861D01*
X011328Y002793D01*
X01126Y002704D01*
X011217Y002601D01*
X011203Y00249D01*
X011217Y002379D01*
X01126Y002276D01*
X011304Y002218D01*
X01128Y002168D01*
X007248D01*
X006851Y002565D01*
X006838Y002628D01*
X006794Y002694D01*
X006728Y002738D01*
X00665Y002754D01*
X006572Y002738D01*
X006506Y002694D01*
X006462Y002628D01*
X006446Y00255D01*
X006462Y002472D01*
X006506Y002406D01*
X006572Y002362D01*
X006635Y002349D01*
X007077Y001907D01*
X007126Y001874D01*
X007185Y001862D01*
X011206D01*
Y001065D01*
X012306D01*
Y001862D01*
X012871D01*
X012872Y001862D01*
X01295Y001846D01*
X013028Y001862D01*
X013094Y001906D01*
X013138Y001972D01*
X013154Y00205D01*
X013138Y002128D01*
X013094Y002194D01*
X013028Y002238D01*
X01295Y002254D01*
X012872Y002238D01*
X012806Y002194D01*
X012788Y002168D01*
X012233D01*
X012208Y002218D01*
X012253Y002276D01*
X012295Y002379D01*
X01231Y00249D01*
X012295Y002601D01*
X012253Y002704D01*
X012184Y002793D01*
X012096Y002861D01*
X011992Y002904D01*
X011881Y002919D01*
D02*
G37*
G36*
X03405Y002235D02*
Y00205D01*
X034235D01*
X034226Y002094D01*
X034173Y002173D01*
X034094Y002226D01*
X03405Y002235D01*
D02*
G37*
G36*
X03395D02*
X033906Y002226D01*
X033827Y002173D01*
X033774Y002094D01*
X033765Y00205D01*
X03395D01*
Y002235D01*
D02*
G37*
G36*
X03005D02*
Y00205D01*
X030235D01*
X030226Y002094D01*
X030173Y002173D01*
X030094Y002226D01*
X03005Y002235D01*
D02*
G37*
G36*
X02995D02*
X029906Y002226D01*
X029827Y002173D01*
X029774Y002094D01*
X029765Y00205D01*
X02995D01*
Y002235D01*
D02*
G37*
G36*
X02805D02*
Y00205D01*
X028235D01*
X028226Y002094D01*
X028173Y002173D01*
X028094Y002226D01*
X02805Y002235D01*
D02*
G37*
G36*
X02795D02*
X027906Y002226D01*
X027827Y002173D01*
X027774Y002094D01*
X027765Y00205D01*
X02795D01*
Y002235D01*
D02*
G37*
G36*
X02605D02*
Y00205D01*
X026235D01*
X026226Y002094D01*
X026173Y002173D01*
X026094Y002226D01*
X02605Y002235D01*
D02*
G37*
G36*
X02595D02*
X025906Y002226D01*
X025827Y002173D01*
X025774Y002094D01*
X025765Y00205D01*
X02595D01*
Y002235D01*
D02*
G37*
G36*
X01805D02*
Y00205D01*
X018235D01*
X018226Y002094D01*
X018173Y002173D01*
X018094Y002226D01*
X01805Y002235D01*
D02*
G37*
G36*
X01795D02*
X017906Y002226D01*
X017827Y002173D01*
X017774Y002094D01*
X017765Y00205D01*
X01795D01*
Y002235D01*
D02*
G37*
G36*
X00605D02*
Y00205D01*
X006235D01*
X006226Y002094D01*
X006173Y002173D01*
X006094Y002226D01*
X00605Y002235D01*
D02*
G37*
G36*
X00595D02*
X005906Y002226D01*
X005827Y002173D01*
X005774Y002094D01*
X005765Y00205D01*
X00595D01*
Y002235D01*
D02*
G37*
G36*
X00405D02*
Y00205D01*
X004235D01*
X004226Y002094D01*
X004173Y002173D01*
X004094Y002226D01*
X00405Y002235D01*
D02*
G37*
G36*
X00395D02*
X003906Y002226D01*
X003827Y002173D01*
X003774Y002094D01*
X003765Y00205D01*
X00395D01*
Y002235D01*
D02*
G37*
G36*
X00205D02*
Y00205D01*
X002235D01*
X002226Y002094D01*
X002173Y002173D01*
X002094Y002226D01*
X00205Y002235D01*
D02*
G37*
G36*
X00195D02*
X001906Y002226D01*
X001827Y002173D01*
X001774Y002094D01*
X001765Y00205D01*
X00195D01*
Y002235D01*
D02*
G37*
G36*
X034235Y00195D02*
X03405D01*
Y001765D01*
X034094Y001774D01*
X034173Y001827D01*
X034226Y001906D01*
X034235Y00195D01*
D02*
G37*
G36*
X03395D02*
X033765D01*
X033774Y001906D01*
X033827Y001827D01*
X033906Y001774D01*
X03395Y001765D01*
Y00195D01*
D02*
G37*
G36*
X030235D02*
X03005D01*
Y001765D01*
X030094Y001774D01*
X030173Y001827D01*
X030226Y001906D01*
X030235Y00195D01*
D02*
G37*
G36*
X02995D02*
X029765D01*
X029774Y001906D01*
X029827Y001827D01*
X029906Y001774D01*
X02995Y001765D01*
Y00195D01*
D02*
G37*
G36*
X028235D02*
X02805D01*
Y001765D01*
X028094Y001774D01*
X028173Y001827D01*
X028226Y001906D01*
X028235Y00195D01*
D02*
G37*
G36*
X02795D02*
X027765D01*
X027774Y001906D01*
X027827Y001827D01*
X027906Y001774D01*
X02795Y001765D01*
Y00195D01*
D02*
G37*
G36*
X026235D02*
X02605D01*
Y001765D01*
X026094Y001774D01*
X026173Y001827D01*
X026226Y001906D01*
X026235Y00195D01*
D02*
G37*
G36*
X02595D02*
X025765D01*
X025774Y001906D01*
X025827Y001827D01*
X025906Y001774D01*
X02595Y001765D01*
Y00195D01*
D02*
G37*
G36*
X018235D02*
X01805D01*
Y001765D01*
X018094Y001774D01*
X018173Y001827D01*
X018226Y001906D01*
X018235Y00195D01*
D02*
G37*
G36*
X01795D02*
X017765D01*
X017774Y001906D01*
X017827Y001827D01*
X017906Y001774D01*
X01795Y001765D01*
Y00195D01*
D02*
G37*
G36*
X006235D02*
X00605D01*
Y001765D01*
X006094Y001774D01*
X006173Y001827D01*
X006226Y001906D01*
X006235Y00195D01*
D02*
G37*
G36*
X00595D02*
X005765D01*
X005774Y001906D01*
X005827Y001827D01*
X005906Y001774D01*
X00595Y001765D01*
Y00195D01*
D02*
G37*
G36*
X004235D02*
X00405D01*
Y001765D01*
X004094Y001774D01*
X004173Y001827D01*
X004226Y001906D01*
X004235Y00195D01*
D02*
G37*
G36*
X00395D02*
X003765D01*
X003774Y001906D01*
X003827Y001827D01*
X003906Y001774D01*
X00395Y001765D01*
Y00195D01*
D02*
G37*
G36*
X002235D02*
X00205D01*
Y001765D01*
X002094Y001774D01*
X002173Y001827D01*
X002226Y001906D01*
X002235Y00195D01*
D02*
G37*
G36*
X00195D02*
X001765D01*
X001774Y001906D01*
X001827Y001827D01*
X001906Y001774D01*
X00195Y001765D01*
Y00195D01*
D02*
G37*
G36*
X021976Y003083D02*
X021872Y00307D01*
X021775Y003029D01*
X021691Y002965D01*
X021627Y002882D01*
X021587Y002784D01*
X021573Y00268D01*
Y00242D01*
X021587Y002316D01*
X021627Y002218D01*
X021691Y002135D01*
X021754Y002086D01*
X021757Y002062D01*
X021752Y00203D01*
X021752Y002028D01*
X021676Y00197D01*
X021612Y001887D01*
X021572Y001789D01*
X021558Y001685D01*
Y001425D01*
X021572Y001321D01*
X021612Y001223D01*
X021676Y00114D01*
X02176Y001076D01*
X021857Y001035D01*
X021961Y001022D01*
X022066Y001035D01*
X022163Y001076D01*
X022247Y00114D01*
X022311Y001223D01*
X022351Y001321D01*
X022365Y001425D01*
Y001685D01*
X022351Y001789D01*
X022311Y001887D01*
X022247Y00197D01*
X022183Y002019D01*
X022181Y002043D01*
X022185Y002075D01*
X022186Y002077D01*
X022262Y002135D01*
X022326Y002218D01*
X022366Y002316D01*
X02238Y00242D01*
Y00268D01*
X022366Y002784D01*
X022326Y002882D01*
X022262Y002965D01*
X022178Y003029D01*
X022081Y00307D01*
X021976Y003083D01*
D02*
G37*
G36*
X023956Y002073D02*
X023852Y00206D01*
X023755Y002019D01*
X023671Y001955D01*
X023607Y001872D01*
X023567Y001774D01*
X023553Y00167D01*
Y00141D01*
X023567Y001306D01*
X023607Y001208D01*
X023671Y001125D01*
X023755Y001061D01*
X023852Y00102D01*
X023956Y001007D01*
X024061Y00102D01*
X024158Y001061D01*
X024242Y001125D01*
X024306Y001208D01*
X024346Y001306D01*
X02436Y00141D01*
Y00167D01*
X024346Y001774D01*
X024306Y001872D01*
X024242Y001955D01*
X024158Y002019D01*
X024061Y00206D01*
X023956Y002073D01*
D02*
G37*
G36*
X022966Y003083D02*
X022862Y00307D01*
X022765Y003029D01*
X022681Y002965D01*
X022617Y002882D01*
X022577Y002784D01*
X022563Y00268D01*
Y00242D01*
X022577Y002316D01*
X022617Y002218D01*
X022681Y002135D01*
X022759Y002075D01*
X022763Y002023D01*
X022755Y002019D01*
X022671Y001955D01*
X022607Y001872D01*
X022567Y001774D01*
X022553Y00167D01*
Y00141D01*
X022567Y001306D01*
X022607Y001208D01*
X022671Y001125D01*
X022755Y001061D01*
X022852Y00102D01*
X022956Y001007D01*
X023061Y00102D01*
X023158Y001061D01*
X023242Y001125D01*
X023306Y001208D01*
X023346Y001306D01*
X02336Y00141D01*
Y00167D01*
X023346Y001774D01*
X023306Y001872D01*
X023242Y001955D01*
X023164Y002015D01*
X023159Y002067D01*
X023168Y002071D01*
X023252Y002135D01*
X023316Y002218D01*
X023356Y002316D01*
X02337Y00242D01*
Y00268D01*
X023356Y002784D01*
X023316Y002882D01*
X023252Y002965D01*
X023168Y003029D01*
X023071Y00307D01*
X022966Y003083D01*
D02*
G37*
G36*
X020966Y003103D02*
X020862Y00309D01*
X020765Y003049D01*
X020681Y002985D01*
X020617Y002902D01*
X020577Y002804D01*
X020563Y0027D01*
Y00244D01*
X020577Y002336D01*
X020617Y002238D01*
X020681Y002155D01*
X020765Y002091D01*
X020785Y002082D01*
Y002032D01*
X020755Y002019D01*
X020671Y001955D01*
X020607Y001872D01*
X020567Y001774D01*
X020553Y00167D01*
Y00141D01*
X020567Y001306D01*
X020607Y001208D01*
X020671Y001125D01*
X020755Y001061D01*
X020852Y00102D01*
X020956Y001007D01*
X021061Y00102D01*
X021158Y001061D01*
X021242Y001125D01*
X021306Y001208D01*
X021346Y001306D01*
X02136Y00141D01*
Y00167D01*
X021346Y001774D01*
X021306Y001872D01*
X021242Y001955D01*
X021158Y002019D01*
X021137Y002028D01*
Y002078D01*
X021168Y002091D01*
X021252Y002155D01*
X021316Y002238D01*
X021356Y002336D01*
X02137Y00244D01*
Y0027D01*
X021356Y002804D01*
X021316Y002902D01*
X021252Y002985D01*
X021168Y003049D01*
X021071Y00309D01*
X020966Y003103D01*
D02*
G37*
%LPD*%
G36*
X007756Y03594D02*
X005706D01*
Y03704D01*
X007756D01*
Y03594D01*
D02*
G37*
D12*
X016Y006844D02*
X017111Y007955D01*
X016Y00415D02*
Y006844D01*
X012923Y00205D02*
X01295D01*
X012888Y002015D02*
X012923Y00205D01*
X007185Y002015D02*
X012888D01*
X00665Y00255D02*
X007185Y002015D01*
X022811Y005109D02*
Y00545D01*
Y005109D02*
X023769Y00415D01*
X022401Y00545D02*
X02242Y005431D01*
Y005217D02*
Y005431D01*
X021946Y011969D02*
X02528D01*
X021927Y01195D02*
X021946Y011969D01*
X018011Y02016D02*
Y021D01*
X015371Y01752D02*
X018011Y02016D01*
X015371Y0097D02*
Y01752D01*
X01719Y009692D02*
Y01494D01*
X01624Y009692D02*
Y01494D01*
X02819Y02279D02*
X02885D01*
X02799Y02299D02*
X02819Y02279D01*
X02799Y02299D02*
Y02519D01*
X02885Y02279D02*
X02894Y02288D01*
X02774Y02544D02*
X02799Y02519D01*
X02209Y02544D02*
X02774D01*
X02094Y02429D02*
X02209Y02544D01*
X02094Y01989D02*
Y02429D01*
X02194Y02594D02*
X029621D01*
X02054Y02454D02*
X02194Y02594D01*
X029621D02*
X031771Y02379D01*
X02075Y0197D02*
X02094Y01989D01*
X02012Y0197D02*
X02075D01*
X019861Y01996D02*
X02012Y0197D01*
X019351Y01996D02*
X019861D01*
X019311Y02D02*
X019351Y01996D01*
X02054Y020215D02*
Y02454D01*
X031771Y02379D02*
X032066D01*
X021861Y017D02*
X025311D01*
X02528Y011969D02*
X025311Y012D01*
X029461Y010325D02*
Y01243D01*
X032056Y015025D01*
Y015155D01*
X028911Y010325D02*
Y01288D01*
X032066Y016035D01*
Y016165D01*
X02242Y005217D02*
X023686Y00395D01*
X030243D01*
X031293Y005D01*
X032136D01*
X023769Y00415D02*
X030161D01*
X032011Y006D01*
X032136D01*
D72*
X0051Y001065D02*
D03*
X021854Y037475D02*
D03*
X03535Y0012D02*
D03*
D73*
X034976Y02288D02*
D03*
X02894D02*
D03*
X011706Y01178D02*
D03*
X014196Y011775D02*
D03*
D74*
X034976Y02389D02*
D03*
Y02487D02*
D03*
X02894D02*
D03*
Y02389D02*
D03*
X011706Y00979D02*
D03*
Y01077D02*
D03*
X014196Y009785D02*
D03*
Y010765D02*
D03*
X011656Y0174D02*
D03*
Y01639D02*
D03*
Y01541D02*
D03*
Y0144D02*
D03*
D75*
X011756Y00649D02*
D03*
Y00449D02*
D03*
Y00349D02*
D03*
Y00249D02*
D03*
Y00549D02*
D03*
Y00749D02*
D03*
X032136Y0183D02*
D03*
Y0213D02*
D03*
Y0203D02*
D03*
Y0193D02*
D03*
Y006D02*
D03*
Y008D02*
D03*
Y009D02*
D03*
Y01D02*
D03*
Y007D02*
D03*
Y005D02*
D03*
D76*
X011756Y00149D02*
D03*
X032136Y0223D02*
D03*
Y011D02*
D03*
D77*
X024445Y027094D02*
D03*
X021445D02*
D03*
X022445D02*
D03*
X023445D02*
D03*
D78*
X020445D02*
D03*
D79*
X017111Y007955D02*
D03*
D80*
Y002404D02*
D03*
D81*
X003691Y0073D02*
D03*
D82*
X001691Y0058D02*
D03*
Y0083D02*
D03*
D83*
X006206Y036462D02*
D03*
Y035477D02*
D03*
Y03469D02*
D03*
Y033706D02*
D03*
X007234Y036462D02*
D03*
Y035477D02*
D03*
Y03469D02*
D03*
Y033706D02*
D03*
D84*
X007372Y03767D02*
D03*
Y032497D02*
D03*
X005135D02*
D03*
Y03767D02*
D03*
D85*
X032066Y016165D02*
D03*
X033066D02*
D03*
X034061Y01615D02*
D03*
X035066Y016165D02*
D03*
X035056Y015135D02*
D03*
X034046Y015155D02*
D03*
X033056D02*
D03*
X032056D02*
D03*
X023956Y00154D02*
D03*
X022956D02*
D03*
X021961Y001555D02*
D03*
X020956Y00154D02*
D03*
X020966Y00257D02*
D03*
X021976Y00255D02*
D03*
X022966D02*
D03*
X023966D02*
D03*
D86*
X034976Y029183D02*
D03*
Y030183D02*
D03*
Y031183D02*
D03*
D87*
X025311Y005D02*
D03*
D88*
Y006D02*
D03*
Y007D02*
D03*
Y008D02*
D03*
Y009D02*
D03*
Y01D02*
D03*
Y011D02*
D03*
Y012D02*
D03*
Y013D02*
D03*
Y014D02*
D03*
Y015D02*
D03*
Y016D02*
D03*
Y017D02*
D03*
Y018D02*
D03*
Y019D02*
D03*
Y02D02*
D03*
Y021D02*
D03*
Y022D02*
D03*
Y023D02*
D03*
Y024D02*
D03*
X019311Y005D02*
D03*
Y006D02*
D03*
Y007D02*
D03*
Y008D02*
D03*
Y009D02*
D03*
Y01D02*
D03*
Y011D02*
D03*
Y012D02*
D03*
Y013D02*
D03*
Y014D02*
D03*
Y015D02*
D03*
Y016D02*
D03*
Y017D02*
D03*
Y018D02*
D03*
Y019D02*
D03*
Y02D02*
D03*
Y021D02*
D03*
Y022D02*
D03*
Y023D02*
D03*
Y024D02*
D03*
D89*
X034Y034D02*
D03*
X035Y032D02*
D03*
Y028D02*
D03*
X034Y026D02*
D03*
Y022D02*
D03*
X035Y02D02*
D03*
X034Y018D02*
D03*
X035Y012D02*
D03*
X034Y01D02*
D03*
X035Y008D02*
D03*
X034Y006D02*
D03*
X035Y004D02*
D03*
X034Y002D02*
D03*
X033Y036D02*
D03*
X032Y034D02*
D03*
X033Y032D02*
D03*
X032Y03D02*
D03*
X033Y028D02*
D03*
Y02D02*
D03*
X032Y014D02*
D03*
X03Y034D02*
D03*
X031Y032D02*
D03*
X03Y03D02*
D03*
Y026D02*
D03*
Y022D02*
D03*
X031Y02D02*
D03*
X03Y018D02*
D03*
X031Y016D02*
D03*
Y012D02*
D03*
X03Y006D02*
D03*
X031Y004D02*
D03*
X03Y002D02*
D03*
X029Y028D02*
D03*
X028Y022D02*
D03*
X029Y016D02*
D03*
X028Y014D02*
D03*
Y002D02*
D03*
X026Y034D02*
D03*
X027Y032D02*
D03*
X026Y03D02*
D03*
X027Y028D02*
D03*
Y024D02*
D03*
X026Y022D02*
D03*
X027Y02D02*
D03*
Y016D02*
D03*
X026Y014D02*
D03*
X027Y012D02*
D03*
X026Y002D02*
D03*
X024Y034D02*
D03*
Y03D02*
D03*
Y018D02*
D03*
Y014D02*
D03*
X023Y036D02*
D03*
Y024D02*
D03*
X022Y022D02*
D03*
X023Y02D02*
D03*
X022Y018D02*
D03*
Y014D02*
D03*
X021Y036D02*
D03*
X02Y034D02*
D03*
Y026D02*
D03*
Y018D02*
D03*
Y014D02*
D03*
Y01D02*
D03*
Y006D02*
D03*
X018Y026D02*
D03*
Y022D02*
D03*
Y018D02*
D03*
Y006D02*
D03*
X019Y004D02*
D03*
X018Y002D02*
D03*
X017Y036D02*
D03*
X016Y022D02*
D03*
X017Y004D02*
D03*
X015Y028D02*
D03*
Y024D02*
D03*
X014Y022D02*
D03*
X015Y02D02*
D03*
X014Y018D02*
D03*
X015Y016D02*
D03*
Y012D02*
D03*
X013Y028D02*
D03*
Y024D02*
D03*
Y02D02*
D03*
X012Y018D02*
D03*
X013Y016D02*
D03*
Y012D02*
D03*
Y008D02*
D03*
Y004D02*
D03*
X011Y036D02*
D03*
Y032D02*
D03*
Y028D02*
D03*
Y024D02*
D03*
Y016D02*
D03*
X01Y014D02*
D03*
X011Y012D02*
D03*
X01Y01D02*
D03*
X011Y008D02*
D03*
X01Y006D02*
D03*
X011Y004D02*
D03*
X008Y034D02*
D03*
X009Y032D02*
D03*
Y028D02*
D03*
X008Y022D02*
D03*
Y018D02*
D03*
X009Y016D02*
D03*
X008Y014D02*
D03*
X009Y012D02*
D03*
X008Y01D02*
D03*
X009Y008D02*
D03*
X008Y006D02*
D03*
X009Y004D02*
D03*
X007Y028D02*
D03*
X006Y022D02*
D03*
Y018D02*
D03*
X007Y016D02*
D03*
X006Y014D02*
D03*
X007Y012D02*
D03*
X006Y01D02*
D03*
X007Y008D02*
D03*
X006Y006D02*
D03*
X007Y004D02*
D03*
X006Y002D02*
D03*
X005Y036D02*
D03*
X004Y034D02*
D03*
X005Y028D02*
D03*
X004Y022D02*
D03*
X005Y02D02*
D03*
Y016D02*
D03*
X004Y014D02*
D03*
X005Y012D02*
D03*
X004Y01D02*
D03*
X005Y008D02*
D03*
X004Y006D02*
D03*
Y002D02*
D03*
X003Y036D02*
D03*
X002Y034D02*
D03*
X003Y032D02*
D03*
Y004D02*
D03*
X002Y002D02*
D03*
X01719Y01494D02*
D03*
X01624D02*
D03*
X01719Y009692D02*
D03*
X01624D02*
D03*
X015371Y0097D02*
D03*
X018011Y021D02*
D03*
D90*
X023116Y032642D02*
D03*
X021311Y034499D02*
D03*
Y032137D02*
D03*
X02255Y034499D02*
D03*
Y032137D02*
D03*
X021954Y032642D02*
D03*
X021311Y033295D02*
D03*
X02255D02*
D03*
X023116Y033945D02*
D03*
X021945D02*
D03*
X035842Y035968D02*
D03*
Y034518D02*
D03*
Y037318D02*
D03*
X035192Y036618D02*
D03*
Y035168D02*
D03*
X034492Y035968D02*
D03*
Y034518D02*
D03*
Y037318D02*
D03*
X033842Y036618D02*
D03*
Y035168D02*
D03*
X005739Y02462D02*
D03*
X007089D02*
D03*
X004434D02*
D03*
X006489Y025237D02*
D03*
X005025D02*
D03*
X006489Y02652D02*
D03*
X005025D02*
D03*
X007089Y02587D02*
D03*
X004399D02*
D03*
X005739D02*
D03*
D91*
X016Y00415D02*
D03*
X01295Y00205D02*
D03*
X00665Y00255D02*
D03*
X022811Y00545D02*
D03*
X022401D02*
D03*
X021927Y01195D02*
D03*
X02054Y020215D02*
D03*
X032066Y02379D02*
D03*
X021861Y017D02*
D03*
X029461Y010325D02*
D03*
X028911D02*
D03*
M02*
