G04*
G04 #@! TF.GenerationSoftware,Altium Limited,Altium Designer,19.1.1 (5)*
G04*
G04 Layer_Color=8388736*
%FSTAX24Y24*%
%MOIN*%
G70*
G01*
G75*
%ADD35R,0.0395X0.0454*%
%ADD36R,0.0454X0.0395*%
%ADD37R,0.0710X0.1084*%
%ADD38R,0.1458X0.2206*%
%ADD39R,0.0946X0.0651*%
%ADD40R,0.1084X0.0710*%
%ADD41R,0.0630X0.0580*%
%ADD42R,0.0580X0.0630*%
%ADD43R,0.0482X0.0930*%
%ADD44R,0.3360X0.2832*%
%ADD45R,0.0566X0.0832*%
%ADD46R,0.2206X0.1458*%
%ADD47R,0.0930X0.0501*%
%ADD48R,0.0832X0.4332*%
%ADD49R,0.2080X0.3360*%
%ADD50R,0.0930X0.0482*%
%ADD51R,0.2832X0.3360*%
%ADD52R,0.0832X0.0566*%
%ADD53C,0.1460*%
%ADD54R,0.0830X0.0730*%
%ADD55O,0.0830X0.0730*%
%ADD56O,0.0980X0.0730*%
%ADD57R,0.0980X0.0730*%
%ADD58O,0.0730X0.0980*%
%ADD59R,0.0730X0.0980*%
%ADD60R,0.0700X0.0700*%
%ADD61C,0.0700*%
%ADD62R,0.1080X0.1680*%
%ADD63R,0.1680X0.1080*%
%ADD64C,0.0671*%
%ADD65C,0.1017*%
%ADD66O,0.0680X0.0940*%
%ADD67C,0.0568*%
%ADD68R,0.0880X0.0680*%
%ADD69O,0.0880X0.0680*%
D35*
X014539Y00212D02*
D03*
X01509D02*
D03*
D36*
X01599Y002246D02*
D03*
Y001694D02*
D03*
D37*
X027197Y035711D02*
D03*
Y037089D02*
D03*
X015561Y024625D02*
D03*
Y026003D02*
D03*
X0182Y037589D02*
D03*
Y036211D02*
D03*
X009991Y032163D02*
D03*
Y033541D02*
D03*
D38*
X031016Y03059D02*
D03*
X027197D02*
D03*
D39*
X029047Y033883D02*
D03*
X027433D02*
D03*
X012018Y020335D02*
D03*
X010403D02*
D03*
X012893Y0375D02*
D03*
X014507D02*
D03*
D40*
X032414Y026433D02*
D03*
X031037D02*
D03*
X005776Y0189D02*
D03*
X004398D02*
D03*
D41*
X033426Y031083D02*
D03*
Y030183D02*
D03*
D42*
X035392Y03274D02*
D03*
X034492D02*
D03*
D43*
X004418Y021335D02*
D03*
X005087D02*
D03*
X005756D02*
D03*
X006426D02*
D03*
X007095D02*
D03*
D44*
X005756Y025537D02*
D03*
D45*
X007639Y026537D02*
D03*
X003873D02*
D03*
D46*
X011261Y026003D02*
D03*
Y022184D02*
D03*
X013894Y032134D02*
D03*
Y035953D02*
D03*
D47*
X03058Y037265D02*
D03*
Y036595D02*
D03*
Y035926D02*
D03*
Y035257D02*
D03*
Y034587D02*
D03*
D48*
X035783Y035926D02*
D03*
D49*
X034407D02*
D03*
D50*
X0181Y03465D02*
D03*
Y033981D02*
D03*
Y033311D02*
D03*
Y032642D02*
D03*
Y031973D02*
D03*
D51*
X022303Y033311D02*
D03*
D52*
X023303Y031429D02*
D03*
Y035194D02*
D03*
D53*
X0051Y001065D02*
D03*
X021854Y037475D02*
D03*
X03535Y0012D02*
D03*
D54*
X034976Y02288D02*
D03*
X02894D02*
D03*
X011706Y01178D02*
D03*
X014196Y011775D02*
D03*
D55*
X034976Y02389D02*
D03*
Y02487D02*
D03*
X02894D02*
D03*
Y02389D02*
D03*
X011706Y00979D02*
D03*
Y01077D02*
D03*
X014196Y009785D02*
D03*
Y010765D02*
D03*
X011656Y0174D02*
D03*
Y01639D02*
D03*
Y01541D02*
D03*
Y0144D02*
D03*
D56*
X011756Y00649D02*
D03*
Y00449D02*
D03*
Y00349D02*
D03*
Y00249D02*
D03*
Y00549D02*
D03*
Y00749D02*
D03*
X032136Y0183D02*
D03*
Y0213D02*
D03*
Y0203D02*
D03*
Y0193D02*
D03*
Y006D02*
D03*
Y008D02*
D03*
Y009D02*
D03*
Y01D02*
D03*
Y007D02*
D03*
Y005D02*
D03*
D57*
X011756Y00149D02*
D03*
X032136Y0223D02*
D03*
Y011D02*
D03*
D58*
X024445Y027094D02*
D03*
X021445D02*
D03*
X022445D02*
D03*
X023445D02*
D03*
D59*
X020445D02*
D03*
D60*
X017111Y007955D02*
D03*
D61*
Y002404D02*
D03*
D62*
X003691Y0073D02*
D03*
D63*
X001691Y0058D02*
D03*
Y0083D02*
D03*
D64*
X006206Y036462D02*
D03*
Y035477D02*
D03*
Y03469D02*
D03*
Y033706D02*
D03*
X007234Y036462D02*
D03*
Y035477D02*
D03*
Y03469D02*
D03*
Y033706D02*
D03*
D65*
X007372Y03767D02*
D03*
Y032497D02*
D03*
X005135D02*
D03*
Y03767D02*
D03*
D66*
X032066Y016165D02*
D03*
X033066D02*
D03*
X034061Y01615D02*
D03*
X035066Y016165D02*
D03*
X035056Y015135D02*
D03*
X034046Y015155D02*
D03*
X033056D02*
D03*
X032056D02*
D03*
X023956Y00154D02*
D03*
X022956D02*
D03*
X021961Y001555D02*
D03*
X020956Y00154D02*
D03*
X020966Y00257D02*
D03*
X021976Y00255D02*
D03*
X022966D02*
D03*
X023966D02*
D03*
D67*
X034976Y029183D02*
D03*
Y030183D02*
D03*
Y031183D02*
D03*
D68*
X025311Y005D02*
D03*
D69*
Y006D02*
D03*
Y007D02*
D03*
Y008D02*
D03*
Y009D02*
D03*
Y01D02*
D03*
Y011D02*
D03*
Y012D02*
D03*
Y013D02*
D03*
Y014D02*
D03*
Y015D02*
D03*
Y016D02*
D03*
Y017D02*
D03*
Y018D02*
D03*
Y019D02*
D03*
Y02D02*
D03*
Y021D02*
D03*
Y022D02*
D03*
Y023D02*
D03*
Y024D02*
D03*
X019311Y005D02*
D03*
Y006D02*
D03*
Y007D02*
D03*
Y008D02*
D03*
Y009D02*
D03*
Y01D02*
D03*
Y011D02*
D03*
Y012D02*
D03*
Y013D02*
D03*
Y014D02*
D03*
Y015D02*
D03*
Y016D02*
D03*
Y017D02*
D03*
Y018D02*
D03*
Y019D02*
D03*
Y02D02*
D03*
Y021D02*
D03*
Y022D02*
D03*
Y023D02*
D03*
Y024D02*
D03*
M02*
