M48
;Layer_Color=9474304
;FILE_FORMAT=2:4
INCH,LZ
;TYPE=PLATED
T1F00S00C0.0120
T2F00S00C0.0180
T3F00S00C0.0280
T4F00S00C0.0291
T5F00S00C0.0300
T6F00S00C0.0360
T7F00S00C0.0394
T8F00S00C0.0413
T9F00S00C0.0420
T11F00S00C0.1181
;TYPE=NON_PLATED
T12F00S00C0.0937
%
T01
X00665Y00255
X01295Y00205
X016Y00415
X022401Y00545
X022811
X021927Y01195
X028911Y010325
X029461
X032066Y02379
X02054Y020215
X021861Y017
T02
X002Y002
X004
X006
X007Y004
X009
X011
X013
Y008
X011
X009
X007
X005
X006Y01
X008
X01
X011Y012
X013
X015
X015371Y0097
X009Y012
X007
X005
X006Y014
X008
X01
X004
Y01
Y006
X006
X008
X01
X003Y004
X017
X019
X02Y006
X018
Y002
X026
X028
X03
X031Y004
X03Y006
X031Y012
X027
X028Y014
X026
X024
X022
X02
X01719Y01494
X01624
Y009692
X01719
X02Y01
X034
X035Y012
Y008
X034Y006
X035Y004
X034Y002
X032Y014
X034Y018
X035Y02
X033
X034Y022
Y026
X035Y028
X033
X032Y03
X03
X029Y028
X027
X026Y03
X024
X023Y024
X022Y022
X023Y02
X024Y018
X022
X02
X018
X018011Y021
X018Y022
X016
X018Y026
X02
X027Y024
X028Y022
X03
X031Y02
X03Y018
X031Y016
X029
X027
Y02
X026Y022
X03Y026
X015Y028
X013
X011
X009
X007
X005
X006Y022
X008
Y018
X006
X007Y016
X009
X011
X013
X015
X014Y018
X012
X013Y02
X015
X014Y022
X015Y024
X013
X011
X004Y022
X005Y02
Y016
X003Y032
X004Y034
X002
X003Y036
X005
X008Y034
X009Y032
X011
Y036
X017
X021
X023
X024Y034
X026
X027Y032
X031
X03Y034
X02
X032
X034
X035Y032
X033
Y036
T03
X004434Y02462
X005025Y025237
X004399Y02587
X005025Y02652
X005739Y02587
Y02462
X007089
X006489Y025237
X007089Y02587
X006489Y02652
X021311Y032137
X021954Y032642
X02255Y032137
X023116Y032642
X02255Y033295
Y034499
X023116Y033945
X021945
X021311Y034499
Y033295
X034492Y034518
X033842Y035168
X035192
X035842Y034518
Y035968
X035192Y036618
X035842Y037318
X034492
Y035968
X033842Y036618
T04
X034976Y029183
Y030183
Y031183
T05
X019311Y005
Y006
Y007
Y008
Y009
Y01
Y011
Y012
Y013
Y014
Y015
X025311
Y014
Y013
Y012
Y011
Y01
Y009
Y008
Y007
Y006
Y005
Y016
Y017
Y018
Y019
Y02
Y021
Y022
Y023
Y024
X019311
Y023
Y022
Y021
Y02
Y019
Y018
Y017
Y016
T06
X011706Y00979
Y01077
Y01178
X014196Y011775
Y010765
Y009785
X011656Y0144
Y01541
X020966Y00257
X021976Y00255
X022966
X023966
X023956Y00154
X022956
X021961Y001555
X020956Y00154
X032056Y015155
X033056
X034046
X035056Y015135
X035066Y016165
X034061Y01615
X033066Y016165
X032066
X032136Y0183
Y0193
Y0203
Y0213
Y0223
X034976Y02288
Y02389
Y02487
X02894
Y02389
Y02288
X024445Y027094
X023445
X022445
X021445
X020445
X011656Y0174
Y01639
T07
X006206Y033706
Y03469
Y035477
Y036462
X007234
Y035477
Y03469
Y033706
T08
X017111Y002404
Y007955
T09
X011756Y00149
Y00249
Y00349
Y00449
Y00549
Y00649
Y00749
X032136Y007
Y006
Y005
Y008
Y009
Y01
Y011
T11
X0051Y001065
X03535Y0012
X021854Y037475
T12
X005135Y032497
X007372
Y03767
X005135
M30
