G04*
G04 #@! TF.GenerationSoftware,Altium Limited,Altium Designer,19.1.1 (5)*
G04*
G04 Layer_Color=128*
%FSTAX24Y24*%
%MOIN*%
G70*
G01*
G75*
%ADD94C,0.0020*%
D94*
X004509Y001065D02*
X005691D01*
X0051Y000474D02*
Y001655D01*
X021263Y037475D02*
X022444D01*
X021854Y036885D02*
Y038066D01*
X03476Y0012D02*
X03594D01*
X03535Y000609D02*
Y00179D01*
X034796Y02288D02*
X035156D01*
X034976Y0227D02*
Y02306D01*
X034796Y02389D02*
X035156D01*
X034976Y02371D02*
Y02407D01*
X034796Y02487D02*
X035156D01*
X034976Y02469D02*
Y02505D01*
X02876Y02487D02*
X02912D01*
X02894Y02469D02*
Y02505D01*
X02876Y02389D02*
X02912D01*
X02894Y02371D02*
Y02407D01*
X02876Y02288D02*
X02912D01*
X02894Y0227D02*
Y02306D01*
X011546Y00649D02*
X011966D01*
X011756Y00628D02*
Y0067D01*
X011546Y00449D02*
X011966D01*
X011756Y00428D02*
Y0047D01*
X011546Y00349D02*
X011966D01*
X011756Y00328D02*
Y0037D01*
X011546Y00249D02*
X011966D01*
X011756Y00228D02*
Y0027D01*
X011546Y00149D02*
X011966D01*
X011756Y00128D02*
Y0017D01*
X011546Y00549D02*
X011966D01*
X011756Y00528D02*
Y0057D01*
X011546Y00749D02*
X011966D01*
X011756Y00728D02*
Y0077D01*
X024265Y027094D02*
X024625D01*
X024445Y026914D02*
Y027274D01*
X020265Y027094D02*
X020625D01*
X020445Y026914D02*
Y027274D01*
X021265Y027094D02*
X021625D01*
X021445Y026914D02*
Y027274D01*
X022265Y027094D02*
X022625D01*
X022445Y026914D02*
Y027274D01*
X023265Y027094D02*
X023625D01*
X023445Y026914D02*
Y027274D01*
X031956Y0183D02*
X032316D01*
X032136Y01812D02*
Y01848D01*
X031956Y0223D02*
X032316D01*
X032136Y02212D02*
Y02248D01*
X031956Y0213D02*
X032316D01*
X032136Y02112D02*
Y02148D01*
X031956Y0203D02*
X032316D01*
X032136Y02012D02*
Y02048D01*
X031956Y0193D02*
X032316D01*
X032136Y01912D02*
Y01948D01*
X016904Y007955D02*
X017317D01*
X017111Y007748D02*
Y008162D01*
X016904Y002404D02*
X017317D01*
X017111Y002197D02*
Y00261D01*
X031926Y006D02*
X032346D01*
X032136Y00579D02*
Y00621D01*
X031926Y008D02*
X032346D01*
X032136Y00779D02*
Y00821D01*
X031926Y009D02*
X032346D01*
X032136Y00879D02*
Y00921D01*
X031926Y01D02*
X032346D01*
X032136Y00979D02*
Y01021D01*
X031926Y011D02*
X032346D01*
X032136Y01079D02*
Y01121D01*
X031926Y007D02*
X032346D01*
X032136Y00679D02*
Y00721D01*
X031926Y005D02*
X032346D01*
X032136Y00479D02*
Y00521D01*
X003441Y0073D02*
X003941D01*
X003691Y00705D02*
Y00755D01*
X001441Y0058D02*
X001941D01*
X001691Y00555D02*
Y00605D01*
X001441Y0083D02*
X001941D01*
X001691Y00805D02*
Y00855D01*
X006009Y036462D02*
X006403D01*
X006206Y036265D02*
Y036658D01*
X006009Y035477D02*
X006403D01*
X006206Y035281D02*
Y035674D01*
X006009Y03469D02*
X006403D01*
X006206Y034493D02*
Y034887D01*
X006009Y033706D02*
X006403D01*
X006206Y033509D02*
Y033903D01*
X007037Y036462D02*
X007431D01*
X007234Y036265D02*
Y036658D01*
X007037Y035477D02*
X007431D01*
X007234Y035281D02*
Y035674D01*
X007037Y03469D02*
X007431D01*
X007234Y034493D02*
Y034887D01*
X007037Y033706D02*
X007431D01*
X007234Y033509D02*
Y033903D01*
X006903Y03767D02*
X00784D01*
X007372Y037202D02*
Y038139D01*
X006903Y032497D02*
X00784D01*
X007372Y032029D02*
Y032966D01*
X004667Y032497D02*
X005604D01*
X005135Y032029D02*
Y032966D01*
X004667Y03767D02*
X005604D01*
X005135Y037202D02*
Y038139D01*
X031886Y016165D02*
X032246D01*
X032066Y015985D02*
Y016345D01*
X032886Y016165D02*
X033246D01*
X033066Y015985D02*
Y016345D01*
X033881Y01615D02*
X034241D01*
X034061Y01597D02*
Y01633D01*
X034886Y016165D02*
X035246D01*
X035066Y015985D02*
Y016345D01*
X034876Y015135D02*
X035236D01*
X035056Y014955D02*
Y015315D01*
X033866Y015155D02*
X034226D01*
X034046Y014975D02*
Y015335D01*
X032876Y015155D02*
X033236D01*
X033056Y014975D02*
Y015335D01*
X031876Y015155D02*
X032236D01*
X032056Y014975D02*
Y015335D01*
X03483Y029183D02*
X035121D01*
X034976Y029037D02*
Y029329D01*
X03483Y030183D02*
X035121D01*
X034976Y030037D02*
Y030329D01*
X03483Y031183D02*
X035121D01*
X034976Y031037D02*
Y031329D01*
X023776Y00154D02*
X024136D01*
X023956Y00136D02*
Y00172D01*
X022776Y00154D02*
X023136D01*
X022956Y00136D02*
Y00172D01*
X021781Y001555D02*
X022141D01*
X021961Y001375D02*
Y001735D01*
X020776Y00154D02*
X021136D01*
X020956Y00136D02*
Y00172D01*
X020786Y00257D02*
X021146D01*
X020966Y00239D02*
Y00275D01*
X021796Y00255D02*
X022156D01*
X021976Y00237D02*
Y00273D01*
X022786Y00255D02*
X023146D01*
X022966Y00237D02*
Y00273D01*
X023786Y00255D02*
X024146D01*
X023966Y00237D02*
Y00273D01*
X025161Y005D02*
X025461D01*
X025311Y00485D02*
Y00515D01*
X025161Y006D02*
X025461D01*
X025311Y00585D02*
Y00615D01*
X025161Y007D02*
X025461D01*
X025311Y00685D02*
Y00715D01*
X025161Y008D02*
X025461D01*
X025311Y00785D02*
Y00815D01*
X025161Y009D02*
X025461D01*
X025311Y00885D02*
Y00915D01*
X025161Y01D02*
X025461D01*
X025311Y00985D02*
Y01015D01*
X025161Y011D02*
X025461D01*
X025311Y01085D02*
Y01115D01*
X025161Y012D02*
X025461D01*
X025311Y01185D02*
Y01215D01*
X025161Y013D02*
X025461D01*
X025311Y01285D02*
Y01315D01*
X025161Y014D02*
X025461D01*
X025311Y01385D02*
Y01415D01*
X025161Y015D02*
X025461D01*
X025311Y01485D02*
Y01515D01*
X025161Y016D02*
X025461D01*
X025311Y01585D02*
Y01615D01*
X025161Y017D02*
X025461D01*
X025311Y01685D02*
Y01715D01*
X025161Y018D02*
X025461D01*
X025311Y01785D02*
Y01815D01*
X025161Y019D02*
X025461D01*
X025311Y01885D02*
Y01915D01*
X025161Y02D02*
X025461D01*
X025311Y01985D02*
Y02015D01*
X025161Y021D02*
X025461D01*
X025311Y02085D02*
Y02115D01*
X025161Y022D02*
X025461D01*
X025311Y02185D02*
Y02215D01*
X025161Y023D02*
X025461D01*
X025311Y02285D02*
Y02315D01*
X025161Y024D02*
X025461D01*
X025311Y02385D02*
Y02415D01*
X019161Y005D02*
X019461D01*
X019311Y00485D02*
Y00515D01*
X019161Y006D02*
X019461D01*
X019311Y00585D02*
Y00615D01*
X019161Y007D02*
X019461D01*
X019311Y00685D02*
Y00715D01*
X019161Y008D02*
X019461D01*
X019311Y00785D02*
Y00815D01*
X019161Y009D02*
X019461D01*
X019311Y00885D02*
Y00915D01*
X019161Y01D02*
X019461D01*
X019311Y00985D02*
Y01015D01*
X019161Y011D02*
X019461D01*
X019311Y01085D02*
Y01115D01*
X019161Y012D02*
X019461D01*
X019311Y01185D02*
Y01215D01*
X019161Y013D02*
X019461D01*
X019311Y01285D02*
Y01315D01*
X019161Y014D02*
X019461D01*
X019311Y01385D02*
Y01415D01*
X019161Y015D02*
X019461D01*
X019311Y01485D02*
Y01515D01*
X019161Y016D02*
X019461D01*
X019311Y01585D02*
Y01615D01*
X019161Y017D02*
X019461D01*
X019311Y01685D02*
Y01715D01*
X019161Y018D02*
X019461D01*
X019311Y01785D02*
Y01815D01*
X019161Y019D02*
X019461D01*
X019311Y01885D02*
Y01915D01*
X019161Y02D02*
X019461D01*
X019311Y01985D02*
Y02015D01*
X019161Y021D02*
X019461D01*
X019311Y02085D02*
Y02115D01*
X019161Y022D02*
X019461D01*
X019311Y02185D02*
Y02215D01*
X019161Y023D02*
X019461D01*
X019311Y02285D02*
Y02315D01*
X019161Y024D02*
X019461D01*
X019311Y02385D02*
Y02415D01*
X011526Y00979D02*
X011886D01*
X011706Y00961D02*
Y00997D01*
X011526Y01077D02*
X011886D01*
X011706Y01059D02*
Y01095D01*
X011526Y01178D02*
X011886D01*
X011706Y0116D02*
Y01196D01*
X014016Y009785D02*
X014376D01*
X014196Y009605D02*
Y009965D01*
X014016Y010765D02*
X014376D01*
X014196Y010585D02*
Y010945D01*
X014016Y011775D02*
X014376D01*
X014196Y011595D02*
Y011955D01*
X011476Y0174D02*
X011836D01*
X011656Y01722D02*
Y01758D01*
X011476Y01639D02*
X011836D01*
X011656Y01621D02*
Y01657D01*
X011476Y01541D02*
X011836D01*
X011656Y01523D02*
Y01559D01*
X011476Y0144D02*
X011836D01*
X011656Y01422D02*
Y01458D01*
X03391Y034D02*
X03409D01*
X034Y03391D02*
Y03409D01*
X03491Y032D02*
X03509D01*
X035Y03191D02*
Y03209D01*
X03491Y028D02*
X03509D01*
X035Y02791D02*
Y02809D01*
X03391Y026D02*
X03409D01*
X034Y02591D02*
Y02609D01*
X03391Y022D02*
X03409D01*
X034Y02191D02*
Y02209D01*
X03491Y02D02*
X03509D01*
X035Y01991D02*
Y02009D01*
X03391Y018D02*
X03409D01*
X034Y01791D02*
Y01809D01*
X03491Y012D02*
X03509D01*
X035Y01191D02*
Y01209D01*
X03391Y01D02*
X03409D01*
X034Y00991D02*
Y01009D01*
X03491Y008D02*
X03509D01*
X035Y00791D02*
Y00809D01*
X03391Y006D02*
X03409D01*
X034Y00591D02*
Y00609D01*
X03491Y004D02*
X03509D01*
X035Y00391D02*
Y00409D01*
X03391Y002D02*
X03409D01*
X034Y00191D02*
Y00209D01*
X03291Y036D02*
X03309D01*
X033Y03591D02*
Y03609D01*
X03191Y034D02*
X03209D01*
X032Y03391D02*
Y03409D01*
X03291Y032D02*
X03309D01*
X033Y03191D02*
Y03209D01*
X03191Y03D02*
X03209D01*
X032Y02991D02*
Y03009D01*
X03291Y028D02*
X03309D01*
X033Y02791D02*
Y02809D01*
X03291Y02D02*
X03309D01*
X033Y01991D02*
Y02009D01*
X03191Y014D02*
X03209D01*
X032Y01391D02*
Y01409D01*
X02991Y034D02*
X03009D01*
X03Y03391D02*
Y03409D01*
X03091Y032D02*
X03109D01*
X031Y03191D02*
Y03209D01*
X02991Y03D02*
X03009D01*
X03Y02991D02*
Y03009D01*
X02991Y026D02*
X03009D01*
X03Y02591D02*
Y02609D01*
X02991Y022D02*
X03009D01*
X03Y02191D02*
Y02209D01*
X03091Y02D02*
X03109D01*
X031Y01991D02*
Y02009D01*
X02991Y018D02*
X03009D01*
X03Y01791D02*
Y01809D01*
X03091Y016D02*
X03109D01*
X031Y01591D02*
Y01609D01*
X03091Y012D02*
X03109D01*
X031Y01191D02*
Y01209D01*
X02991Y006D02*
X03009D01*
X03Y00591D02*
Y00609D01*
X03091Y004D02*
X03109D01*
X031Y00391D02*
Y00409D01*
X02991Y002D02*
X03009D01*
X03Y00191D02*
Y00209D01*
X02891Y028D02*
X02909D01*
X029Y02791D02*
Y02809D01*
X02791Y022D02*
X02809D01*
X028Y02191D02*
Y02209D01*
X02891Y016D02*
X02909D01*
X029Y01591D02*
Y01609D01*
X02791Y014D02*
X02809D01*
X028Y01391D02*
Y01409D01*
X02791Y002D02*
X02809D01*
X028Y00191D02*
Y00209D01*
X02591Y034D02*
X02609D01*
X026Y03391D02*
Y03409D01*
X02691Y032D02*
X02709D01*
X027Y03191D02*
Y03209D01*
X02591Y03D02*
X02609D01*
X026Y02991D02*
Y03009D01*
X02691Y028D02*
X02709D01*
X027Y02791D02*
Y02809D01*
X02691Y024D02*
X02709D01*
X027Y02391D02*
Y02409D01*
X02591Y022D02*
X02609D01*
X026Y02191D02*
Y02209D01*
X02691Y02D02*
X02709D01*
X027Y01991D02*
Y02009D01*
X02691Y016D02*
X02709D01*
X027Y01591D02*
Y01609D01*
X02591Y014D02*
X02609D01*
X026Y01391D02*
Y01409D01*
X02691Y012D02*
X02709D01*
X027Y01191D02*
Y01209D01*
X02591Y002D02*
X02609D01*
X026Y00191D02*
Y00209D01*
X02391Y034D02*
X02409D01*
X024Y03391D02*
Y03409D01*
X02391Y03D02*
X02409D01*
X024Y02991D02*
Y03009D01*
X02391Y018D02*
X02409D01*
X024Y01791D02*
Y01809D01*
X02391Y014D02*
X02409D01*
X024Y01391D02*
Y01409D01*
X02291Y036D02*
X02309D01*
X023Y03591D02*
Y03609D01*
X02291Y024D02*
X02309D01*
X023Y02391D02*
Y02409D01*
X02191Y022D02*
X02209D01*
X022Y02191D02*
Y02209D01*
X02291Y02D02*
X02309D01*
X023Y01991D02*
Y02009D01*
X02191Y018D02*
X02209D01*
X022Y01791D02*
Y01809D01*
X02191Y014D02*
X02209D01*
X022Y01391D02*
Y01409D01*
X02091Y036D02*
X02109D01*
X021Y03591D02*
Y03609D01*
X01991Y034D02*
X02009D01*
X02Y03391D02*
Y03409D01*
X01991Y026D02*
X02009D01*
X02Y02591D02*
Y02609D01*
X01991Y018D02*
X02009D01*
X02Y01791D02*
Y01809D01*
X01991Y014D02*
X02009D01*
X02Y01391D02*
Y01409D01*
X01991Y01D02*
X02009D01*
X02Y00991D02*
Y01009D01*
X01991Y006D02*
X02009D01*
X02Y00591D02*
Y00609D01*
X01791Y026D02*
X01809D01*
X018Y02591D02*
Y02609D01*
X01791Y022D02*
X01809D01*
X018Y02191D02*
Y02209D01*
X01791Y018D02*
X01809D01*
X018Y01791D02*
Y01809D01*
X01791Y006D02*
X01809D01*
X018Y00591D02*
Y00609D01*
X01891Y004D02*
X01909D01*
X019Y00391D02*
Y00409D01*
X01791Y002D02*
X01809D01*
X018Y00191D02*
Y00209D01*
X01691Y036D02*
X01709D01*
X017Y03591D02*
Y03609D01*
X01591Y022D02*
X01609D01*
X016Y02191D02*
Y02209D01*
X01691Y004D02*
X01709D01*
X017Y00391D02*
Y00409D01*
X01491Y028D02*
X01509D01*
X015Y02791D02*
Y02809D01*
X01491Y024D02*
X01509D01*
X015Y02391D02*
Y02409D01*
X01391Y022D02*
X01409D01*
X014Y02191D02*
Y02209D01*
X01491Y02D02*
X01509D01*
X015Y01991D02*
Y02009D01*
X01391Y018D02*
X01409D01*
X014Y01791D02*
Y01809D01*
X01491Y016D02*
X01509D01*
X015Y01591D02*
Y01609D01*
X01491Y012D02*
X01509D01*
X015Y01191D02*
Y01209D01*
X01291Y028D02*
X01309D01*
X013Y02791D02*
Y02809D01*
X01291Y024D02*
X01309D01*
X013Y02391D02*
Y02409D01*
X01291Y02D02*
X01309D01*
X013Y01991D02*
Y02009D01*
X01191Y018D02*
X01209D01*
X012Y01791D02*
Y01809D01*
X01291Y016D02*
X01309D01*
X013Y01591D02*
Y01609D01*
X01291Y012D02*
X01309D01*
X013Y01191D02*
Y01209D01*
X01291Y008D02*
X01309D01*
X013Y00791D02*
Y00809D01*
X01291Y004D02*
X01309D01*
X013Y00391D02*
Y00409D01*
X01091Y036D02*
X01109D01*
X011Y03591D02*
Y03609D01*
X01091Y032D02*
X01109D01*
X011Y03191D02*
Y03209D01*
X01091Y028D02*
X01109D01*
X011Y02791D02*
Y02809D01*
X01091Y024D02*
X01109D01*
X011Y02391D02*
Y02409D01*
X01091Y016D02*
X01109D01*
X011Y01591D02*
Y01609D01*
X00991Y014D02*
X01009D01*
X01Y01391D02*
Y01409D01*
X01091Y012D02*
X01109D01*
X011Y01191D02*
Y01209D01*
X00991Y01D02*
X01009D01*
X01Y00991D02*
Y01009D01*
X01091Y008D02*
X01109D01*
X011Y00791D02*
Y00809D01*
X00991Y006D02*
X01009D01*
X01Y00591D02*
Y00609D01*
X01091Y004D02*
X01109D01*
X011Y00391D02*
Y00409D01*
X00791Y034D02*
X00809D01*
X008Y03391D02*
Y03409D01*
X00891Y032D02*
X00909D01*
X009Y03191D02*
Y03209D01*
X00891Y028D02*
X00909D01*
X009Y02791D02*
Y02809D01*
X00791Y022D02*
X00809D01*
X008Y02191D02*
Y02209D01*
X00791Y018D02*
X00809D01*
X008Y01791D02*
Y01809D01*
X00891Y016D02*
X00909D01*
X009Y01591D02*
Y01609D01*
X00791Y014D02*
X00809D01*
X008Y01391D02*
Y01409D01*
X00891Y012D02*
X00909D01*
X009Y01191D02*
Y01209D01*
X00791Y01D02*
X00809D01*
X008Y00991D02*
Y01009D01*
X00891Y008D02*
X00909D01*
X009Y00791D02*
Y00809D01*
X00791Y006D02*
X00809D01*
X008Y00591D02*
Y00609D01*
X00891Y004D02*
X00909D01*
X009Y00391D02*
Y00409D01*
X00691Y028D02*
X00709D01*
X007Y02791D02*
Y02809D01*
X00591Y022D02*
X00609D01*
X006Y02191D02*
Y02209D01*
X00591Y018D02*
X00609D01*
X006Y01791D02*
Y01809D01*
X00691Y016D02*
X00709D01*
X007Y01591D02*
Y01609D01*
X00591Y014D02*
X00609D01*
X006Y01391D02*
Y01409D01*
X00691Y012D02*
X00709D01*
X007Y01191D02*
Y01209D01*
X00591Y01D02*
X00609D01*
X006Y00991D02*
Y01009D01*
X00691Y008D02*
X00709D01*
X007Y00791D02*
Y00809D01*
X00591Y006D02*
X00609D01*
X006Y00591D02*
Y00609D01*
X00691Y004D02*
X00709D01*
X007Y00391D02*
Y00409D01*
X00591Y002D02*
X00609D01*
X006Y00191D02*
Y00209D01*
X00491Y036D02*
X00509D01*
X005Y03591D02*
Y03609D01*
X00391Y034D02*
X00409D01*
X004Y03391D02*
Y03409D01*
X00491Y028D02*
X00509D01*
X005Y02791D02*
Y02809D01*
X00391Y022D02*
X00409D01*
X004Y02191D02*
Y02209D01*
X00491Y02D02*
X00509D01*
X005Y01991D02*
Y02009D01*
X00491Y016D02*
X00509D01*
X005Y01591D02*
Y01609D01*
X00391Y014D02*
X00409D01*
X004Y01391D02*
Y01409D01*
X00491Y012D02*
X00509D01*
X005Y01191D02*
Y01209D01*
X00391Y01D02*
X00409D01*
X004Y00991D02*
Y01009D01*
X00491Y008D02*
X00509D01*
X005Y00791D02*
Y00809D01*
X00391Y006D02*
X00409D01*
X004Y00591D02*
Y00609D01*
X00391Y002D02*
X00409D01*
X004Y00191D02*
Y00209D01*
X00291Y036D02*
X00309D01*
X003Y03591D02*
Y03609D01*
X00191Y034D02*
X00209D01*
X002Y03391D02*
Y03409D01*
X00291Y032D02*
X00309D01*
X003Y03191D02*
Y03209D01*
X00291Y004D02*
X00309D01*
X003Y00391D02*
Y00409D01*
X00191Y002D02*
X00209D01*
X002Y00191D02*
Y00209D01*
X022976Y032642D02*
X023256D01*
X023116Y032502D02*
Y032782D01*
X021171Y034499D02*
X021451D01*
X021311Y034359D02*
Y034639D01*
X021171Y032137D02*
X021451D01*
X021311Y031997D02*
Y032277D01*
X02241Y034499D02*
X02269D01*
X02255Y034359D02*
Y034639D01*
X02241Y032137D02*
X02269D01*
X02255Y031997D02*
Y032277D01*
X021814Y032642D02*
X022094D01*
X021954Y032502D02*
Y032782D01*
X021171Y033295D02*
X021451D01*
X021311Y033155D02*
Y033435D01*
X02241Y033295D02*
X02269D01*
X02255Y033155D02*
Y033435D01*
X022976Y033945D02*
X023256D01*
X023116Y033805D02*
Y034085D01*
X021805Y033945D02*
X022085D01*
X021945Y033805D02*
Y034085D01*
X01594Y00415D02*
X01606D01*
X016Y00409D02*
Y00421D01*
X01289Y00205D02*
X01301D01*
X01295Y00199D02*
Y00211D01*
X00659Y00255D02*
X00671D01*
X00665Y00249D02*
Y00261D01*
X022751Y00545D02*
X022871D01*
X022811Y00539D02*
Y00551D01*
X022341Y00545D02*
X022461D01*
X022401Y00539D02*
Y00551D01*
X021867Y01195D02*
X021987D01*
X021927Y01189D02*
Y01201D01*
X035702Y035968D02*
X035982D01*
X035842Y035828D02*
Y036108D01*
X035702Y034518D02*
X035982D01*
X035842Y034378D02*
Y034658D01*
X035702Y037318D02*
X035982D01*
X035842Y037178D02*
Y037458D01*
X035052Y036618D02*
X035332D01*
X035192Y036478D02*
Y036758D01*
X035052Y035168D02*
X035332D01*
X035192Y035028D02*
Y035308D01*
X034352Y035968D02*
X034632D01*
X034492Y035828D02*
Y036108D01*
X034352Y034518D02*
X034632D01*
X034492Y034378D02*
Y034658D01*
X034352Y037318D02*
X034632D01*
X034492Y037178D02*
Y037458D01*
X033702Y036618D02*
X033982D01*
X033842Y036478D02*
Y036758D01*
X033702Y035168D02*
X033982D01*
X033842Y035028D02*
Y035308D01*
X0171Y01494D02*
X01728D01*
X01719Y01485D02*
Y01503D01*
X01615Y01494D02*
X01633D01*
X01624Y01485D02*
Y01503D01*
X0171Y009692D02*
X01728D01*
X01719Y009602D02*
Y009782D01*
X01615Y009692D02*
X01633D01*
X01624Y009602D02*
Y009782D01*
X02048Y020215D02*
X0206D01*
X02054Y020155D02*
Y020275D01*
X032006Y02379D02*
X032126D01*
X032066Y02373D02*
Y02385D01*
X015281Y0097D02*
X015461D01*
X015371Y00961D02*
Y00979D01*
X021801Y017D02*
X021921D01*
X021861Y01694D02*
Y01706D01*
X005599Y02462D02*
X005879D01*
X005739Y02448D02*
Y02476D01*
X006949Y02462D02*
X007229D01*
X007089Y02448D02*
Y02476D01*
X004294Y02462D02*
X004574D01*
X004434Y02448D02*
Y02476D01*
X006349Y025237D02*
X006629D01*
X006489Y025097D02*
Y025377D01*
X004885Y025237D02*
X005165D01*
X005025Y025097D02*
Y025377D01*
X006349Y02652D02*
X006629D01*
X006489Y02638D02*
Y02666D01*
X004885Y02652D02*
X005165D01*
X005025Y02638D02*
Y02666D01*
X006949Y02587D02*
X007229D01*
X007089Y02573D02*
Y02601D01*
X004259Y02587D02*
X004539D01*
X004399Y02573D02*
Y02601D01*
X005599Y02587D02*
X005879D01*
X005739Y02573D02*
Y02601D01*
X029401Y010325D02*
X029521D01*
X029461Y010265D02*
Y010385D01*
X028851Y010325D02*
X028971D01*
X028911Y010265D02*
Y010385D01*
X017921Y021D02*
X018101D01*
X018011Y02091D02*
Y02109D01*
M02*
