G04*
G04 #@! TF.GenerationSoftware,Altium Limited,Altium Designer,19.1.1 (5)*
G04*
G04 Layer_Color=255*
%FSTAX24Y24*%
%MOIN*%
G70*
G01*
G75*
%ADD72C,0.1380*%
%ADD73R,0.0750X0.0650*%
%ADD74O,0.0750X0.0650*%
%ADD75O,0.0900X0.0650*%
%ADD76R,0.0900X0.0650*%
%ADD77O,0.0650X0.0900*%
%ADD78R,0.0650X0.0900*%
%ADD79R,0.0620X0.0620*%
%ADD80C,0.0620*%
%ADD81R,0.1000X0.1600*%
%ADD82R,0.1600X0.1000*%
%ADD83C,0.0591*%
%ADD84C,0.0937*%
%ADD85O,0.0600X0.0860*%
%ADD86C,0.0488*%
%ADD87R,0.0800X0.0600*%
%ADD88O,0.0800X0.0600*%
D72*
X0051Y001065D02*
D03*
X021854Y037475D02*
D03*
X03535Y0012D02*
D03*
D73*
X034976Y02288D02*
D03*
X02894D02*
D03*
X011706Y01178D02*
D03*
X014196Y011775D02*
D03*
D74*
X034976Y02389D02*
D03*
Y02487D02*
D03*
X02894D02*
D03*
Y02389D02*
D03*
X011706Y00979D02*
D03*
Y01077D02*
D03*
X014196Y009785D02*
D03*
Y010765D02*
D03*
X011656Y0174D02*
D03*
Y01639D02*
D03*
Y01541D02*
D03*
Y0144D02*
D03*
D75*
X011756Y00649D02*
D03*
Y00449D02*
D03*
Y00349D02*
D03*
Y00249D02*
D03*
Y00549D02*
D03*
Y00749D02*
D03*
X032136Y0183D02*
D03*
Y0213D02*
D03*
Y0203D02*
D03*
Y0193D02*
D03*
Y006D02*
D03*
Y008D02*
D03*
Y009D02*
D03*
Y01D02*
D03*
Y007D02*
D03*
Y005D02*
D03*
D76*
X011756Y00149D02*
D03*
X032136Y0223D02*
D03*
Y011D02*
D03*
D77*
X024445Y027094D02*
D03*
X021445D02*
D03*
X022445D02*
D03*
X023445D02*
D03*
D78*
X020445D02*
D03*
D79*
X017111Y007955D02*
D03*
D80*
Y002404D02*
D03*
D81*
X003691Y0073D02*
D03*
D82*
X001691Y0058D02*
D03*
Y0083D02*
D03*
D83*
X006206Y036462D02*
D03*
Y035477D02*
D03*
Y03469D02*
D03*
Y033706D02*
D03*
X007234Y036462D02*
D03*
Y035477D02*
D03*
Y03469D02*
D03*
Y033706D02*
D03*
D84*
X007372Y03767D02*
D03*
Y032497D02*
D03*
X005135D02*
D03*
Y03767D02*
D03*
D85*
X032066Y016165D02*
D03*
X033066D02*
D03*
X034061Y01615D02*
D03*
X035066Y016165D02*
D03*
X035056Y015135D02*
D03*
X034046Y015155D02*
D03*
X033056D02*
D03*
X032056D02*
D03*
X023956Y00154D02*
D03*
X022956D02*
D03*
X021961Y001555D02*
D03*
X020956Y00154D02*
D03*
X020966Y00257D02*
D03*
X021976Y00255D02*
D03*
X022966D02*
D03*
X023966D02*
D03*
D86*
X034976Y029183D02*
D03*
Y030183D02*
D03*
Y031183D02*
D03*
D87*
X025311Y005D02*
D03*
D88*
Y006D02*
D03*
Y007D02*
D03*
Y008D02*
D03*
Y009D02*
D03*
Y01D02*
D03*
Y011D02*
D03*
Y012D02*
D03*
Y013D02*
D03*
Y014D02*
D03*
Y015D02*
D03*
Y016D02*
D03*
Y017D02*
D03*
Y018D02*
D03*
Y019D02*
D03*
Y02D02*
D03*
Y021D02*
D03*
Y022D02*
D03*
Y023D02*
D03*
Y024D02*
D03*
X019311Y005D02*
D03*
Y006D02*
D03*
Y007D02*
D03*
Y008D02*
D03*
Y009D02*
D03*
Y01D02*
D03*
Y011D02*
D03*
Y012D02*
D03*
Y013D02*
D03*
Y014D02*
D03*
Y015D02*
D03*
Y016D02*
D03*
Y017D02*
D03*
Y018D02*
D03*
Y019D02*
D03*
Y02D02*
D03*
Y021D02*
D03*
Y022D02*
D03*
Y023D02*
D03*
Y024D02*
D03*
M02*
