G04*
G04 #@! TF.GenerationSoftware,Altium Limited,Altium Designer,19.1.1 (5)*
G04*
G04 Layer_Color=16711935*
%FSTAX24Y24*%
%MOIN*%
G70*
G01*
G75*
%ADD11C,0.0079*%
%ADD16C,0.0039*%
D11*
X0079Y032623D02*
Y037544D01*
X001088Y032623D02*
X0079D01*
X001088D02*
Y037544D01*
X0079D01*
X034027Y028307D02*
Y032059D01*
X035924D01*
Y028307D02*
Y032059D01*
X034027Y028307D02*
X035924D01*
X007756Y022839D02*
Y026241D01*
X003756Y022839D02*
X007756D01*
X003756D02*
Y026241D01*
X007756D01*
X032268Y033926D02*
X03567D01*
X032268D02*
Y037926D01*
X03567D01*
Y033926D02*
Y037926D01*
X019604Y031311D02*
X023006D01*
X019604D02*
Y035311D01*
X023006D01*
Y031311D02*
Y035311D01*
D16*
X017578Y004268D02*
Y006091D01*
X016643Y004268D02*
X017578D01*
X016643D02*
Y006091D01*
X017578D01*
X017111D02*
X017578Y005623D01*
X017111Y006091D02*
Y007955D01*
Y002404D02*
Y004268D01*
X01448Y001943D02*
Y002297D01*
X015149Y001943D02*
Y002297D01*
X01448D02*
X015149D01*
X01448Y001943D02*
X015149D01*
X015813Y002305D02*
X016167D01*
X015813Y001635D02*
X016167D01*
Y002305D01*
X015813Y001635D02*
Y002305D01*
X027248Y033371D02*
X029232D01*
X027248D02*
Y034395D01*
X029232D01*
Y033371D02*
Y034395D01*
X028947Y033371D02*
X029232Y033657D01*
X010218Y020561D02*
X010504Y020846D01*
X010218Y019823D02*
Y020846D01*
Y019823D02*
X012203D01*
Y020846D01*
X010218D02*
X012203D01*
X014407Y036988D02*
X014692Y037274D01*
Y036988D02*
Y038012D01*
X012708D02*
X014692D01*
X012708Y036988D02*
Y038012D01*
Y036988D02*
X014692D01*
M02*
