G04*
G04 #@! TF.GenerationSoftware,Altium Limited,Altium Designer,19.1.1 (5)*
G04*
G04 Layer_Color=65535*
%FSTAX24Y24*%
%MOIN*%
G70*
G01*
G75*
%ADD10C,0.0098*%
%ADD11C,0.0079*%
%ADD12C,0.0100*%
%ADD13C,0.0070*%
%ADD14C,0.0050*%
%ADD15C,0.0040*%
%ADD16C,0.0039*%
G36*
X012506Y00149D02*
X012756Y00124D01*
Y00174D01*
X012506Y00149D01*
D02*
G37*
G36*
X011146Y01178D02*
X010896Y01203D01*
Y01153D01*
X011146Y01178D01*
D02*
G37*
G36*
X013636Y011775D02*
X013386Y012025D01*
Y011525D01*
X013636Y011775D01*
D02*
G37*
G36*
X023961Y003155D02*
X024211Y003405D01*
X023711D01*
X023961Y003155D01*
D02*
G37*
G36*
X031386Y011D02*
X031136Y01125D01*
Y01075D01*
X031386Y011D01*
D02*
G37*
G36*
X012216Y0144D02*
X012466Y01415D01*
Y01465D01*
X012216Y0144D01*
D02*
G37*
G36*
X020445Y026334D02*
X020195Y026084D01*
X020695D01*
X020445Y026334D01*
D02*
G37*
G36*
X0295Y02288D02*
X02975Y02263D01*
Y02313D01*
X0295Y02288D01*
D02*
G37*
G36*
X032061Y01455D02*
X031811Y0143D01*
X032311D01*
X032061Y01455D01*
D02*
G37*
G36*
X031376Y0223D02*
X031126Y02255D01*
Y02205D01*
X031376Y0223D01*
D02*
G37*
G36*
X035536Y02288D02*
X035786Y02263D01*
Y02313D01*
X035536Y02288D01*
D02*
G37*
D10*
X027738Y037453D02*
G03*
X027738Y037453I-000049J0D01*
G01*
X030722Y026925D02*
G03*
X030722Y026925I-000049J0D01*
G01*
X004083Y019392D02*
G03*
X004083Y019392I-000049J0D01*
G01*
X016102Y026367D02*
G03*
X016102Y026367I-000049J0D01*
G01*
X017757Y035847D02*
G03*
X017757Y035847I-000049J0D01*
G01*
X010532Y033905D02*
G03*
X010532Y033905I-000049J0D01*
G01*
D11*
X027318Y02937D02*
G03*
X030895Y02937I001789J00122D01*
G01*
X02796Y028615D02*
G03*
X030253Y028615I001147J001975D01*
G01*
X030895Y03181D02*
G03*
X027318Y03181I-001789J-00122D01*
G01*
X030253Y032565D02*
G03*
X02796Y032565I-001147J-001975D01*
G01*
X031626Y032716D02*
G03*
X031232Y03311I-000394J0D01*
G01*
X02698D02*
G03*
X026587Y032716I0J-000394D01*
G01*
X031232Y02807D02*
G03*
X031626Y028464I0J000394D01*
G01*
X026587D02*
G03*
X02698Y02807I000394J0D01*
G01*
X02796Y032565D02*
G03*
X027052Y03181I-000468J-00036D01*
G01*
X030253Y028615D02*
G03*
X031161Y02937I000468J00036D01*
G01*
Y03181D02*
G03*
X030253Y032565I-00044J000394D01*
G01*
X027052Y02937D02*
G03*
X02796Y028615I00044J-000394D01*
G01*
X034913Y028003D02*
G03*
X034913Y028003I-000039J0D01*
G01*
X004477Y020512D02*
G03*
X004477Y020512I-00005J0D01*
G01*
X012481Y022305D02*
G03*
X012481Y025882I-00122J001789D01*
G01*
X013235Y022947D02*
G03*
X013235Y02524I-001975J001147D01*
G01*
X01004Y025882D02*
G03*
X01004Y022305I00122J-001789D01*
G01*
X009286Y02524D02*
G03*
X009286Y022947I001975J-001147D01*
G01*
X009135Y026613D02*
G03*
X008741Y02622I0J-000394D01*
G01*
Y021968D02*
G03*
X009135Y021574I000394J0D01*
G01*
X01378Y02622D02*
G03*
X013386Y026613I-000394J0D01*
G01*
Y021574D02*
G03*
X01378Y021968I0J000394D01*
G01*
X009286Y022947D02*
G03*
X01004Y022039I00036J-000468D01*
G01*
X013235Y02524D02*
G03*
X012481Y026148I-00036J000468D01*
G01*
X01004D02*
G03*
X009286Y02524I-000394J-00044D01*
G01*
X012481Y022039D02*
G03*
X013235Y022947I000394J00044D01*
G01*
X030622Y037658D02*
G03*
X030544Y037658I-000039J0D01*
G01*
D02*
G03*
X030622Y037658I000039J0D01*
G01*
X017327Y03464D02*
G03*
X017327Y03464I-00005J0D01*
G01*
X012673Y035832D02*
G03*
X012673Y032255I00122J-001789D01*
G01*
X011919Y03519D02*
G03*
X011919Y032897I001975J-001147D01*
G01*
X015114Y032255D02*
G03*
X015114Y035832I-00122J001789D01*
G01*
X015868Y032897D02*
G03*
X015868Y03519I-001975J001147D01*
G01*
X01602Y031524D02*
G03*
X016413Y031917I0J000394D01*
G01*
Y036169D02*
G03*
X01602Y036563I-000394J0D01*
G01*
X011374Y031917D02*
G03*
X011768Y031524I000394J0D01*
G01*
Y036563D02*
G03*
X011374Y036169I0J-000394D01*
G01*
X015868Y03519D02*
G03*
X015114Y036098I-00036J000468D01*
G01*
X011919Y032897D02*
G03*
X012673Y031989I00036J-000468D01*
G01*
X015114D02*
G03*
X015868Y032897I000394J00044D01*
G01*
X012673Y036098D02*
G03*
X011919Y03519I-000394J-00044D01*
G01*
X017578Y004268D02*
Y006091D01*
X016643Y004268D02*
X017578D01*
X016643D02*
Y006091D01*
X017578D01*
X017111D02*
X017578Y005623D01*
X017111Y006091D02*
Y007507D01*
Y002852D02*
Y004268D01*
X0079Y032623D02*
Y037544D01*
X001088Y032623D02*
X0079D01*
X001088D02*
Y037544D01*
X0079D01*
X02635Y036853D02*
X026744Y037247D01*
X02635Y035554D02*
Y036853D01*
X028043Y035554D02*
Y036853D01*
X02635Y035554D02*
X026744D01*
X02765D02*
X028043D01*
X02765Y037247D02*
X028043Y036853D01*
X026587Y03181D02*
Y032716D01*
X031626Y028464D02*
Y02937D01*
X02698Y03311D02*
X031232D01*
X031626Y03181D02*
Y032716D01*
X026587Y028464D02*
Y02937D01*
X02698Y02807D02*
X031232D01*
X027248Y033371D02*
X029333D01*
X027248Y034395D02*
X029232D01*
X030879Y02598D02*
X031273Y025586D01*
X032572D01*
X031273Y027279D02*
X032572D01*
Y025586D02*
Y02598D01*
Y026886D02*
Y027279D01*
X030879Y026886D02*
X031273Y027279D01*
X034027Y028307D02*
Y032059D01*
X035924D01*
Y028307D02*
Y032059D01*
X034027Y028307D02*
X035924D01*
X003756Y022839D02*
X007756D01*
Y025943D01*
X003756Y022839D02*
Y025943D01*
X009135Y021574D02*
X01004D01*
X012481Y026613D02*
X013386D01*
X008741Y021968D02*
Y02622D01*
X009135Y026613D02*
X01004D01*
X012481Y021574D02*
X013386D01*
X01378Y021968D02*
Y02622D01*
X010218Y019823D02*
X012203D01*
X010118Y020846D02*
X012203D01*
X004241Y018447D02*
X004634Y018054D01*
X005933D01*
X004634Y019746D02*
X005933D01*
Y018054D02*
Y018447D01*
Y019353D02*
Y019746D01*
X004241Y019353D02*
X004634Y019746D01*
X014714Y025767D02*
X015108Y026161D01*
X014714Y024468D02*
Y025767D01*
X016407Y024468D02*
Y025767D01*
X014714Y024468D02*
X015108D01*
X016013D02*
X016407D01*
X016013Y026161D02*
X016407Y025767D01*
X019604Y031311D02*
Y035311D01*
Y031311D02*
X022708D01*
X019604Y035311D02*
X022708D01*
X015114Y036563D02*
X01602D01*
X011768Y031524D02*
X012673D01*
X016413Y031917D02*
Y036169D01*
X015114Y031524D02*
X01602D01*
X011768Y036563D02*
X012673D01*
X011374Y031917D02*
Y036169D01*
X012708Y038012D02*
X014692D01*
X012708Y036988D02*
X014793D01*
X018653Y036054D02*
X019046Y036447D01*
Y037746D01*
X017354Y036447D02*
Y037746D01*
X018653D02*
X019046D01*
X017354D02*
X017747D01*
X017354Y036447D02*
X017747Y036054D01*
X009144Y033305D02*
X009538Y033699D01*
X009144Y032006D02*
Y033305D01*
X010837Y032006D02*
Y033305D01*
X009144Y032006D02*
X009538D01*
X010443D02*
X010837D01*
X010443Y033699D02*
X010837Y033305D01*
D12*
X022561Y0045D02*
G03*
X022061Y0045I-00025J0D01*
G01*
X022561D02*
X024561D01*
X020061D02*
X022061D01*
X020061D02*
Y0245D01*
X024561D01*
Y0045D02*
Y0245D01*
X02685Y016856D02*
Y017456D01*
X02715D01*
X02725Y017356D01*
Y017156D01*
X02715Y017056D01*
X02685D01*
X02745Y017456D02*
X02765D01*
X02755D01*
Y016856D01*
X02745D01*
X02765D01*
X028949Y017256D02*
X028649D01*
X028549Y017156D01*
Y016956D01*
X028649Y016856D01*
X028949D01*
X029249D02*
X029449D01*
X029549Y016956D01*
Y017156D01*
X029449Y017256D01*
X029249D01*
X029149Y017156D01*
Y016956D01*
X029249Y016856D01*
X029749D02*
Y017256D01*
X029849D01*
X029949Y017156D01*
Y016856D01*
Y017156D01*
X030049Y017256D01*
X030149Y017156D01*
Y016856D01*
X030349D02*
Y017256D01*
X030449D01*
X030549Y017156D01*
Y016856D01*
Y017156D01*
X030649Y017256D01*
X030749Y017156D01*
Y016856D01*
X030949Y017256D02*
Y016956D01*
X031049Y016856D01*
X031349D01*
Y017256D01*
X031548Y016856D02*
Y017256D01*
X031848D01*
X031948Y017156D01*
Y016856D01*
X032148D02*
X032348D01*
X032248D01*
Y017256D01*
X032148D01*
X033048D02*
X032748D01*
X032648Y017156D01*
Y016956D01*
X032748Y016856D01*
X033048D01*
X033348Y017256D02*
X033548D01*
X033648Y017156D01*
Y016856D01*
X033348D01*
X033248Y016956D01*
X033348Y017056D01*
X033648D01*
X033948Y017356D02*
Y017256D01*
X033848D01*
X034048D01*
X033948D01*
Y016956D01*
X034048Y016856D01*
X034348D02*
X034548D01*
X034448D01*
Y017256D01*
X034348D01*
X034947Y016856D02*
X035147D01*
X035247Y016956D01*
Y017156D01*
X035147Y017256D01*
X034947D01*
X034847Y017156D01*
Y016956D01*
X034947Y016856D01*
X035447D02*
Y017256D01*
X035747D01*
X035847Y017156D01*
Y016856D01*
X031621Y014D02*
Y0134D01*
Y0137D01*
X03202D01*
Y014D01*
Y0134D01*
X03282Y014D02*
Y0134D01*
X03312D01*
X03322Y0135D01*
Y0136D01*
Y0137D01*
X03312Y0138D01*
X03282D01*
X03342D02*
Y0134D01*
Y0136D01*
X03352Y0137D01*
X03362Y0138D01*
X03372D01*
X03402Y0134D02*
X03422D01*
X03412D01*
Y0138D01*
X03402D01*
X034919Y014D02*
Y0134D01*
X03462D01*
X03452Y0135D01*
Y0137D01*
X03462Y0138D01*
X034919D01*
X035319Y0132D02*
X035419D01*
X035519Y0133D01*
Y0138D01*
X035219D01*
X035119Y0137D01*
Y0135D01*
X035219Y0134D01*
X035519D01*
X036019D02*
X035819D01*
X035719Y0135D01*
Y0137D01*
X035819Y0138D01*
X036019D01*
X036119Y0137D01*
Y0136D01*
X035719D01*
X033755Y022014D02*
X033655Y022114D01*
X033455D01*
X033356Y022014D01*
Y021914D01*
X033455Y021814D01*
X033655D01*
X033755Y021714D01*
Y021614D01*
X033655Y021514D01*
X033455D01*
X033356Y021614D01*
X034255Y021514D02*
X034055D01*
X033955Y021614D01*
Y021814D01*
X034055Y021914D01*
X034255D01*
X034355Y021814D01*
Y021714D01*
X033955D01*
X034555Y021914D02*
Y021514D01*
Y021714D01*
X034655Y021814D01*
X034755Y021914D01*
X034855D01*
X035155D02*
X035355Y021514D01*
X035555Y021914D01*
X035855Y021514D02*
X036055D01*
X036155Y021614D01*
Y021814D01*
X036055Y021914D01*
X035855D01*
X035755Y021814D01*
Y021614D01*
X035855Y021514D01*
X02052Y028044D02*
Y028444D01*
X02042Y028544D01*
X02022D01*
X02012Y028444D01*
Y028044D01*
X02022Y027944D01*
X02042D01*
X02032Y028144D02*
X02052Y027944D01*
X02042D02*
X02052Y028044D01*
X02072Y027944D02*
Y028544D01*
X02092Y028344D01*
X02112Y028544D01*
Y027944D01*
X02172Y028444D02*
X02162Y028544D01*
X02142D01*
X02132Y028444D01*
Y028044D01*
X02142Y027944D01*
X02162D01*
X02172Y028044D01*
X02232Y028544D02*
X02192D01*
Y028244D01*
X02212Y028344D01*
X02222D01*
X02232Y028244D01*
Y028044D01*
X02222Y027944D01*
X02202D01*
X02192Y028044D01*
X02252Y028444D02*
X022619Y028544D01*
X022819D01*
X022919Y028444D01*
Y028344D01*
X022819Y028244D01*
X022919Y028144D01*
Y028044D01*
X022819Y027944D01*
X022619D01*
X02252Y028044D01*
Y028144D01*
X022619Y028244D01*
X02252Y028344D01*
Y028444D01*
X022619Y028244D02*
X022819D01*
X023119Y028444D02*
X023219Y028544D01*
X023419D01*
X023519Y028444D01*
Y028344D01*
X023419Y028244D01*
X023519Y028144D01*
Y028044D01*
X023419Y027944D01*
X023219D01*
X023119Y028044D01*
Y028144D01*
X023219Y028244D01*
X023119Y028344D01*
Y028444D01*
X023219Y028244D02*
X023419D01*
X023719Y028444D02*
X023819Y028544D01*
X024019D01*
X024119Y028444D01*
Y028344D01*
X024019Y028244D01*
X023919D01*
X024019D01*
X024119Y028144D01*
Y028044D01*
X024019Y027944D01*
X023819D01*
X023719Y028044D01*
X024319Y028544D02*
Y027944D01*
X024719D01*
X011616Y01347D02*
X011516Y01357D01*
X011316D01*
X011216Y01347D01*
Y01307D01*
X011316Y01297D01*
X011516D01*
X011616Y01307D01*
Y01327D01*
X011416D01*
X011816Y01297D02*
Y01357D01*
X012116D01*
X012216Y01347D01*
Y01327D01*
X012116Y01317D01*
X011816D01*
X012816Y01347D02*
X012716Y01357D01*
X012516D01*
X012416Y01347D01*
Y01337D01*
X012516Y01327D01*
X012716D01*
X012816Y01317D01*
Y01307D01*
X012716Y01297D01*
X012516D01*
X012416Y01307D01*
X013616Y01297D02*
Y01337D01*
X013715D01*
X013815Y01327D01*
Y01297D01*
Y01327D01*
X013915Y01337D01*
X014015Y01327D01*
Y01297D01*
X014315D02*
X014515D01*
X014615Y01307D01*
Y01327D01*
X014515Y01337D01*
X014315D01*
X014215Y01327D01*
Y01307D01*
X014315Y01297D01*
X015215Y01357D02*
Y01297D01*
X014915D01*
X014815Y01307D01*
Y01327D01*
X014915Y01337D01*
X015215D01*
X015415D02*
Y01307D01*
X015515Y01297D01*
X015815D01*
Y01337D01*
X016015Y01297D02*
X016215D01*
X016115D01*
Y01357D01*
X016015D01*
X016815Y01297D02*
X016615D01*
X016515Y01307D01*
Y01327D01*
X016615Y01337D01*
X016815D01*
X016914Y01327D01*
Y01317D01*
X016515D01*
X011394Y008945D02*
X010994D01*
Y008345D01*
X011394D01*
X010994Y008645D02*
X011194D01*
X011594Y008345D02*
Y008745D01*
X011894D01*
X011994Y008645D01*
Y008345D01*
X012594Y008745D02*
X012294D01*
X012194Y008645D01*
Y008445D01*
X012294Y008345D01*
X012594D01*
X012894D02*
X013094D01*
X013194Y008445D01*
Y008645D01*
X013094Y008745D01*
X012894D01*
X012794Y008645D01*
Y008445D01*
X012894Y008345D01*
X013793Y008945D02*
Y008345D01*
X013493D01*
X013393Y008445D01*
Y008645D01*
X013493Y008745D01*
X013793D01*
X014293Y008345D02*
X014093D01*
X013993Y008445D01*
Y008645D01*
X014093Y008745D01*
X014293D01*
X014393Y008645D01*
Y008545D01*
X013993D01*
X014593Y008745D02*
Y008345D01*
Y008545D01*
X014693Y008645D01*
X014793Y008745D01*
X014893D01*
X015193Y008345D02*
X015393D01*
X015293D01*
Y008945D01*
X015193Y008845D01*
D13*
X034486Y02333D02*
X035476D01*
X034476Y02538D02*
X035476D01*
X034476Y02238D02*
Y02538D01*
Y02238D02*
X035476D01*
Y02538D01*
X02944Y02238D02*
Y02538D01*
X02844Y02238D02*
X02944D01*
X02844D02*
Y02538D01*
X02944D01*
X02845Y02333D02*
X02944D01*
X011156Y00809D02*
X012376D01*
X011156Y00089D02*
X012376D01*
Y00809D01*
X011156Y00092D02*
Y00809D01*
Y002D02*
X012336D01*
X011156Y00089D02*
Y00099D01*
X009856Y00089D02*
X011156D01*
X009856D02*
Y00809D01*
X011156D01*
X019875Y027694D02*
X025055D01*
X019875Y026474D02*
X025055D01*
X019875D02*
Y027694D01*
X025055Y026474D02*
Y027694D01*
X020935Y026494D02*
Y027674D01*
X032736Y01769D02*
Y02287D01*
X031516Y01769D02*
Y02287D01*
X032736D01*
X031516Y01769D02*
X032736D01*
X031536Y02181D02*
X032716D01*
X031516Y0044D02*
X032736D01*
X031516Y0116D02*
X032736D01*
X031516Y0044D02*
Y0116D01*
X032736Y0044D02*
Y01157D01*
X031556Y01049D02*
X032736D01*
Y0115D02*
Y0116D01*
X034036D01*
Y0044D02*
Y0116D01*
X032736Y0044D02*
X034036D01*
X000191Y0035D02*
X003491D01*
Y0028D02*
Y00825D01*
X000191Y0028D02*
Y00825D01*
X003491D01*
X000191Y0028D02*
X003491D01*
X032561Y01466D02*
Y01564D01*
X031556Y014655D02*
X035566D01*
X031556D02*
Y015655D01*
Y016655D01*
X035566D01*
Y014655D02*
Y016655D01*
X023461Y002065D02*
Y003045D01*
X020456Y00305D02*
X024466D01*
Y00205D02*
Y00305D01*
Y00105D02*
Y00205D01*
X020456Y00105D02*
X024466D01*
X020456D02*
Y00305D01*
X011206Y00928D02*
Y01228D01*
X012206D01*
Y00928D02*
Y01228D01*
X011206Y00928D02*
X012206D01*
X011206Y01133D02*
X012196D01*
X013696Y009275D02*
Y012275D01*
X014696D01*
Y009275D02*
Y012275D01*
X013696Y009275D02*
X014696D01*
X013696Y011325D02*
X014686D01*
X012156Y0139D02*
Y0179D01*
X011156Y0139D02*
X012156D01*
X011156D02*
Y0179D01*
X012156D01*
X011166Y01485D02*
X012156D01*
D14*
X033086Y031403D02*
X033756D01*
Y029873D02*
Y031403D01*
X033086Y029873D02*
X033756D01*
X033086D02*
Y031403D01*
X035712Y03241D02*
Y03308D01*
X034182Y03241D02*
X035712D01*
X034182D02*
Y03308D01*
X035712D01*
D15*
X033176Y030463D02*
Y030803D01*
X033676Y030463D02*
Y030803D01*
X034772Y03299D02*
X035112D01*
X034772Y03249D02*
X035112D01*
D16*
X032268Y033926D02*
X03515D01*
X032268D02*
Y037926D01*
X03515D01*
M02*
