G04*
G04 #@! TF.GenerationSoftware,Altium Limited,Altium Designer,19.1.1 (5)*
G04*
G04 Layer_Color=8421504*
%FSTAX24Y24*%
%MOIN*%
G70*
G01*
G75*
%ADD17R,0.0315X0.0374*%
%ADD18R,0.0374X0.0315*%
%ADD19R,0.0630X0.1004*%
%ADD20R,0.1378X0.2126*%
%ADD21R,0.0866X0.0571*%
%ADD22R,0.1004X0.0630*%
%ADD23R,0.0550X0.0500*%
%ADD24R,0.0500X0.0550*%
%ADD25R,0.0402X0.0850*%
%ADD26R,0.3280X0.2752*%
%ADD27R,0.0486X0.0752*%
%ADD28R,0.2126X0.1378*%
%ADD29R,0.0850X0.0421*%
%ADD30R,0.0752X0.4252*%
%ADD31R,0.2000X0.3280*%
%ADD32R,0.0850X0.0402*%
%ADD33R,0.2752X0.3280*%
%ADD34R,0.0752X0.0486*%
D17*
X014539Y00212D02*
D03*
X01509D02*
D03*
D18*
X01599Y002246D02*
D03*
Y001694D02*
D03*
D19*
X027197Y035711D02*
D03*
Y037089D02*
D03*
X015561Y024625D02*
D03*
Y026003D02*
D03*
X0182Y037589D02*
D03*
Y036211D02*
D03*
X009991Y032163D02*
D03*
Y033541D02*
D03*
D20*
X031016Y03059D02*
D03*
X027197D02*
D03*
D21*
X029047Y033883D02*
D03*
X027433D02*
D03*
X012018Y020335D02*
D03*
X010403D02*
D03*
X012893Y0375D02*
D03*
X014507D02*
D03*
D22*
X032414Y026433D02*
D03*
X031037D02*
D03*
X005776Y0189D02*
D03*
X004398D02*
D03*
D23*
X033426Y031083D02*
D03*
Y030183D02*
D03*
D24*
X035392Y03274D02*
D03*
X034492D02*
D03*
D25*
X004418Y021335D02*
D03*
X005087D02*
D03*
X005756D02*
D03*
X006426D02*
D03*
X007095D02*
D03*
D26*
X005756Y025537D02*
D03*
D27*
X007639Y026537D02*
D03*
X003873D02*
D03*
D28*
X011261Y026003D02*
D03*
Y022184D02*
D03*
X013894Y032134D02*
D03*
Y035953D02*
D03*
D29*
X03058Y037265D02*
D03*
Y036595D02*
D03*
Y035926D02*
D03*
Y035257D02*
D03*
Y034587D02*
D03*
D30*
X035783Y035926D02*
D03*
D31*
X034407D02*
D03*
D32*
X0181Y03465D02*
D03*
Y033981D02*
D03*
Y033311D02*
D03*
Y032642D02*
D03*
Y031973D02*
D03*
D33*
X022303Y033311D02*
D03*
D34*
X023303Y031429D02*
D03*
Y035194D02*
D03*
M02*
